<svg xmlns="http://www.w3.org/2000/svg" xmlns:xlink="http://www.w3.org/1999/xlink" viewBox="0 0 191.868 68.88"><defs><style>.a{fill:url(#a);}.b{fill:#fff;}.c{fill:none;stroke:#fff;stroke-miterlimit:10;stroke-width:0.574px;}</style><linearGradient id="a" y1="0.5" x2="1" y2="0.5" gradientUnits="objectBoundingBox"><stop offset="0" stop-color="#01527e"/><stop offset="0.505" stop-color="#435f9d"/><stop offset="1" stop-color="#3f549a"/></linearGradient></defs><g transform="translate(-9238 1271)"><g transform="translate(9238 -1271)"><rect class="a" width="191.868" height="68.88"/><g transform="translate(37.845 19.803)"><g transform="translate(0 13.992)"><path class="b" d="M38.122,42.6v3.961h-1.76a5.621,5.621,0,0,0-.733-1.614,1.465,1.465,0,0,0-.733-.587,2.929,2.929,0,0,0-1.32-.293h-2.64v5.868h1.614a1.86,1.86,0,0,0,.88-.147c.147-.147.44-.293.44-.44a4.966,4.966,0,0,0,.44-1.174h1.467v4.987H34.308a3.505,3.505,0,0,0-.44-1.027,2.025,2.025,0,0,0-.44-.587c-.147-.147-.44-.147-.88-.147H30.934V58h3.374c.147,0,.44-.147.587-.147.147-.147.293-.147.44-.44l.44-.44a1.12,1.12,0,0,0,.293-.733,6.038,6.038,0,0,1,.44-1.174h1.76l-.293,4.547H25.8v-.88c.293-.147.587-.147.733-.293l.44-.44a.882.882,0,0,0,.147-.587V44.8c0-.293,0-.44-.147-.587s-.147-.293-.44-.44c-.147-.147-.44-.147-.733-.293V42.6H38.122Z" transform="translate(-25.8 -37.906)"/><path class="b" d="M38.907,55.262a3.862,3.862,0,0,0,1.027,2.2,2.9,2.9,0,0,0,2.054.733,4.283,4.283,0,0,0,1.32-.293,1.5,1.5,0,0,0,.88-.733,1.972,1.972,0,0,0,.293-1.32,4.283,4.283,0,0,0-.293-1.32,1.972,1.972,0,0,0-.88-1.027,9.312,9.312,0,0,0-1.76-1.027,10.941,10.941,0,0,1-1.76-1.027,3.463,3.463,0,0,1-1.32-1.174l-.88-1.32a5.273,5.273,0,0,1-.293-1.614,5.066,5.066,0,0,1,.733-2.64,4.335,4.335,0,0,1,2.2-1.614,10.546,10.546,0,0,1,3.227-.587,9.021,9.021,0,0,1,2.054.147,16.2,16.2,0,0,1,2.347.44v3.521h-1.76a5.254,5.254,0,0,0-.587-1.614,2.491,2.491,0,0,0-.88-.88,3.5,3.5,0,0,0-1.32-.293,4.283,4.283,0,0,0-1.32.293,1.5,1.5,0,0,0-.88.733,2.679,2.679,0,0,0,.88,3.374,15.468,15.468,0,0,0,1.907,1.174,10.794,10.794,0,0,1,2.347,1.614,4.585,4.585,0,0,1,1.32,1.614A4.685,4.685,0,0,1,48,54.675a5.066,5.066,0,0,1-.733,2.64,4.878,4.878,0,0,1-2.054,1.76,6.8,6.8,0,0,1-3.08.587,15.943,15.943,0,0,1-2.64-.147c-.88-.147-1.76-.293-2.494-.44V55.262Z" transform="translate(-20.571 -37.953)"/><path class="b" d="M52.534,56.389v1.173c0,.293.147.44.147.587.147.147.293.293.44.293.147.147.44.147.88.293v.88H47.4v-.88c.293-.147.587-.147.733-.293l.44-.44a.882.882,0,0,0,.147-.587V44.8c0-.293,0-.44-.147-.587s-.147-.293-.44-.44c-.147-.147-.44-.147-.733-.293V42.6h7.188a8.179,8.179,0,0,1,4.694,1.174A3.978,3.978,0,0,1,60.9,47.147a5.618,5.618,0,0,1-.733,2.787,4.046,4.046,0,0,1-2.054,1.76,8.014,8.014,0,0,1-3.521.587H52.681v4.107Zm0-5.427h1.027a5.747,5.747,0,0,0,1.907-.293,2.035,2.035,0,0,0,1.027-1.174,4.054,4.054,0,0,0,.293-2.054,7.646,7.646,0,0,0-.293-2.054,2.311,2.311,0,0,0-1.027-1.027,5.471,5.471,0,0,0-1.76-.293h-1.32v6.894Z" transform="translate(-15.715 -37.906)"/><path class="b" d="M66.921,54.142H61.641l-.44,1.174a9.347,9.347,0,0,0-.293,1.027,2.175,2.175,0,0,0-.147,1.027q0,1.1,1.32,1.32v.88H56.8v-.88a1.12,1.12,0,0,0,.733-.293,1.465,1.465,0,0,0,.587-.733,5.749,5.749,0,0,0,.587-1.32L63.841,42.7h3.52l4.107,13.789a6.82,6.82,0,0,0,.44,1.32,2.025,2.025,0,0,0,.44.587,1.24,1.24,0,0,0,.88.293v.88H66.481v-.88a1.24,1.24,0,0,0,.88-.293,1.12,1.12,0,0,0,.293-.733,1.861,1.861,0,0,0-.147-.88c-.147-.293-.147-.733-.293-1.173Zm-4.694-1.467h4.4L64.721,45.78Z" transform="translate(-11.327 -37.859)"/><path class="b" d="M85.262,44.094v.88c-.293.147-.587.147-.733.293s-.293.147-.293.293c-.147.147-.147.293-.147.587s-.147.587-.147,1.174V61.11h-3.08l-5.574-9.535a33.474,33.474,0,0,1-1.614-3.08h-.147c.147,1.76.147,3.667.147,5.574v3.814a3.256,3.256,0,0,0,.147,1.32c.147.293.147.44.293.587a2.388,2.388,0,0,0,.88.44v.88H70.3v-.88c.293-.147.587-.147.733-.293l.44-.44a.882.882,0,0,0,.147-.587V47.174a3.256,3.256,0,0,0-.147-1.32.762.762,0,0,0-.293-.587,2.388,2.388,0,0,0-.88-.44v-.88h4.987l4.4,7.628c.293.44.587,1.174,1.027,1.907a17.513,17.513,0,0,1,1.174,2.347h.147c-.147-1.907-.147-4.107-.147-6.454V45.854c0-.293-.147-.44-.147-.587a.315.315,0,0,0-.293-.293c-.147-.147-.44-.147-.733-.293V43.8h4.547ZM81.3,39.4l1.174.44a7.172,7.172,0,0,1-1.32,2.2,2.028,2.028,0,0,1-1.32.733,1.861,1.861,0,0,1-.88-.147,8.415,8.415,0,0,1-1.027-.587,2.025,2.025,0,0,1-.587-.44.539.539,0,0,0-.44-.147h-.44a.539.539,0,0,0-.44.147q-.22,0-.44.44a8.684,8.684,0,0,0-.587.88l-1.174-.44a10.524,10.524,0,0,1,1.027-1.614,4.979,4.979,0,0,1,.88-.88,2.12,2.12,0,0,1,1.027-.293h.587c.147,0,.293.147.44.147a3.206,3.206,0,0,0,.733.44,3.207,3.207,0,0,1,.733.44.539.539,0,0,0,.44.147h.44a1.12,1.12,0,0,0,.733-.293A4.966,4.966,0,0,0,81.3,39.4Z" transform="translate(-5.024 -39.4)"/><path class="b" d="M90.788,59.616a7.071,7.071,0,0,1-5.427-2.054c-1.174-1.467-1.76-3.521-1.76-6.308a11.171,11.171,0,0,1,.88-4.694,5.773,5.773,0,0,1,2.64-2.934A8.647,8.647,0,0,1,96.8,44.654a9.8,9.8,0,0,1,1.907,6.308,10.254,10.254,0,0,1-.587,3.961,6.624,6.624,0,0,1-4.107,4.4A8.068,8.068,0,0,1,90.788,59.616Zm-3.374-8.8a13.318,13.318,0,0,0,.88,5.574,2.877,2.877,0,0,0,2.787,1.76,2.957,2.957,0,0,0,1.614-.44,3.744,3.744,0,0,0,1.027-1.467,7.943,7.943,0,0,0,.587-2.2,16.844,16.844,0,0,0,.147-2.787,16.771,16.771,0,0,0-.44-4.107,4.953,4.953,0,0,0-1.174-2.494,2.663,2.663,0,0,0-2.054-.88,2.819,2.819,0,0,0-2.64,1.76A15.6,15.6,0,0,0,87.414,50.815Z" transform="translate(1.186 -37.906)"/><path class="b" d="M103.254,42.647v.88c-.293.147-.587.147-.733.293l-.44.44a.882.882,0,0,0-.147.587V58.2h2.347a2.763,2.763,0,0,0,1.174-.293,1.767,1.767,0,0,0,.733-.733A8.71,8.71,0,0,0,106.775,56a5.212,5.212,0,0,0,.293-1.467h1.76l-.293,4.987H96.8v-.88c.293-.147.587-.147.733-.293l.44-.44a.882.882,0,0,0,.147-.587V44.7c0-.293,0-.44-.147-.587s-.147-.293-.44-.44c-.147-.147-.44-.147-.733-.293V42.5h6.454Z" transform="translate(7.348 -37.953)"/></g><g transform="translate(113.384)"><path class="c" d="M108.971,42.45h7.051V13.5H92.4" transform="translate(-92.4 -13.5)"/></g></g></g><g transform="translate(9254.723 -1251.197)"><path class="c" d="M18.644,42.454H11.4V13.5H35.033" transform="translate(-11.4 -13.5)"/></g><g transform="translate(9281.662 -1258)"><path class="b" d="M50.588,17.415H45.6l-1.467,3.814H43.4L48.241,9.2h0l4.841,12.028H52.2Zm-.293-.733-2.2-5.574-2.347,5.574Z" transform="translate(-43.4 -9.2)"/><path class="b" d="M61.308,21.042h-.88V15.614H53.533v5.427H52.8V9.6h.733v5.281h6.894V9.6h.733V21.042Z" transform="translate(-39.011 -9.013)"/><path class="b" d="M62.4,12.434a6.317,6.317,0,0,1,2.2-2.2A5.153,5.153,0,0,1,67.538,9.5a6.677,6.677,0,0,1,2.934.733,7.857,7.857,0,0,1,2.2,2.2,5.153,5.153,0,0,1,.733,2.934,6.677,6.677,0,0,1-.733,2.934,5.291,5.291,0,0,1-2.2,2.2,5.153,5.153,0,0,1-2.934.733A6.677,6.677,0,0,1,64.6,20.5a4.634,4.634,0,0,1-2.054-2.054,5.153,5.153,0,0,1-.733-2.934A4.215,4.215,0,0,1,62.4,12.434Zm.733,5.427a7.179,7.179,0,0,0,1.76,1.907,3.84,3.84,0,0,0,2.494.733,4.945,4.945,0,0,0,2.494-.733,4.768,4.768,0,0,0,1.907-1.907,4.945,4.945,0,0,0,.733-2.494,4.945,4.945,0,0,0-.733-2.494,4.768,4.768,0,0,0-1.907-1.907,4.606,4.606,0,0,0-4.987,0,4.458,4.458,0,0,0-1.76,1.907,5.407,5.407,0,0,0-.733,2.494A4.945,4.945,0,0,0,63.137,17.861Z" transform="translate(-34.826 -9.06)"/><path class="b" d="M79.108,21.042,76.174,16.2h-2.64v4.841H72.8V9.6h2.64a7.363,7.363,0,0,1,1.76.293,3.194,3.194,0,0,1,1.32,1.027,3.145,3.145,0,0,1,.587,1.76,4.061,4.061,0,0,1-.44,1.907A2.331,2.331,0,0,1,77.2,15.761l3.08,5.134H79.108Zm-1.614-6.454a3.09,3.09,0,0,0,.733-1.907,4.283,4.283,0,0,0-.293-1.32,2.491,2.491,0,0,0-.88-.88,2.412,2.412,0,0,0-1.467-.293H73.68v5.134h1.76A2.042,2.042,0,0,0,77.494,14.587Z" transform="translate(-29.674 -9.013)"/><path class="b" d="M87.388,17.415H82.4l-1.467,3.814H80.2L85.041,9.2h0l4.841,12.028H89Zm-.293-.733-2.2-5.574-2.2,5.574Z" transform="translate(-26.219 -9.2)"/><g transform="translate(75.355 0)"><g transform="translate(0 0)"><path class="b" d="M89.981,26.247v.733h-6.6v4.694h5.868v.733H83.38v4.841h6.748v.733H82.5V26.1h7.481Z" transform="translate(-82.5 -25.953)"/><path class="b" d="M101.121,26.293V38.468h0L91.88,28.054V38.175H91V26h0l9.241,10.415V26.147h.88Z" transform="translate(-78.532 -26)"/></g></g></g></g></svg>