<svg xmlns="http://www.w3.org/2000/svg" viewBox="0 0 55.023 60"><defs><style>.a{fill:#fff;}.b{fill:#8b9e95;}</style></defs><path class="a" d="M18.527,174.8c0,2.382,0,4.763-.027,7.172h.027Z" transform="translate(-13.436 -126.955)"/><path class="a" d="M18.527,152.507c0-2.546,0-4.928-.027-6.707C18.527,148.045,18.527,150.29,18.527,152.507Z" transform="translate(-13.436 -105.893)"/><path class="a" d="M185.4,88.8c.082.137.137.3.219.465A2.426,2.426,0,0,0,185.4,88.8Z" transform="translate(-134.647 -64.497)"/><path d="M18.6,170.3v0Z" transform="translate(-13.509 -123.686)"/><path d="M190.224,98.284c0-.219-2.573-4.928-4.024-7.884,1.314,2.738,2.683,5.42,4.024,8.158-.027.11-.055.219-.082.356C190.306,98.749,190.224,98.53,190.224,98.284Z" transform="translate(-135.228 -65.659)"/><path d="M180.7,121.4a44.627,44.627,0,0,0,5.448.027C184.314,121.427,182.507,121.455,180.7,121.4Z" transform="translate(-131.234 -88.173)"/><path class="b" d="M60.765,41.525H58a2.168,2.168,0,0,1-1.533-3.7l1.944-1.944a.43.43,0,0,0,0-.6l-2.491-2.491a.43.43,0,0,0-.6,0l-1.944,1.944a2.168,2.168,0,0,1-3.7-1.533V30.438A.432.432,0,0,0,49.24,30h-3.5a.432.432,0,0,0-.438.438V33.2a2.168,2.168,0,0,1-3.7,1.533l-1.944-1.944a.43.43,0,0,0-.6,0l-2.464,2.491a.43.43,0,0,0,0,.6l1.944,1.944A2.168,2.168,0,0,1,37,41.525H34.238a.432.432,0,0,0-.438.438v3.531a.432.432,0,0,0,.438.438H37a2.168,2.168,0,0,1,1.533,3.7l-1.944,1.944a.43.43,0,0,0,0,.6l2.491,2.491a.43.43,0,0,0,.6,0l1.944-1.944a2.137,2.137,0,0,1,1.506-.63,2.336,2.336,0,0,1,.849.164,2.114,2.114,0,0,1,1.341,2v2.765a.432.432,0,0,0,.438.438h3.531a.432.432,0,0,0,.438-.438V54.255a2.168,2.168,0,0,1,3.7-1.533l1.944,1.944a.43.43,0,0,0,.6,0l2.491-2.491a.43.43,0,0,0,0-.6l-1.944-1.944a2.168,2.168,0,0,1,1.533-3.7h2.765a.432.432,0,0,0,.438-.438V41.936A.526.526,0,0,0,60.765,41.525Z" transform="translate(-24.548 -21.794)"/><path class="b" d="M50.975,24.792c-.082-.164-.164-.329-.219-.465a11.7,11.7,0,0,1-.794-2.573c-.274-1.177-.356-2.409-.684-3.559A25.123,25.123,0,0,0,18.289.948C1.644,5.547-5.473,24.737,4.738,38.7a2.188,2.188,0,0,1,.356,1.259c0,1.752.027,12.812.027,15.084,0,1.889,0,3.614-.027,4.955l21.709.027V48.91c.329-.027.52-.055.739-.055,5.092.027,10.184.055,15.248.11a1.011,1.011,0,0,0,1.15-.821c1.451-4.681,2.929-9.335,4.407-14.016a.983.983,0,0,1,1.15-.849c1.807.055,3.614.027,5.448.027.027-.11.055-.219.082-.356C53.658,30.213,52.289,27.5,50.975,24.792ZM37.752,23.7a1.53,1.53,0,0,1-1.533,1.533H33.455a1.065,1.065,0,0,0-.767,1.807l1.944,1.944a1.561,1.561,0,0,1,.438,1.068,1.511,1.511,0,0,1-.438,1.068l-2.491,2.491a1.572,1.572,0,0,1-2.163,0l-1.944-1.944a1,1,0,0,0-1.15-.219,1.04,1.04,0,0,0-.657.986v2.765a1.53,1.53,0,0,1-1.533,1.533h-3.5a1.53,1.53,0,0,1-1.533-1.533V32.43a1.065,1.065,0,0,0-1.807-.767l-1.944,1.944a1.572,1.572,0,0,1-2.163,0l-2.491-2.491a1.561,1.561,0,0,1-.438-1.068,1.511,1.511,0,0,1,.438-1.068L13.2,27.037a1,1,0,0,0,.219-1.15,1.067,1.067,0,0,0-.986-.657H9.693A1.53,1.53,0,0,1,8.16,23.7V20.166a1.53,1.53,0,0,1,1.533-1.533h2.765a1.065,1.065,0,0,0,.767-1.807l-1.944-1.944a1.561,1.561,0,0,1-.438-1.068,1.511,1.511,0,0,1,.438-1.068l2.491-2.491a1.572,1.572,0,0,1,2.163,0L17.878,12.2a1,1,0,0,0,1.15.219,1.04,1.04,0,0,0,.657-.986V8.668a1.53,1.53,0,0,1,1.533-1.533h3.531a1.531,1.531,0,0,1,1.533,1.533v2.765a1.065,1.065,0,0,0,1.807.767l1.944-1.944a1.572,1.572,0,0,1,2.163,0l2.491,2.491a1.561,1.561,0,0,1,.438,1.068,1.511,1.511,0,0,1-.438,1.068l-1.944,1.944a1,1,0,0,0-.219,1.15,1.067,1.067,0,0,0,.986.657h2.765a1.53,1.53,0,0,1,1.533,1.533V23.7Z" transform="translate(-0.003 -0.024)"/><path class="a" d="M57.86,37.525H55.095a1.065,1.065,0,0,1-.767-1.807l1.944-1.944a1.52,1.52,0,0,0,0-2.135l-2.491-2.491a1.572,1.572,0,0,0-2.163,0l-1.944,1.944a1,1,0,0,1-1.15.219,1.04,1.04,0,0,1-.657-.986V27.533A1.53,1.53,0,0,0,46.335,26h-3.5A1.53,1.53,0,0,0,41.3,27.533V30.3a1.065,1.065,0,0,1-1.807.767l-1.944-1.944a1.572,1.572,0,0,0-2.163,0l-2.491,2.491a1.52,1.52,0,0,0,0,2.135l1.944,1.944a1,1,0,0,1,.219,1.15,1.067,1.067,0,0,1-.986.657H31.333A1.53,1.53,0,0,0,29.8,39.031v3.531A1.53,1.53,0,0,0,31.333,44.1H34.1a1.065,1.065,0,0,1,.767,1.807l-1.944,1.944a1.52,1.52,0,0,0,0,2.135l2.491,2.491a1.572,1.572,0,0,0,2.163,0l1.944-1.944a1,1,0,0,1,1.15-.219,1.04,1.04,0,0,1,.657.986V54.06a1.531,1.531,0,0,0,1.533,1.533h3.531a1.531,1.531,0,0,0,1.533-1.533V51.295a1.065,1.065,0,0,1,1.807-.767l1.944,1.944a1.572,1.572,0,0,0,2.163,0l2.491-2.491a1.561,1.561,0,0,0,.438-1.068,1.511,1.511,0,0,0-.438-1.068L54.383,45.9a1,1,0,0,1-.219-1.15,1.067,1.067,0,0,1,.986-.657h2.765a1.53,1.53,0,0,0,1.533-1.533V39.031A1.611,1.611,0,0,0,57.86,37.525Zm.438,5.037A.432.432,0,0,1,57.86,43H55.095a2.168,2.168,0,0,0-1.533,3.7l1.944,1.944a.43.43,0,0,1,0,.6l-2.491,2.491a.43.43,0,0,1-.6,0l-1.944-1.944a2.148,2.148,0,0,0-2.354-.465,2.114,2.114,0,0,0-1.341,2v2.765a.432.432,0,0,1-.438.438h-3.5a.432.432,0,0,1-.438-.438V51.322a2.169,2.169,0,0,0-1.341-2,2.231,2.231,0,0,0-.849-.164,2.137,2.137,0,0,0-1.506.63l-1.944,1.944a.43.43,0,0,1-.6,0L33.66,49.242a.43.43,0,0,1,0-.6L35.6,46.7A2.168,2.168,0,0,0,34.071,43H31.333a.432.432,0,0,1-.438-.438V39.031a.432.432,0,0,1,.438-.438H34.1a2.168,2.168,0,0,0,1.533-3.7l-1.944-1.916a.43.43,0,0,1,0-.6l2.491-2.491a.43.43,0,0,1,.6,0l1.944,1.944a2.168,2.168,0,0,0,3.7-1.533V27.533a.432.432,0,0,1,.438-.438h3.531a.432.432,0,0,1,.438.438V30.3a2.168,2.168,0,0,0,3.7,1.533l1.944-1.944a.43.43,0,0,1,.6,0l2.491,2.491a.43.43,0,0,1,0,.6l-1.944,1.944a2.168,2.168,0,0,0,1.533,3.7h2.765a.432.432,0,0,1,.438.438v3.5Z" transform="translate(-21.643 -18.889)"/></svg>