<svg xmlns="http://www.w3.org/2000/svg" viewBox="0 0 48.97 29.439"><defs><style>.a{fill:#8b9e95;}</style></defs><g transform="translate(0 0.1)"><path class="a" d="M0,24.41V4.812H7.343v17.15a2.343,2.343,0,0,1-.721,1.727A2.343,2.343,0,0,1,4.9,24.41Zm37.033-3.454a2.281,2.281,0,0,1,.872,1.609,2.391,2.391,0,0,1-.57,1.844l-.687.838A2.3,2.3,0,0,1,35,26.2a2.189,2.189,0,0,1-1.794-.57l-.386-.3-2.448,2.9a2.786,2.786,0,0,1-3.99.453l-1.375-1.224a4.907,4.907,0,0,1-3.336,1.844,4.472,4.472,0,0,1-3.554-1.073l-6.957-6.27H9.791V4.812L14,.6a2.3,2.3,0,0,1,1.676-.687H22.1L15.843,5.65a5.212,5.212,0,0,0-1.76,3.839,5.3,5.3,0,0,0,1.459,3.94,5.418,5.418,0,0,0,3.789,1.76,5.53,5.53,0,0,0,4.024-1.408l2.3-2.146ZM33.295-.083A2.276,2.276,0,0,1,34.971.6l4.208,4.208v14.77a4.582,4.582,0,0,0-.62-.536L27.394,10.009l2-1.844a1.34,1.34,0,0,0,.419-.872,1.12,1.12,0,0,0-.3-.872,1.075,1.075,0,0,0-.838-.386,1.345,1.345,0,0,0-.872.3L21.677,12a3.37,3.37,0,0,1-2.3.687,2.8,2.8,0,0,1-2.062-.956,3.207,3.207,0,0,1-.771-2.146,2.7,2.7,0,0,1,.989-2.112L25.03.52A2.465,2.465,0,0,1,26.706-.1h6.589Zm8.332,4.9H48.97v19.6h-4.9a2.461,2.461,0,0,1-2.448-2.448V4.812Z" transform="translate(0 0)"/></g></svg>