<svg xmlns="http://www.w3.org/2000/svg" viewBox="0 0 48.391 60"><defs><style>.a{fill:#8b9e95;}</style></defs><g transform="translate(0 -0.082)"><path class="a" d="M44.832,39.045a5.517,5.517,0,0,1,4.974-2.868c2.2-.022,3.293-1.143,3.338-3.338a5.483,5.483,0,0,1,2.868-4.951c1.882-1.12,2.285-2.644,1.21-4.548a5.5,5.5,0,0,1,0-5.735c1.075-1.9.672-3.428-1.21-4.548a5.517,5.517,0,0,1-2.868-4.974C53.1,5.888,52,4.791,49.805,4.746a5.517,5.517,0,0,1-4.974-2.868C43.711,0,42.188-.407,40.284.668a5.5,5.5,0,0,1-5.735,0C32.644-.407,31.121,0,30,1.878a5.517,5.517,0,0,1-4.974,2.868c-2.173.022-3.293,1.12-3.316,3.316a5.56,5.56,0,0,1-2.868,4.974c-1.882,1.12-2.308,2.621-1.21,4.548a5.5,5.5,0,0,1,0,5.735c-1.075,1.9-.672,3.428,1.21,4.548a5.507,5.507,0,0,1,2.868,4.951c.022,2.2,1.143,3.316,3.338,3.338a5.517,5.517,0,0,1,4.974,2.868c1.12,1.882,2.644,2.285,4.548,1.21a5.6,5.6,0,0,1,5.735,0C42.188,41.33,43.711,40.927,44.832,39.045Zm-7.415-6.587A12,12,0,1,1,49.4,20.45,12.009,12.009,0,0,1,37.416,32.459Z" transform="translate(-13.221 0)"/><path class="a" d="M11.627,165.275c-2.308,0-2.621-1.075-2.621-1.075L0,181.9l7.214-.807,3.988,6s8.312-17.363,8.312-17.251C15.212,169.756,16.937,165.387,11.627,165.275Z" transform="translate(0 -127.35)"/><path class="a" d="M138.442,167.3c-6.587.694-5.242,2.33-6.743,3.585a4.655,4.655,0,0,1-3.9,1.479l10.149,17.475,2.509-6.475,7.1.919Z" transform="translate(-99.169 -129.756)"/><path class="a" d="M82.342,61.586,79.832,56.5l-2.509,5.086-5.623.807,4.055,3.965-.941,5.6,5.018-2.644,5.041,2.644-.963-5.6,4.055-3.965Z" transform="translate(-55.637 -43.779)"/></g></svg>