<svg xmlns="http://www.w3.org/2000/svg" viewBox="0 0 18.993 20.02"><defs><style>.a{fill:#b9ccc2;}</style></defs><path class="a" d="M17.915,5H1.078A1.053,1.053,0,0,0,0,6.078V7.515A1.053,1.053,0,0,0,1.078,8.593H17.915a1.053,1.053,0,0,0,1.078-1.078V6.078A1.053,1.053,0,0,0,17.915,5Z" transform="translate(0 -2.433)"/><g transform="translate(3.337)"><path class="a" d="M8.861,5.133H7.219A.7.7,0,0,1,6.5,4.415V.719A.7.7,0,0,1,7.219,0H8.861A.7.7,0,0,1,9.58.719v3.7A.7.7,0,0,1,8.861,5.133Z" transform="translate(-6.5)"/><path class="a" d="M26.861,5.133H25.219a.7.7,0,0,1-.719-.719V.719A.7.7,0,0,1,25.219,0h1.643a.7.7,0,0,1,.719.719v3.7A.7.7,0,0,1,26.861,5.133Z" transform="translate(-15.26)"/></g><path class="a" d="M16.683,14H2.31A2.3,2.3,0,0,0,0,16.31v8.213a2.3,2.3,0,0,0,2.31,2.31H16.683a2.3,2.3,0,0,0,2.31-2.31V16.31A2.3,2.3,0,0,0,16.683,14ZM5.955,24.472a.68.68,0,0,1-.667.667H2.721a.68.68,0,0,1-.667-.667V21.854a.68.68,0,0,1,.667-.667H5.339a.68.68,0,0,1,.667.667v2.618Zm0-5.133a.68.68,0,0,1-.667.667H2.721a.68.68,0,0,1-.667-.667V16.721a.68.68,0,0,1,.667-.667H5.339a.68.68,0,0,1,.667.667v2.618Zm5.493,5.133a.68.68,0,0,1-.667.667H8.213a.68.68,0,0,1-.667-.667V21.854a.68.68,0,0,1,.667-.667H10.78a.68.68,0,0,1,.667.667Zm0-5.133a.68.68,0,0,1-.667.667H8.213a.68.68,0,0,1-.667-.667V16.721a.68.68,0,0,1,.667-.667H10.78a.68.68,0,0,1,.667.667Zm5.493,5.133a.68.68,0,0,1-.667.667H13.655a.68.68,0,0,1-.667-.667V21.854a.68.68,0,0,1,.667-.667h2.618a.68.68,0,0,1,.667.667Zm0-5.133a.68.68,0,0,1-.667.667H13.655a.68.68,0,0,1-.667-.667V16.721a.68.68,0,0,1,.667-.667h2.618a.68.68,0,0,1,.667.667Z" transform="translate(0 -6.813)"/></svg>