<svg xmlns="http://www.w3.org/2000/svg" viewBox="0 0 50.59 53.416"><defs><style>.a{fill:#464646;}</style></defs><g transform="translate(0 15.306)"><path class="a" d="M49.555,90.74H47.26V57.5a2.806,2.806,0,0,0-2.8-2.8H39.341a2.806,2.806,0,0,0-2.8,2.8V90.74h-5.82V72.552a2.806,2.806,0,0,0-2.8-2.8H22.8a2.806,2.806,0,0,0-2.8,2.8V90.74h-5.82V81.31a2.806,2.806,0,0,0-2.8-2.8H6.268a2.806,2.806,0,0,0-2.8,2.8v9.43H1.035A1.033,1.033,0,0,0,0,91.775,1.051,1.051,0,0,0,1.035,92.81H49.555a1.035,1.035,0,0,0,0-2.071Z" transform="translate(0 -54.7)"/></g><g transform="translate(8.947)"><path class="a" d="M70.288,1.091A.941.941,0,0,0,69.98.308,1.033,1.033,0,0,0,69.2,0h-6.38a1.033,1.033,0,0,0-1.035,1.035,1.051,1.051,0,0,0,1.035,1.035h3.889L56.382,12.4,52.492,8.506a1.014,1.014,0,0,0-1.455,0L32.29,27.282a1.031,1.031,0,0,0,0,1.483,1.066,1.066,0,0,0,.728.308,1.016,1.016,0,0,0,.728-.308l18.02-18.02,3.889,3.889a1.031,1.031,0,0,0,1.483,0L68.19,3.582V7.107a1.035,1.035,0,1,0,2.071,0V1.147C70.288,1.119,70.288,1.119,70.288,1.091Z" transform="translate(-31.975)"/></g></svg>