<svg xmlns="http://www.w3.org/2000/svg" viewBox="0 0 258.924 61.626"><defs><style>.a{fill:#efefef;fill-rule:evenodd;}</style></defs><path class="a" d="M39.977,32.391,38.839,35.8h2.275l-1.138-3.413Zm1.707,4.93H38.365l-.758,2.086H35.9L39.313,30.4h1.422l3.413,9.007H42.442l-.758-2.086Z" transform="translate(-1.863 -1.578)"/><path class="a" d="M48.072,39.412H46.46v-7.4H43.9V30.5h6.731v1.517h-2.56Z" transform="translate(-2.279 -1.583)"/><path class="a" d="M58.672,39.412H57.06v-7.4H54.5V30.5h6.731v1.517h-2.56Z" transform="translate(-2.829 -1.583)"/><path class="a" d="M69.721,30.5v8.912H68.109V35.62h-3.7v3.792H62.8V30.5h1.612v3.6h3.7V30.5Z" transform="translate(-3.26 -1.583)"/><path class="a" d="M78.252,30.5v1.517h-4.74V34.1h4.172V35.62H73.512V37.9h4.93v1.517H71.9V30.5Z" transform="translate(-3.732 -1.583)"/><path class="a" d="M85.977,37.516l.758-2.086,1.612-4.93h1.8L86.83,39.6H85.218L81.9,30.5h1.707l1.707,4.93Z" transform="translate(-4.251 -1.583)"/><path class="a" d="M97.952,30.5v1.517h-4.74V34.1h4.172V35.62H93.212V37.9h4.93v1.517H91.6V30.5Z" transform="translate(-4.755 -1.583)"/><path class="a" d="M103.892,34.482c.569,0,1.327-.095,1.327-1.233s-.758-1.233-1.327-1.233h-2.181v2.465Zm-2.181,4.93H100.1V30.5h3.7c1.517,0,3.034.474,3.034,2.655a2.3,2.3,0,0,1-1.8,2.56l2.181,3.7h-1.9L103.324,35.9h-1.612v3.508Z" transform="translate(-5.196 -1.583)"/><path class="a" d="M112.62,39.412h-1.612v-3.7L107.5,30.5h1.9l1.707,2.655.664,1.138.758-1.138,1.707-2.655h1.8l-3.413,5.215Z" transform="translate(-5.58 -1.583)"/><path class="a" d="M122.892,38.074c1.233,0,1.707-.474,1.9-1.517l1.612.19c-.19,1.707-1.233,2.844-3.508,2.844-2.749,0-3.792-1.8-3.792-4.646,0-2.749,1.043-4.646,3.792-4.646,2.275,0,3.318,1.138,3.508,2.844l-1.612.19c-.19-1.043-.664-1.517-1.9-1.517-1.8,0-2.181,1.422-2.181,3.129s.284,3.129,2.181,3.129Z" transform="translate(-6.182 -1.573)"/><path class="a" d="M134.552,30.5v1.517h-4.74V34.1h4.172V35.62h-4.172V37.9h4.93v1.517H128.2V30.5Z" transform="translate(-6.655 -1.583)"/><path class="a" d="M139.165,34.861l-.853-1.422v5.973H136.7V30.5h1.517l3.034,4.646.853,1.327V30.5h1.612v8.912h-1.422Z" transform="translate(-7.096 -1.583)"/><path class="a" d="M149.472,39.412H147.86v-7.4H145.3V30.5h6.731v1.517h-2.56Z" transform="translate(-7.542 -1.583)"/><path class="a" d="M159.952,30.5v1.517h-4.74V34.1h4.172V35.62h-4.172V37.9h4.93v1.517H153.6V30.5Z" transform="translate(-7.973 -1.583)"/><path class="a" d="M165.892,34.482c.569,0,1.327-.095,1.327-1.233s-.758-1.233-1.327-1.233h-2.181v2.465Zm-2.181,4.93H162.1V30.5h3.7c1.517,0,3.034.474,3.034,2.655a2.3,2.3,0,0,1-1.8,2.56l2.181,3.7h-1.9L165.324,35.9h-1.612v3.508Z" transform="translate(-8.414 -1.583)"/><path class="a" d="M174.812,34.946c0,1.707.474,3.129,2.37,3.129s2.37-1.422,2.37-3.129-.474-3.129-2.37-3.129-2.37,1.422-2.37,3.129Zm-1.612,0c0-2.844,1.138-4.646,3.982-4.646s3.982,1.8,3.982,4.646-1.138,4.646-3.982,4.646c-2.749,0-3.982-1.8-3.982-4.646Z" transform="translate(-8.99 -1.573)"/><path class="a" d="M184.812,39.412H183.2V30.5h6.068v1.517h-4.456V34.1h3.982V35.62h-3.982Z" transform="translate(-9.51 -1.583)"/><path class="a" d="M197.392,37.9c.569,0,1.327-.095,1.327-1.138s-.664-1.138-1.233-1.138h-2.275v2.37h2.181Zm-2.181-5.878V34.1H197.3c.664,0,1.138-.19,1.138-1.043s-.379-1.043-1.138-1.043Zm-1.612,7.4V30.5h3.792c1.138,0,2.655.379,2.655,2.465a1.957,1.957,0,0,1-.853,1.8,2.055,2.055,0,0,1,1.138,2.086c0,2.181-1.327,2.56-2.844,2.56H193.6Z" transform="translate(-10.049 -1.583)"/><path class="a" d="M202.1,36.194V30.6h1.612v5.594c0,1.043.379,1.9,1.991,1.9,1.707,0,1.991-.853,1.991-1.9V30.6h1.612v5.594c0,1.9-.853,3.413-3.6,3.413s-3.6-1.517-3.6-3.413Z" transform="translate(-10.491 -1.588)"/><path class="a" d="M211.2,36.847l1.612-.19c.095,1.043.758,1.422,1.991,1.422.853,0,1.9-.379,1.9-1.327,0-.758-.474-1.138-1.9-1.233-1.612-.095-3.224-.569-3.224-2.465S213.1,30.4,214.8,30.4c2.37,0,3.413,1.043,3.508,2.749l-1.612.19c-.095-1.043-.758-1.422-1.9-1.422-.569,0-1.612.19-1.612,1.233,0,.569.379.853,1.707,1.043,2.181.19,3.413.569,3.413,2.655,0,1.991-1.707,2.844-3.508,2.844-2.465-.095-3.413-1.043-3.6-2.844Z" transform="translate(-10.963 -1.578)"/><path class="a" d="M221.912,39.412H220.3V30.5h1.612Z" transform="translate(-11.435 -1.583)"/><path class="a" d="M226.465,34.861l-.853-1.422v5.973H224V30.5h1.517l3.034,4.646.853,1.327V30.5h1.612v8.912H229.5Z" transform="translate(-11.627 -1.583)"/><path class="a" d="M239.552,30.5v1.517h-4.74V34.1h4.172V35.62h-4.172V37.9h4.93v1.517H233.2V30.5Z" transform="translate(-12.105 -1.583)"/><path class="a" d="M241.4,36.847l1.612-.19c.095,1.043.758,1.422,1.991,1.422.853,0,1.9-.379,1.9-1.327,0-.758-.474-1.138-1.9-1.233-1.612-.095-3.224-.569-3.224-2.465S243.3,30.4,245,30.4c2.37,0,3.413,1.043,3.508,2.749l-1.612.19c-.095-1.043-.758-1.422-1.9-1.422-.569,0-1.612.19-1.612,1.233,0,.569.379.853,1.707,1.043,2.181.19,3.413.569,3.413,2.655,0,1.991-1.707,2.844-3.508,2.844-2.37-.095-3.413-1.043-3.6-2.844Z" transform="translate(-12.531 -1.578)"/><path class="a" d="M250.1,36.847l1.612-.19c.095,1.043.758,1.422,1.991,1.422.853,0,1.9-.379,1.9-1.327,0-.758-.474-1.138-1.9-1.233-1.612-.095-3.224-.569-3.224-2.465S252,30.4,253.7,30.4c2.37,0,3.413,1.043,3.508,2.749l-1.612.19c-.095-1.043-.758-1.422-1.9-1.422-.569,0-1.612.19-1.612,1.233,0,.569.379.853,1.707,1.043,2.181.19,3.413.569,3.413,2.655,0,1.991-1.707,2.844-3.508,2.844-2.465-.095-3.413-1.043-3.6-2.844Z" transform="translate(-12.982 -1.578)"/><path class="a" d="M41.978,20.346c1.9,0,2.655-.664,2.939-2.37l2.465.284c-.284,2.655-1.9,4.361-5.4,4.361-4.266,0-5.878-2.844-5.878-7.111S37.712,8.4,41.978,8.4c3.508,0,5.12,1.707,5.4,4.361l-2.465.284c-.284-1.612-1.043-2.37-2.939-2.37-2.844,0-3.413,2.275-3.413,4.835s.569,4.835,3.413,4.835Z" transform="translate(-1.874 -0.436)"/><path class="a" d="M52.165,17.93c0,1.9.853,2.655,2.086,2.655,1.327,0,2.086-.758,2.086-2.655s-.853-2.655-2.086-2.655-2.086.664-2.086,2.655Zm-2.465,0c0-3.224,1.8-4.93,4.551-4.93C57.1,13,58.8,14.707,58.8,17.93s-1.8,4.93-4.551,4.93S49.7,21.154,49.7,17.93Z" transform="translate(-2.58 -0.675)"/><path class="a" d="M61.3,8.2h2.37V22.327H61.3Z" transform="translate(-3.182 -0.426)"/><path class="a" d="M72.642,21.643A3.784,3.784,0,0,1,69.8,22.876c-2.181,0-3.7-1.138-3.7-3.318V13.3h2.37v5.878c0,.948.664,1.422,1.612,1.422a2.592,2.592,0,0,0,2.37-1.612V13.3h2.37v6.826l.19,2.56H72.831l-.19-1.043Z" transform="translate(-3.431 -0.69)"/><path class="a" d="M80.475,14.233A3.145,3.145,0,0,1,82.94,13,2.759,2.759,0,0,1,85.6,14.327,3.745,3.745,0,0,1,88.534,13a3.1,3.1,0,0,1,3.413,3.413v6.163h-2.37V16.6c0-.948-.569-1.327-1.422-1.327a1.928,1.928,0,0,0-1.8,1.612v5.689h-2.37V16.6c0-.948-.569-1.327-1.422-1.327a1.928,1.928,0,0,0-1.8,1.612v5.689H78.39V15.749l-.19-2.56h2.181l.095,1.043Z" transform="translate(-4.059 -0.675)"/><path class="a" d="M99.646,15.026a2.224,2.224,0,0,0-2.275,1.612v2.181a2.329,2.329,0,0,0,2.275,1.612c1.233,0,2.181-.853,2.181-2.655,0-1.9-.948-2.749-2.181-2.749Zm-2.181-1.233a3.977,3.977,0,0,1,2.655-1.043c2.749,0,4.266,1.707,4.266,4.93,0,3.129-1.517,4.93-4.266,4.93a3.593,3.593,0,0,1-2.749-1.233l-.19,1.043H95l.19-2.56V8.2h2.37v5.594Z" transform="translate(-4.931 -0.426)"/><path class="a" d="M106.79,13.072h2.37v9.386h-2.37V13.072Zm2.465-1.612H106.6V8.9h2.655v2.56Z" transform="translate(-5.533 -0.462)"/><path class="a" d="M115,20.785a2.394,2.394,0,0,0,2.56-1.707V18.32l-2.465.379c-.948.19-1.327.474-1.327,1.043,0,.664.474,1.043,1.233,1.043Zm-.284-3.792,2.844-.379v-.19c0-.853-.569-1.233-1.8-1.233s-1.612.474-1.8,1.233l-2.465-.284c.284-1.707,1.138-2.939,4.172-2.939,2.655,0,4.266,1.138,4.266,3.508v3.508l.19,2.56h-2.181l-.19-.948a3.868,3.868,0,0,1-3.034,1.233c-2.465,0-3.413-1.233-3.413-2.939-.095-2.275,1.233-2.844,3.413-3.129Z" transform="translate(-5.777 -0.685)"/><path class="a" d="M132.978,20.072c.853,0,2.086-.095,2.086-1.8,0-1.612-1.043-1.8-1.991-1.8H129.66v3.6Zm-3.413-9.2v3.318h3.224c1.043,0,1.707-.284,1.707-1.707,0-1.327-.664-1.612-1.707-1.612ZM127.1,22.347V8.6h5.878c1.707,0,4.077.664,4.077,3.792a3.286,3.286,0,0,1-1.233,2.749,3.256,3.256,0,0,1,1.707,3.224c0,3.318-2.086,3.982-4.456,3.982Z" transform="translate(-6.598 -0.446)"/><path class="a" d="M146.342,21.643a3.784,3.784,0,0,1-2.844,1.233c-2.181,0-3.7-1.138-3.7-3.318V13.3h2.37v5.878c0,.948.664,1.422,1.612,1.422a2.592,2.592,0,0,0,2.37-1.612V13.3h2.37v6.826l.19,2.56h-2.181l-.19-1.043Z" transform="translate(-7.257 -0.69)"/><path class="a" d="M156.763,19.731c0-.758-.758-.758-2.086-.853-1.8-.19-3.792-.379-3.792-2.749S153.065,13,154.961,13c2.655,0,3.887.948,4.172,2.939l-2.465.284c-.095-.758-.569-1.233-1.707-1.233-.758,0-1.517.19-1.517.948,0,.664.758.664,1.9.758,1.9.19,3.887.284,3.887,2.844,0,2.37-2.275,3.129-4.361,3.129-2.844,0-4.077-1.138-4.266-3.034l2.465-.284c.095.853.664,1.327,1.8,1.327,1.043.095,1.991-.19,1.9-.948Z" transform="translate(-7.817 -0.675)"/><path class="a" d="M161.89,13.072h2.37v9.386h-2.37V13.072Zm2.465-1.612H161.7V8.9h2.655v2.56Z" transform="translate(-8.394 -0.462)"/><path class="a" d="M169.27,14.233A3.784,3.784,0,0,1,172.114,13c2.181,0,3.7,1.138,3.7,3.318v6.257h-2.37V16.7c0-.948-.664-1.422-1.612-1.422a2.592,2.592,0,0,0-2.37,1.612v5.689h-2.37V15.749l-.19-2.56h2.181l.19,1.043Z" transform="translate(-8.663 -0.675)"/><path class="a" d="M180.465,16.982h3.887c-.095-1.233-.664-1.9-1.9-1.9a1.813,1.813,0,0,0-1.991,1.9Zm0,1.9a1.92,1.92,0,0,0,2.181,1.9c1.233,0,1.707-.474,1.9-1.138l2.465.284c-.284,1.612-1.327,2.939-4.266,2.939S178,21.154,178,17.93,179.707,13,182.646,13s4.456,1.707,4.456,4.93v.948Z" transform="translate(-9.24 -0.675)"/><path class="a" d="M194.763,19.731c0-.758-.758-.758-2.086-.853-1.8-.19-3.792-.379-3.792-2.749S191.065,13,192.961,13c2.655,0,3.887.948,4.172,2.939l-2.465.284c-.095-.758-.569-1.233-1.707-1.233-.758,0-1.517.19-1.517.948,0,.664.758.664,1.9.758,1.9.19,3.887.284,3.887,2.844,0,2.37-2.275,3.129-4.361,3.129-2.844,0-4.077-1.138-4.266-3.034l2.465-.284a1.563,1.563,0,0,0,1.8,1.327c1.138.095,1.991-.19,1.9-.948Z" transform="translate(-9.79 -0.675)"/><path class="a" d="M204.963,19.731c0-.758-.758-.758-2.086-.853-1.8-.19-3.792-.379-3.792-2.749S201.265,13,203.161,13c2.655,0,3.887.948,4.172,2.939l-2.465.284c-.095-.758-.569-1.233-1.707-1.233-.758,0-1.517.19-1.517.948,0,.664.758.664,1.9.758,1.9.19,3.887.284,3.887,2.844,0,2.37-2.275,3.129-4.361,3.129-2.844,0-4.077-1.138-4.266-3.034l2.465-.284c.095.853.664,1.327,1.8,1.327,1.043.095,1.9-.19,1.9-.948Z" transform="translate(-10.319 -0.675)"/><path class="a" d="M213.9,18.35l2.465-.284c.19,1.612,1.138,2.181,3.034,2.181,1.422,0,2.939-.569,2.939-2.086,0-1.233-.758-1.707-3.034-1.9-2.56-.19-5.025-.853-5.025-3.792,0-2.844,2.275-4.172,4.93-4.172,3.6,0,5.215,1.612,5.5,4.172l-2.465.284c-.19-1.612-1.138-2.181-2.939-2.181-.948,0-2.465.379-2.465,1.9,0,.948.569,1.327,2.655,1.612,3.413.284,5.309.948,5.309,4.172,0,3.034-2.655,4.361-5.4,4.361-3.7,0-5.215-1.517-5.5-4.266Z" transform="translate(-11.103 -0.431)"/><path class="a" d="M231.556,20.58c1.327,0,1.707-.474,1.9-1.327l2.465.284c-.19,1.8-1.138,3.224-4.266,3.224-2.844,0-4.551-1.707-4.551-4.93,0-3.129,1.707-4.93,4.551-4.93,3.129,0,4.077,1.422,4.266,3.224l-2.465.284c-.19-.853-.569-1.327-1.9-1.327s-2.086.853-2.086,2.655c0,1.991.758,2.844,2.086,2.844Z" transform="translate(-11.788 -0.67)"/><path class="a" d="M237.8,8.2h2.37v5.594a3.8,3.8,0,0,1,2.655-1.138c2.181,0,3.7,1.138,3.7,3.318v6.257h-2.37V16.354c0-.948-.664-1.422-1.612-1.422a2.592,2.592,0,0,0-2.37,1.612v5.689H237.8V8.2Z" transform="translate(-12.344 -0.426)"/><path class="a" d="M250.765,17.93c0,1.9.853,2.655,2.086,2.655,1.327,0,2.086-.758,2.086-2.655s-.853-2.655-2.086-2.655-2.086.664-2.086,2.655Zm-2.465,0c0-3.224,1.8-4.93,4.551-4.93,2.844,0,4.551,1.707,4.551,4.93s-1.8,4.93-4.551,4.93-4.551-1.707-4.551-4.93Z" transform="translate(-12.889 -0.675)"/><path class="a" d="M261.765,17.93c0,1.9.853,2.655,2.086,2.655,1.327,0,2.086-.758,2.086-2.655s-.853-2.655-2.086-2.655-2.086.664-2.086,2.655Zm-2.465,0c0-3.224,1.8-4.93,4.551-4.93,2.844,0,4.551,1.707,4.551,4.93s-1.8,4.93-4.551,4.93-4.551-1.707-4.551-4.93Z" transform="translate(-13.46 -0.675)"/><path class="a" d="M270.5,8.2h2.465V22.327H270.5Z" transform="translate(-14.041 -0.426)"/><path class="a" d="M5.594,13.937l8.343-8.343v8.343Zm22.185,2.275,2.275-2.275H16.212V0L0,16.212H13.937v2.275H6.826l-2.37,2.37h9.386v2.275H11.377L9.1,25.409h4.74v4.646l2.275-2.275V25.5h2.275l2.275-2.275H16.023v-2.37h6.921l2.275-2.275H15.928V16.307H27.779Z"/><path class="a" d="M36.584,64.144H36.3V48.5h.284Z" transform="translate(-1.884 -2.518)"/><path class="a" d="M262.651,33.629l-.474-1.422-.095-.379v1.8h-.853V30.5h1.138l.569,1.612.095.474.095-.474.569-1.612h1.138v3.129h-.853v-1.8l-.095.379-.474,1.422Zm-2.749,0h-.853V31.353H258.1v-.758h2.655v.758h-.948v2.275Z" transform="translate(-13.397 -1.583)"/><path class="a" d="M50.563,52v.474H44.874v3.792h5.215v.474H44.874v4.077h5.878v.474H44.4V52Z" transform="translate(-2.305 -2.699)"/><path class="a" d="M56.018,56.456l-.758-1.233L53.079,52h.569l1.9,2.939.758,1.043.758-1.043L59.052,52h.569L57.44,55.224l-.853,1.233.853,1.233,2.465,3.6h-.569l-2.181-3.224L56.3,56.835l-.853,1.233-2.086,3.224H52.7l2.465-3.6Z" transform="translate(-2.736 -2.699)"/><path class="a" d="M68.363,52v.474H62.674v3.792h5.215v.474H62.674v4.077h5.973v.474H62.2V52Z" transform="translate(-3.229 -2.699)"/><path class="a" d="M74.682,51.9c2.275,0,3.224,1.043,3.508,2.465h-.569c-.19-1.327-1.138-2.086-2.939-2.086-2.37,0-3.413,1.612-3.413,4.361,0,2.655,1.043,4.266,3.413,4.361,1.8,0,2.749-.758,2.939-2.086l.474.095c-.284,1.422-1.233,2.465-3.508,2.465-2.749,0-3.887-1.8-3.887-4.74.095-3.034,1.233-4.835,3.982-4.835Z" transform="translate(-3.67 -2.694)"/><path class="a" d="M80.3,58.163V52h.474v6.257c0,1.612.758,2.655,3.129,2.655,2.465,0,3.129-1.043,3.129-2.655V52H87.6v6.163c0,1.9-.948,3.224-3.6,3.224-2.749,0-3.7-1.233-3.7-3.224Z" transform="translate(-4.168 -2.699)"/><path class="a" d="M93.1,61.291h-.474V52.474H89.5V52h6.731v.474H93.1Z" transform="translate(-4.646 -2.699)"/><path class="a" d="M99.074,61.291H98.6V52h.474Z" transform="translate(-5.118 -2.699)"/><path class="a" d="M104.892,60.817l.948-2.749L108.116,52h.569l-3.6,9.386h-.474L101.1,52h.474l2.275,6.068Z" transform="translate(-5.248 -2.699)"/><path class="a" d="M116.963,52v.474h-5.689v3.792h5.215v.474h-5.215v4.077h5.973v.474H110.8V52Z" transform="translate(-5.751 -2.699)"/><path class="a" d="M128.963,52v.474h-5.689v3.792h5.215v.474h-5.215v4.077h5.878v.474H122.8V52Z" transform="translate(-6.374 -2.699)"/><path class="a" d="M134.924,60.817c2.465,0,3.508-1.043,3.508-4.172,0-3.224-1.043-4.172-3.508-4.172h-2.655v8.438h2.655Zm-.19.474H131.7V52h3.034c2.655,0,4.172,1.043,4.172,4.646s-1.422,4.646-4.172,4.646Z" transform="translate(-6.836 -2.699)"/><path class="a" d="M141.3,58.163V52h.474v6.257c0,1.612.758,2.655,3.129,2.655,2.465,0,3.129-1.043,3.129-2.655V52h.474v6.163c0,1.9-.948,3.224-3.6,3.224s-3.6-1.233-3.6-3.224Z" transform="translate(-7.335 -2.699)"/><path class="a" d="M154.787,51.9c2.275,0,3.223,1.043,3.413,2.465l-.474.095c-.19-1.327-1.138-2.086-2.939-2.086-2.37,0-3.413,1.612-3.413,4.361,0,2.655,1.043,4.266,3.413,4.361,1.8,0,2.749-.758,2.939-2.086l.474.095c-.284,1.422-1.233,2.465-3.413,2.465-2.749,0-3.887-1.8-3.887-4.74,0-3.129,1.138-4.93,3.887-4.93Z" transform="translate(-7.833 -2.694)"/><path class="a" d="M162.444,55.218l-.948,2.465h3.887l-.948-2.465-1.043-2.749-.948,2.749Zm3.129,2.939h-4.266l-1.138,3.129H159.6l3.508-9.386h.474l3.6,9.386h-.569l-1.043-3.129Z" transform="translate(-8.285 -2.694)"/><path class="a" d="M171.1,61.291h-.474V52.474H167.4V52h6.826v.474H171.1Z" transform="translate(-8.689 -2.699)"/><path class="a" d="M176.974,61.291H176.5V52h.474Z" transform="translate(-9.162 -2.699)"/><path class="a" d="M179.874,56.64c0,2.37.853,4.361,3.413,4.361s3.413-1.9,3.413-4.361-.853-4.361-3.413-4.361-3.413,1.9-3.413,4.361Zm-.474,0c0-2.749,1.043-4.74,3.887-4.74s3.887,1.991,3.887,4.74-1.043,4.74-3.887,4.74S179.4,59.39,179.4,56.64Z" transform="translate(-9.312 -2.694)"/><path class="a" d="M191.6,54.844l-1.422-2.275v8.722H189.8V52h.569l4.172,6.447,1.422,2.275V52h.474v9.291h-.569Z" transform="translate(-9.852 -2.699)"/></svg>