<svg xmlns="http://www.w3.org/2000/svg" width="328.537" height="40.093" viewBox="0 0 328.537 40.093"><path d="M247.308,201.971c0-.112-.09-.157-.313-.157-.582,0-1.522.045-1.656.045-.112,0-1.253-.045-2.126-.045-.224,0-.314.045-.314.157a.168.168,0,0,0,.157.157,6.4,6.4,0,0,1,.671.045c.649.09.761.448.783,1.052s.044,1.141.044,4.095v2.394c0,1.947-.2,3.513-1.119,4.61a4.041,4.041,0,0,1-3.043,1.342,3.835,3.835,0,0,1-2.931-1.029c-.85-.761-1.454-1.9-1.454-4.654V207.32c0-2.954,0-3.491.045-4.095.045-.627.157-.962.671-1.052a2.312,2.312,0,0,1,.492-.045.192.192,0,0,0,.179-.157c0-.112-.112-.157-.336-.157-.582,0-1.813.045-1.991.045s-1.365-.045-2.26-.045c-.224,0-.313.045-.313.157a.19.19,0,0,0,.156.157,6.4,6.4,0,0,1,.672.045c.649.09.761.448.806,1.052s.045,1.141.045,4.095v2.8c0,2.775.761,4.095,1.723,4.99a6.145,6.145,0,0,0,4.1,1.342,5.957,5.957,0,0,0,4.117-1.388c1.567-1.342,1.835-3.647,1.835-5.705V207.32c0-2.954-.022-3.491.022-4.095.045-.627.157-.94.694-1.052a2.307,2.307,0,0,1,.492-.045A.168.168,0,0,0,247.308,201.971Zm210.684,13,.044-11.144c0-1.141.045-1.521.694-1.656a2.236,2.236,0,0,1,.47-.045.223.223,0,0,0,.224-.179c0-.112-.157-.134-.359-.134-.805,0-1.454.045-1.678.045s-1.164-.045-2.059-.045c-.224,0-.381.022-.381.134,0,.067.022.179.157.179a6.284,6.284,0,0,1,.962.09c.6.112.716.537.738,1.768l.2,9.533c-.6-.627-2.707-2.887-4.655-4.9-3.043-3.133-5.907-6.176-6.221-6.489-.2-.2-.537-.582-.76-.582-.157,0-.268.2-.268.962v10.9c0,1.723-.067,2.238-.559,2.372a3.1,3.1,0,0,1-.806.112.152.152,0,0,0-.156.157c0,.134.112.156.313.156.9,0,1.723-.067,1.9-.067s.962.067,2.081.067c.224,0,.358-.044.358-.156a.153.153,0,0,0-.157-.157,4.67,4.67,0,0,1-.984-.112c-.537-.134-.717-.6-.761-2.171l-.224-8.973c.6.672,2.82,3,5.1,5.393,2.081,2.17,4.923,4.968,5.125,5.146,1.1,1.007,1.3,1.164,1.5,1.164C457.969,216.337,457.992,216.225,457.992,214.972Zm-17.252.917a7.838,7.838,0,0,1-.894-.09c-.583-.09-.649-.447-.716-1.007-.09-.783-.09-2.282-.09-4.117V207.32c0-2.954,0-3.491.023-4.095.045-.672.157-.94.694-1.052a2.205,2.205,0,0,1,.492-.045.191.191,0,0,0,.156-.157c0-.112-.09-.157-.314-.157-.6,0-1.88.045-1.968.045-.112,0-1.343-.045-1.992-.045-.224,0-.313.045-.313.157a.168.168,0,0,0,.156.157,3.494,3.494,0,0,1,.6.067c.426.089.582.381.627,1.029.046.6.046,1.141.046,4.095v3.357c0,1.835-.023,3.334-.112,4.117-.067.56-.134.917-.515,1.007a2.776,2.776,0,0,1-.6.09.152.152,0,0,0-.157.157c0,.112.112.156.314.156.6,0,1.835-.067,1.947-.067.089,0,1.365.067,2.461.067.223,0,.313-.067.313-.156A.152.152,0,0,0,440.74,215.89Zm-216.545.246c.582,0,1.253.022,2.148.044.917.044,2.014.068,3.423.068,1.052,0,1.119-.068,1.253-.515a12.03,12.03,0,0,0,.291-1.9c0-.2-.045-.291-.134-.291-.112,0-.179.112-.2.246a2.328,2.328,0,0,1-.47,1.074c-.47.56-1.343.582-2.372.582-1.544,0-2.3-.134-2.618-.447-.358-.336-.4-1.477-.4-4.274v-3.4c0-2.954,0-3.491.022-4.095.045-.672.157-.962.738-1.074.224-.022.515-.045.649-.045.067,0,.157-.067.157-.134,0-.112-.112-.157-.313-.157-.6,0-2.081.045-2.17.045-.112,0-1.343-.045-2.238-.045-.224,0-.313.045-.313.157a.191.191,0,0,0,.157.157,6.391,6.391,0,0,1,.671.045c.649.09.761.4.806,1.052.045.6.045,1.141.045,4.095v3.357a38.93,38.93,0,0,1-.112,4.117c-.09.56-.135.917-.515,1.007a2.778,2.778,0,0,1-.6.09.152.152,0,0,0-.156.157c0,.112.112.156.313.156.313,0,.738-.022,1.141-.044C223.769,216.136,224.1,216.136,224.195,216.136Zm123.946.2c.134,0,.156-.112.156-1.365l.045-11.144c0-1.141.045-1.521.693-1.656a2.246,2.246,0,0,1,.471-.045.222.222,0,0,0,.223-.179c0-.112-.156-.134-.358-.134-.805,0-1.455.045-1.678.045s-1.164-.045-2.059-.045c-.224,0-.381.022-.381.134a.156.156,0,0,0,.157.179,6.285,6.285,0,0,1,.962.09c.6.112.716.537.739,1.768l.2,9.533c-.6-.627-2.708-2.887-4.655-4.9-3.043-3.133-5.907-6.176-6.221-6.489-.2-.2-.537-.582-.76-.582-.157,0-.269.2-.269.962v10.9c0,1.723-.067,2.238-.559,2.372a3.093,3.093,0,0,1-.805.112.153.153,0,0,0-.156.157c0,.134.111.156.313.156.9,0,1.723-.067,1.9-.067s.962.067,2.081.067c.223,0,.358-.044.358-.156a.153.153,0,0,0-.156-.157,4.669,4.669,0,0,1-.985-.112c-.538-.134-.716-.6-.761-2.171l-.223-8.973c.6.672,2.819,3,5.1,5.393,2.081,2.17,4.923,4.968,5.125,5.146C347.738,216.181,347.939,216.337,348.141,216.337Zm-17.787-.649a21.827,21.827,0,0,0,.291-2.17c0-.157,0-.336-.134-.336-.112,0-.157.09-.2.336-.156.918-.425,1.365-1.007,1.611a6.417,6.417,0,0,1-2.148.246c-2.193,0-2.528-.291-2.6-1.835-.022-.47,0-3.066,0-3.827v-1.969a.141.141,0,0,1,.156-.157c.38,0,2.6.045,3.2.112.873.09,1.073.47,1.163.783a2.287,2.287,0,0,1,.089.739c0,.111.045.2.156.2.157,0,.157-.246.157-.425,0-.156.045-.985.09-1.432.067-.739.179-1.119.179-1.253s-.045-.179-.112-.179c-.09,0-.179.112-.336.291-.2.224-.514.269-1.051.314-.515.045-3.267.045-3.558.045-.112,0-.134-.068-.134-.224v-6.176c0-.157.045-.224.134-.224.247,0,2.685.022,3.066.067,1.208.135,1.431.4,1.588.761a2.4,2.4,0,0,1,.134.806c0,.179.045.291.179.291.09,0,.134-.134.157-.246.044-.269.089-1.254.111-1.477.067-.627.179-.9.179-1.052,0-.112-.022-.2-.09-.2-.112,0-.2.09-.313.112a6.013,6.013,0,0,1-.962.112c-.515.022-4.968.022-5.124.022l-.917-.045c-.493-.022-1.1-.022-1.611-.022-.246,0-.359.045-.359.18,0,.089.09.134.179.134a4.172,4.172,0,0,1,.761.067c.738.156.917.515.962,1.275.044.716.044,1.342.044,4.833v3.938c0,2.149,0,3.916-.112,4.856-.089.649-.2,1.141-.648,1.231a3.405,3.405,0,0,1-.672.09c-.134,0-.179.067-.179.134,0,.134.111.179.358.179.335,0,.85-.044,1.3-.044.47-.022.851-.022.9-.022.335,0,.872.022,1.745.067.873.022,2.1.067,3.782.067C330.018,216.27,330.2,216.27,330.354,215.688Zm-18.211,4.778h.43v-25.62h-.43Zm104.95-6.837c-.112,0-.157.067-.2.291a1.444,1.444,0,0,1-.895,1.321,6.568,6.568,0,0,1-1.969.2c-1.947,0-2.305-.246-2.349-1.522-.023-.38,0-2.6,0-3.244v-1.589a.117.117,0,0,1,.134-.134c.336,0,2.439.022,2.977.089.761.09.939.314,1.006.582a1.685,1.685,0,0,1,.09.627c0,.111.045.179.134.179.135,0,.179-.2.179-.358,0-.134.045-.85.09-1.23a10.283,10.283,0,0,1,.157-1.052c0-.112-.045-.157-.112-.157s-.157.112-.291.246c-.2.2-.492.224-.962.269-.447.045-3.043.045-3.29.045-.111,0-.111-.068-.111-.2v-5.169c0-.134.022-.2.111-.2.224,0,2.506.022,2.842.067,1.074.134,1.275.269,1.41.582a2.1,2.1,0,0,1,.112.671c0,.157.044.246.156.246.089,0,.156-.112.179-.2.044-.223.089-1.074.111-1.253.045-.537.157-.761.157-.9,0-.09-.023-.179-.09-.179a1.274,1.274,0,0,0-.268.089c-.157.022-.515.09-.895.112-.447.022-4.565,0-4.7,0-.111,0-1.387-.045-2.282-.045-.224,0-.313.045-.313.157a.19.19,0,0,0,.156.157,6.4,6.4,0,0,1,.672.045c.648.09.76.4.805,1.052.045.6.045,1.141.045,4.095v3.357a38.814,38.814,0,0,1-.112,4.117c-.09.56-.134.94-.514,1.007a5.635,5.635,0,0,1-.6.09.152.152,0,0,0-.157.157c0,.112.112.156.313.156.314,0,.761-.022,1.141-.044.425-.022.805-.022.85-.022.291,0,.806,0,1.634.044.805.022,1.947.068,3.424.068.76,0,.962,0,1.1-.492a15.719,15.719,0,0,0,.268-1.835C417.227,213.786,417.205,213.629,417.093,213.629ZM268,216.2c.224,0,.4-.067.4-.179,0-.09-.067-.134-.157-.134a4.148,4.148,0,0,1-1.276-.179c-.805-.268-.94-1.3-1.007-1.969l-1.343-11.68c-.045-.358-.156-.515-.291-.515s-.224.134-.313.313l-5.728,11.793-5.952-11.815a.448.448,0,0,0-.4-.291c-.112,0-.2.134-.224.335L250.281,214.3c-.09.716-.112,1.409-.761,1.521a3.814,3.814,0,0,1-.582.067c-.112,0-.2.067-.2.134,0,.134.134.179.336.179.537,0,1.477-.067,1.656-.067.156,0,1.1.067,1.835.067.224,0,.358-.044.358-.179,0-.068-.089-.134-.157-.134a3.194,3.194,0,0,1-.761-.112.532.532,0,0,1-.47-.537c0-.314,0-.671.023-.963l.761-8.593h.09c.336.783,1.924,3.984,2.506,5.191.492,1.03,1.79,3.469,2.3,4.408.38.694.492.873.671.873s.291-.179.693-1.007l4.744-9.711h.045l.94,9.621c.045.359.023.649-.09.672a.163.163,0,0,0-.134.156c0,.09.089.157.559.2C265.363,216.159,267.556,216.2,268,216.2Zm195.937-1.79a11.109,11.109,0,0,0,10.673,1.186c.246-.135.269-.157.269-1.03v-2.126c0-.806,0-1.365.022-1.969.045-.671.2-.962.738-1.052a2.206,2.206,0,0,1,.492-.045.19.19,0,0,0,.157-.157c0-.134-.09-.157-.313-.157-.6,0-1.835.045-1.924.045-.112,0-1.432-.045-2.328-.045-.223,0-.313.023-.313.157a.19.19,0,0,0,.157.157,6.292,6.292,0,0,1,.671.045c.805.156.851.38.851,1.925v3.289c0,.358-.157.448-.4.582a4.947,4.947,0,0,1-2.126.357,7.032,7.032,0,0,1-5.035-1.991,7.572,7.572,0,0,1-2.081-5.258,5.921,5.921,0,0,1,1.947-4.789,6.25,6.25,0,0,1,4.117-1.23c2.551,0,4.049.76,4.543,1.477a2.832,2.832,0,0,1,.448,1.253c0,.179.022.291.134.291.134,0,.223-.09.223-.4,0-1.9.112-2.417.112-2.685,0-.09-.045-.179-.246-.179a8.505,8.505,0,0,1-1.588-.2,16.44,16.44,0,0,0-3.021-.313,9.9,9.9,0,0,0-5.236,1.208A7.116,7.116,0,0,0,461.59,209,7.281,7.281,0,0,0,463.94,214.413ZM283.683,202.128a3.509,3.509,0,0,1,.6.067c.425.089.582.381.627,1.029.044.6.044,1.141.044,4.095v3.357c0,1.835-.022,3.334-.112,4.117-.067.56-.134.917-.514,1.007a2.781,2.781,0,0,1-.6.09.152.152,0,0,0-.157.157c0,.112.112.156.314.156.6,0,1.835-.067,1.947-.067.089,0,1.365.067,2.461.067.224,0,.314-.067.314-.156a.152.152,0,0,0-.157-.157,7.856,7.856,0,0,1-.895-.09c-.582-.09-.649-.447-.716-1.007-.089-.783-.089-2.282-.089-4.117V207.32c0-2.954,0-3.491.022-4.095.045-.672.157-.94.694-1.052a2.21,2.21,0,0,1,.492-.045.19.19,0,0,0,.157-.157c0-.112-.09-.157-.313-.157-.6,0-1.88.045-1.969.045-.112,0-1.343-.045-1.991-.045-.224,0-.314.045-.314.157A.168.168,0,0,0,283.683,202.128Zm21.346,13.919c0-.112-.134-.157-.246-.157a2.737,2.737,0,0,1-.783-.112c-.425-.134-.962-.38-1.678-2.081-1.208-2.887-4.363-10.74-4.721-11.547-.2-.425-.269-.694-.47-.694-.134,0-.224.112-.47.738l-4.632,11.9c-.38.962-.761,1.634-1.656,1.746a5.684,5.684,0,0,1-.581.044.173.173,0,0,0-.179.157c0,.112.134.156.381.156.805,0,1.79-.067,1.991-.067.224,0,1.3.067,1.768.067.179,0,.291-.044.291-.156,0-.09-.045-.157-.2-.157h-.178c-.336,0-.672-.134-.672-.515a3.935,3.935,0,0,1,.291-1.275l1.119-3.043a.207.207,0,0,1,.2-.156h4.542c.112,0,.134.022.179.111l1.768,4.364a.357.357,0,0,1-.179.515c-.09.045-.134.045-.134.134,0,.112.313.112.693.134,1.365.044,2.82.044,3.111.044C304.805,216.2,305.029,216.159,305.029,216.047Zm-6.176-5.93h-3.983c-.067,0-.09-.045-.067-.134l1.835-5.214q.168-.436.335,0l1.947,5.214C298.942,210.072,298.942,210.117,298.853,210.117Zm55.393,4.3A11.11,11.11,0,0,0,364.92,215.6c.247-.135.269-.157.269-1.03v-2.126c0-.806,0-1.365.022-1.969.045-.671.2-.962.738-1.052a2.207,2.207,0,0,1,.492-.045.19.19,0,0,0,.157-.157c0-.134-.09-.157-.313-.157-.6,0-1.835.045-1.925.045-.111,0-1.432-.045-2.327-.045-.223,0-.313.023-.313.157a.19.19,0,0,0,.156.157,6.311,6.311,0,0,1,.672.045c.806.156.851.38.851,1.925v3.289c0,.358-.157.448-.4.582a4.946,4.946,0,0,1-2.125.357,7.03,7.03,0,0,1-5.035-1.991,7.571,7.571,0,0,1-2.081-5.258,5.921,5.921,0,0,1,1.947-4.789,6.253,6.253,0,0,1,4.118-1.23c2.55,0,4.05.76,4.542,1.477a2.825,2.825,0,0,1,.448,1.253c0,.179.022.291.134.291.134,0,.224-.09.224-.4,0-1.9.111-2.417.111-2.685,0-.09-.044-.179-.246-.179a8.517,8.517,0,0,1-1.589-.2,16.432,16.432,0,0,0-3.02-.313,9.9,9.9,0,0,0-5.237,1.208A7.118,7.118,0,0,0,351.9,209,7.28,7.28,0,0,0,354.246,214.413Zm-73.515-2.395c0-2.148-1.969-3.513-3.468-3.961,1.007-.895,1.992-1.835,1.992-3.334,0-1.007-.851-2.909-4.14-2.909-.917,0-1.835.045-2.305.045-.112,0-1.387-.045-2.282-.045-.224,0-.313.045-.313.157,0,.067.089.112.156.112a6.318,6.318,0,0,1,.671.045c.649.09.761.448.806,1.1.045.6.045,1.141.045,4.095v3.357a38.909,38.909,0,0,1-.112,4.117c-.09.56-.134.985-.515,1.052a5.788,5.788,0,0,1-.6.089c-.112,0-.157.045-.157.112,0,.112.112.156.313.156.313,0,.783-.022,1.186-.044.4,0,.761-.022.805-.022.09,0,.649.022,1.276.044.627.044,1.343.068,1.7.068C279.143,216.248,280.732,214.144,280.732,212.019Zm-7.138-9.309c0-.112.067-.157.246-.2a5.816,5.816,0,0,1,1.007-.09,2.793,2.793,0,0,1,2.775,3.066,2.921,2.921,0,0,1-.761,2.037c-.4.447-.828.492-1.925.492a6.1,6.1,0,0,1-1.208-.089c-.089-.023-.134-.067-.134-.2Zm2.417,12.866a4.7,4.7,0,0,1-1.723-.268c-.6-.291-.6-.515-.671-1.432-.023-.291-.023-2.573-.023-4.05v-1.051c0-.089.045-.134.112-.134.313,0,1.3,0,1.544.045a3.743,3.743,0,0,1,3.647,3.961A2.6,2.6,0,0,1,276.01,215.576Zm105.934.314a4.672,4.672,0,0,1-.985-.112c-.537-.134-.716-.6-.761-2.171l-.224-8.973c.6.672,2.819,3,5.1,5.393,2.081,2.17,4.923,4.968,5.124,5.146,1.1,1.007,1.3,1.164,1.5,1.164.134,0,.157-.112.157-1.365l.045-11.144c0-1.141.044-1.521.693-1.656a2.245,2.245,0,0,1,.47-.045.223.223,0,0,0,.224-.179c0-.112-.156-.134-.358-.134-.806,0-1.454.045-1.679.045s-1.164-.045-2.059-.045c-.223,0-.38.022-.38.134a.156.156,0,0,0,.157.179,6.293,6.293,0,0,1,.962.09c.6.112.716.537.738,1.768l.2,9.533c-.6-.627-2.708-2.887-4.655-4.9-3.043-3.133-5.907-6.176-6.221-6.489-.2-.2-.537-.582-.761-.582-.156,0-.268.2-.268.962v10.9c0,1.723-.067,2.238-.56,2.372a3.091,3.091,0,0,1-.805.112.153.153,0,0,0-.157.157c0,.134.112.156.314.156.895,0,1.723-.067,1.9-.067s.962.067,2.081.067c.223,0,.358-.044.358-.156A.153.153,0,0,0,381.944,215.89Zm-7.5.313c.224,0,.314-.067.314-.156a.152.152,0,0,0-.157-.157,7.852,7.852,0,0,1-.895-.09c-.582-.09-.649-.447-.716-1.007-.089-.783-.089-2.282-.089-4.117V207.32c0-2.954,0-3.491.022-4.095.045-.672.156-.94.693-1.052a2.208,2.208,0,0,1,.492-.045.19.19,0,0,0,.157-.157c0-.112-.09-.157-.313-.157-.6,0-1.88.045-1.969.045-.112,0-1.343-.045-1.992-.045-.223,0-.313.045-.313.157a.168.168,0,0,0,.157.157,3.517,3.517,0,0,1,.6.067c.425.089.581.381.626,1.029.045.6.045,1.141.045,4.095v3.357c0,1.835-.022,3.334-.111,4.117-.067.56-.134.917-.515,1.007a2.781,2.781,0,0,1-.6.09.152.152,0,0,0-.156.157c0,.112.112.156.313.156.6,0,1.835-.067,1.947-.067C372.077,216.136,373.353,216.2,374.449,216.2Zm-155.242-7.518c0-4.431-3.356-7.138-7.787-7.138a7.533,7.533,0,0,0-7.809,7.429,7.3,7.3,0,0,0,7.7,7.474A7.621,7.621,0,0,0,219.207,208.685Zm-13.56-.224c0-4.14,2.372-6.2,5.662-6.2,3.11,0,5.885,2.395,5.885,6.96,0,5.5-3.558,6.444-5.326,6.444C208.31,215.666,205.647,212.891,205.647,208.461Zm198.984,7.295a15.729,15.729,0,0,0,.268-1.835c0-.134-.022-.291-.134-.291s-.157.067-.2.291a1.443,1.443,0,0,1-.9,1.321,6.567,6.567,0,0,1-1.969.2c-1.947,0-2.305-.246-2.349-1.522-.023-.38,0-2.6,0-3.244v-1.589a.117.117,0,0,1,.134-.134c.336,0,2.439.022,2.977.089.761.09.94.314,1.006.582a1.686,1.686,0,0,1,.09.627c0,.111.045.179.134.179.134,0,.178-.2.178-.358,0-.134.045-.85.09-1.23a10.341,10.341,0,0,1,.157-1.052c0-.112-.045-.157-.112-.157s-.156.112-.291.246c-.2.2-.492.224-.962.269-.448.045-3.043.045-3.29.045-.111,0-.111-.068-.111-.2v-5.169c0-.134.022-.2.111-.2.224,0,2.506.022,2.842.067,1.074.134,1.275.269,1.41.582a2.1,2.1,0,0,1,.112.671c0,.157.044.246.156.246.09,0,.157-.112.179-.2.045-.223.09-1.074.112-1.253.045-.537.156-.761.156-.9,0-.09-.022-.179-.09-.179a1.282,1.282,0,0,0-.268.089c-.157.022-.515.09-.895.112-.447.022-4.565,0-4.7,0-.111,0-1.387-.045-2.282-.045-.224,0-.313.045-.313.157a.19.19,0,0,0,.156.157,6.39,6.39,0,0,1,.672.045c.649.09.761.4.806,1.052.044.6.044,1.141.044,4.095v3.357a38.994,38.994,0,0,1-.111,4.117c-.09.56-.134.94-.515,1.007a5.62,5.62,0,0,1-.6.09.152.152,0,0,0-.157.157c0,.112.112.156.314.156.313,0,.76-.022,1.141-.044.425-.022.806-.022.85-.022.291,0,.806,0,1.634.044.806.022,1.947.068,3.424.068C404.3,216.248,404.5,216.248,404.631,215.756Zm-203.882-.4a23.234,23.234,0,0,0,.492-2.864c0-.179-.045-.336-.156-.336-.134,0-.179.09-.224.336a4.26,4.26,0,0,1-.828,1.879c-.9.917-2.215,1.119-3.894,1.119a8.081,8.081,0,0,1-8.078-8.19c0-2.283.38-4.274,2.014-5.84.783-.761,2.171-1.634,5.147-1.634A7.452,7.452,0,0,1,199.7,201.1a3.1,3.1,0,0,1,.94,2.282c0,.313.022.47.179.47.134,0,.179-.134.2-.47s.022-1.566.067-2.3c.045-.805.112-1.074.112-1.253,0-.134-.045-.223-.291-.246a19.534,19.534,0,0,1-2.283-.336,19.168,19.168,0,0,0-3.245-.268c-3.446,0-5.482,1.051-6.825,2.394a8.935,8.935,0,0,0-2.506,6.109,8.571,8.571,0,0,0,2.708,6.624c1.768,1.589,4.028,2.417,7.384,2.417a12.969,12.969,0,0,0,4.028-.515C200.571,215.823,200.615,215.778,200.75,215.353Zm228.2-2.327a10.06,10.06,0,0,0,2.685,2.8,3.969,3.969,0,0,0,2.1.38h1.23c.359,0,.471-.044.471-.156a.174.174,0,0,0-.179-.157,3.717,3.717,0,0,1-2.887-1.387c-1.141-1.186-2.506-2.909-4.118-4.923,1.835-1.566,2.417-2.931,2.417-4.341a3.336,3.336,0,0,0-1.365-2.6,6.451,6.451,0,0,0-3.67-.828c-.6,0-2.26.045-2.461.045-.112,0-1.432-.045-2.328-.045-.223,0-.313.045-.313.157a.19.19,0,0,0,.157.157,6.4,6.4,0,0,1,.671.045c.649.09.761.4.806,1.052.044.6.044,1.141.044,4.095v3.357a38.994,38.994,0,0,1-.111,4.117c-.09.56-.134.917-.515,1.007a2.781,2.781,0,0,1-.6.09.152.152,0,0,0-.157.157c0,.112.112.156.314.156.6,0,1.924-.067,1.947-.067.09,0,1.342.067,2.417.067.223,0,.313-.067.313-.156a.14.14,0,0,0-.157-.157,7.086,7.086,0,0,1-.873-.09c-.6-.09-.716-.447-.783-1.007-.09-.783-.09-2.26-.09-4.095v-.447c0-.112.045-.157.134-.157l2.506.045a.3.3,0,0,1,.268.112C427.249,210.765,428.122,212,428.95,213.026Zm-2.73-3.558a6.672,6.672,0,0,1-2.17-.291.281.281,0,0,1-.134-.246v-6.109a.243.243,0,0,1,.157-.223,8.563,8.563,0,0,1,1.41-.112c2.1,0,3.4,1.365,3.4,3.737a3.394,3.394,0,0,1-1.186,2.909A2.559,2.559,0,0,1,426.22,209.468Zm-57.938,15.679a.6.6,0,0,0,.035-1.2.611.611,0,0,0-.638.626A.571.571,0,0,0,368.282,225.147Zm-108.833,2.634h1.335a.377.377,0,0,0-.012-.5h-1.311c-.2,0-.213-.012-.213-.224v-.532c-.047-.083-.189-.083-.248-.059a2.929,2.929,0,0,1-.5.7,2.339,2.339,0,0,1-.756.366.2.2,0,0,0,.035.248h.331c.236,0,.248.024.248.343v2.705c0,.709.213,1.276,1.229,1.276a1.634,1.634,0,0,0,1.24-.544c.024-.071-.024-.2-.118-.2-.035,0-.189.13-.3.165a.9.9,0,0,1-.319.059c-.78,0-.862-.626-.862-1.311v-2.209C259.237,227.816,259.249,227.781,259.449,227.781Zm4.229,3.9-.248-.035c-.425-.059-.449-.177-.449-1.028V228.49c0-.484.024-1.052.047-1.465-.012-.047-.059-.07-.118-.07a8.159,8.159,0,0,1-1.217.579.161.161,0,0,0-.012.212l.106.071c.319.213.319.272.319.733v2.067c0,.851-.012.969-.449,1.028l-.248.035a.206.206,0,0,0,.024.295c.331-.024.685-.035,1.11-.035s.756.012,1.11.035A.206.206,0,0,0,263.678,231.679Zm-6.343-.248c-.035,0-.094.047-.153.083a.68.68,0,0,1-.3.071c-.461,0-.567-.484-.544-1.028l.071-2.056c.035-.886-.378-1.382-1.228-1.382s-2.2.839-2.2,1.453a.15.15,0,0,0,.165.166,1.271,1.271,0,0,0,.673-.224c.094-.071.106-.213.118-.4.024-.366.425-.532.756-.532.732,0,.874.591.862,1.028l-.012.544c-.012.177-.023.283-.2.342l-1.406.508c-.756.272-.981.544-.981,1a1.107,1.107,0,0,0,.367.827,1.223,1.223,0,0,0,.827.272,1.752,1.752,0,0,0,.85-.3,1.825,1.825,0,0,1,.461-.236c.071,0,.142.095.189.165a.943.943,0,0,0,.768.366,1.239,1.239,0,0,0,.992-.52C257.418,231.5,257.383,231.431,257.336,231.431Zm-1.843-.709a.7.7,0,0,1-.154.555,1.337,1.337,0,0,1-.721.3.712.712,0,0,1-.744-.709c0-.461.342-.638,1.039-.874a2.233,2.233,0,0,1,.484-.118c.071,0,.118.024.118.154Zm-55.812.957-.319-.035c-.425-.048-.449-.177-.449-1.028v-1.973a1.378,1.378,0,0,0-1.524-1.524,2.682,2.682,0,0,0-1.595.614c-.035-.024-.047-.118-.047-.224v-2.48c0-.52.024-1.111.036-1.465a.13.13,0,0,0-.118-.071,8.355,8.355,0,0,1-1.276.5.179.179,0,0,0,0,.236l.118.071c.355.213.366.284.366.98v5.339c0,.851-.012.98-.449,1.028l-.3.035a.206.206,0,0,0,.024.295c.378-.024.732-.035,1.158-.035s.756.012,1.11.035c.083-.035.106-.248.024-.295l-.248-.035c-.425-.059-.449-.177-.449-1.028v-1.984c0-.413.036-.473.248-.65a1.413,1.413,0,0,1,.921-.319c.756,0,1.122.508,1.122,1.264v1.689c0,.851-.012.957-.449,1.028l-.236.035a.206.206,0,0,0,.024.295c.319-.024.673-.035,1.1-.035s.756.012,1.181.035A.206.206,0,0,0,199.681,231.679Zm63.395-6.958a.571.571,0,0,0-.579-.6.611.611,0,0,0-.638.626.609.609,0,0,0,1.217-.023Zm-69.572-.909c-.177.307-.283.33-.921.33H187.8c-.543,0-.933.012-1-.366a.294.294,0,0,0-.224,0,12.465,12.465,0,0,1-.449,1.76.228.228,0,0,0,.307.083,2.159,2.159,0,0,1,.532-.815,2.418,2.418,0,0,1,1.453-.3h.65c.354,0,.354.012.354.378v5.28c0,1.24-.059,1.417-.732,1.477l-.425.035a.206.206,0,0,0,0,.295c.756-.024,1.17-.035,1.642-.035s.874.012,1.547.035c.071-.035.094-.248.024-.295l-.378-.035c-.685-.071-.709-.237-.709-1.477v-5.257c0-.39-.012-.4.343-.4h.839a2.353,2.353,0,0,1,1.37.3c.177.13.26.567.3.862a.222.222,0,0,0,.307-.024,7.151,7.151,0,0,1,.177-1.8C193.692,223.8,193.563,223.789,193.5,223.813Zm25.526,7.69c-.331,0-.366-.355-.366-1.287V228.23c0-.437.012-.8.035-1.028-.012-.047-.047-.071-.106-.083a4.727,4.727,0,0,1-1.382.213.16.16,0,0,0-.012.26l.153.059c.355.142.437.165.437.933v1.937a.822.822,0,0,1-.236.685,1.544,1.544,0,0,1-.957.354c-.9,0-1.1-.543-1.1-1.358V228.23a8.885,8.885,0,0,1,.035-1.028c-.012-.047-.047-.071-.118-.083a4.193,4.193,0,0,1-1.264.213.175.175,0,0,0-.024.26l.142.059c.354.153.354.26.354,1v1.972c0,.957.39,1.477,1.429,1.477a3.091,3.091,0,0,0,1.63-.614c.071,0,.106.059.106.165v.484a.164.164,0,0,0,.142.083,6.145,6.145,0,0,1,1.547-.437c.094-.047.083-.283.012-.343A2.241,2.241,0,0,1,219.029,231.5Zm-67.478-5.3h23.592v-2H151.551Zm79.929.916a2.482,2.482,0,0,0-2.516,2.551,2.335,2.335,0,0,0,2.421,2.434,2.413,2.413,0,0,0,2.492-2.54A2.36,2.36,0,0,0,231.48,227.12Zm.024,4.63c-1.039,0-1.524-1.157-1.524-2.233,0-1.3.579-2.044,1.358-2.044,1.122,0,1.524,1.276,1.524,2.28C232.862,230.663,232.543,231.75,231.5,231.75Zm-19.775-7.607h-2.173c-.473,0-.874-.012-1.37-.035-.071.035-.094.248-.023.3l.189.024c.685.083.708.248.708,1.488v4.253c0,1.24-.024,1.394-.708,1.477l-.3.035a.229.229,0,0,0,.024.295c.555-.024.957-.035,1.477-.035.472,0,.874.012,1.571.035.071-.035.094-.248.024-.295l-.4-.035c-.7-.059-.721-.237-.721-1.477v-1.642c0-.307.035-.319.39-.319h.8a4.022,4.022,0,0,1,.91.059.549.549,0,0,1,.378.449l.118.461c.083.071.26.071.307,0,0-.272-.047-.721-.047-1.146s.047-.91.047-1.193a.25.25,0,0,0-.307,0l-.106.473c-.071.307-.165.366-.3.413a4.455,4.455,0,0,1-1,.071h-.8c-.354,0-.39,0-.39-.319v-2.492c0-.449,0-.472.354-.472h.721a5.846,5.846,0,0,1,1.146.071c.591.165.732.59.827,1.122a.213.213,0,0,0,.283-.035c-.024-.449-.035-1.016-.035-1.56C213.17,224.143,212.485,224.143,211.729,224.143Zm-59-19.124c.682-.344,1.337-.7,1.883-.993a24.939,24.939,0,0,0,4.341-2.543c.266-.238.619-.667.166-1.55l-.562-1.1-.552-1.1c-.445-.887-1-.854-1.349-.78a24.951,24.951,0,0,0-4.615,2c-.555.27-1.233.586-1.913.934l-2.088,4.282h0Zm22.128,2.168c-3.334-.268-6.212,1.515-9.446,2.086-.259.046-.607-.505-.921-.819a2.533,2.533,0,0,0-.44-4.3,3.859,3.859,0,0,1-.007-1.47c.141-.118,1.249.093,1.406-.043a3.332,3.332,0,0,0,.025-1.594c-.1-.127-1.35.009-1.419-.076s.034-1.281-.083-1.375a2.685,2.685,0,0,0-1.246,0c-.118.094-.012,1.29-.083,1.375s-1.318-.05-1.42.076a3.334,3.334,0,0,0,.026,1.594c.157.136,1.265-.075,1.406.043a3.865,3.865,0,0,1-.007,1.47,2.534,2.534,0,0,0-.441,4.3c-.314.314-.663.865-.92.819-3.234-.571-6.112-2.354-9.447-2.086a4.026,4.026,0,0,0-3.714,3.351c-.584,3.4,1.857,6.011,3.043,8.895a7.868,7.868,0,0,1,.644,3.186h23.074a7.844,7.844,0,0,1,.645-3.186c1.185-2.884,3.626-5.5,3.042-8.895A4.026,4.026,0,0,0,174.856,207.188Zm-12.888,10.876c-.3,1.705-1.247,2.789-2.036,2.794a1.912,1.912,0,0,1-1.309-.523c-.519-.455-.943-1.2-.807-1.645.115-.148,1.514.065,1.614-.074a2.69,2.69,0,0,0-.329-1.369c-.159-.141-1.421.047-1.59-.091s-.326-1.488-.5-1.572c0,0-1.336-.2-1.432-.008s.451,1.318.356,1.51-1.862-.167-1.894.031a3.044,3.044,0,0,0,.271,1.338,8.384,8.384,0,0,0,1.821.157,1.669,1.669,0,0,1,.434,1.339c0,.691-.534,1.049-1.392.808-1.6-.447-3.58-3.915-4.757-6.316-.864-1.765-1.385-4.652.883-5.517a6.661,6.661,0,0,1,4.323.213,22.6,22.6,0,0,1,4.827,1.842c.3.184-.354.037.722,2.421A10.573,10.573,0,0,1,161.968,218.063Zm14.306-3.621c-1.175,2.4-3.156,5.869-4.756,6.316-.858.24-1.4-.117-1.393-.808a1.672,1.672,0,0,1,.435-1.339,8.383,8.383,0,0,0,1.821-.157,3.026,3.026,0,0,0,.271-1.338c-.031-.2-1.8.162-1.893-.031s.455-1.318.357-1.51-1.433.008-1.433.008c-.173.083-.33,1.434-.5,1.572s-1.432-.05-1.59.091a2.692,2.692,0,0,0-.329,1.369c.1.139,1.5-.074,1.615.074.135.442-.289,1.19-.808,1.645a1.912,1.912,0,0,1-1.309.523c-.788,0-1.736-1.089-2.036-2.794a10.585,10.585,0,0,1,.792-4.663c1.076-2.384.424-2.237.722-2.421a22.569,22.569,0,0,1,4.828-1.842,6.657,6.657,0,0,1,4.321-.213C177.66,209.789,177.138,212.677,176.274,214.442Zm27.907,16.422a1.273,1.273,0,0,1-1.087.579,2,2,0,0,1-1.961-2.209c0-.3.012-.319.319-.319h2.185c.5,0,.661-.012.7-.083a.728.728,0,0,0,.048-.307,1.548,1.548,0,0,0-1.678-1.406,2.48,2.48,0,0,0-2.374,2.67,2.508,2.508,0,0,0,.5,1.535,2.117,2.117,0,0,0,1.713.78,2.064,2.064,0,0,0,1.855-1.1A.156.156,0,0,0,204.181,230.864Zm-1.606-3.39c.685,0,.91.413.91.744,0,.153-.035.2-.071.224-.094.071-.354.118-1.228.118h-.839c-.083,0-.083-.035-.083-.059A1.387,1.387,0,0,1,202.575,227.474ZM239.7,231.5c-.331,0-.366-.355-.366-1.287V228.23c0-.437.012-.8.035-1.028-.012-.047-.047-.071-.106-.083a4.729,4.729,0,0,1-1.382.213.16.16,0,0,0-.012.26l.154.059c.354.142.437.165.437.933v1.937a.822.822,0,0,1-.236.685,1.544,1.544,0,0,1-.957.354c-.9,0-1.1-.543-1.1-1.358V228.23a8.893,8.893,0,0,1,.035-1.028c-.012-.047-.047-.071-.118-.083a4.194,4.194,0,0,1-1.264.213.175.175,0,0,0-.024.26l.142.059c.354.153.354.26.354,1v1.972c0,.957.39,1.477,1.429,1.477a3.091,3.091,0,0,0,1.63-.614c.071,0,.106.059.106.165v.484a.164.164,0,0,0,.142.083,6.142,6.142,0,0,1,1.547-.437c.095-.047.083-.283.012-.343A2.24,2.24,0,0,1,239.7,231.5ZM151.08,198.765l.537-.257c.555-.288,1.251-.643,1.97-.985a4.8,4.8,0,0,0-.3-.44.6.6,0,0,0-.839-.121l-.569.306-.572.3a.606.606,0,0,0-.372.766C150.953,198.424,151.012,198.588,151.08,198.765Zm95.165,32.915-.26-.035c-.425-.059-.449-.177-.449-1.028v-2.031a1.311,1.311,0,0,0-1.382-1.465,3.239,3.239,0,0,0-1.654.6.124.124,0,0,1-.13-.13c0-.106,0-.283.023-.555a.137.137,0,0,0-.13-.083,6.472,6.472,0,0,1-1.181.579.161.161,0,0,0-.012.212l.107.071c.319.213.319.272.319.733v2.067c0,.851-.012.969-.449,1.028l-.248.035a.206.206,0,0,0,.023.295c.331-.024.685-.035,1.111-.035s.756.012,1.075.035a.206.206,0,0,0,.023-.295l-.213-.035c-.425-.071-.449-.177-.449-1.028v-1.807a1,1,0,0,1,.177-.709,1.288,1.288,0,0,1,1-.413,1.024,1.024,0,0,1,1.11,1.169v1.76c0,.851-.012.957-.449,1.028l-.225.035a.206.206,0,0,0,.024.295c.319-.024.673-.035,1.1-.035s.756.012,1.111.035A.206.206,0,0,0,246.245,231.679Zm-78.271-30.55a17.619,17.619,0,0,0,3.642,2.584,16.433,16.433,0,0,0,4.114,1.654c.3.08.793.113,1.225-.676.049-.09,1.054-1.928,1.1-2.018.431-.789.138-1.184-.092-1.4a16.431,16.431,0,0,0-3.615-2.569,17.58,17.58,0,0,0-4.142-1.67c-.3-.08-.794-.113-1.225.676-.049.09-1.053,1.929-1.1,2.019C167.45,200.522,167.743,200.917,167.974,201.129Zm4.647,3.789c-.46-.212-.89-.435-1.291-.661s-.855-.481-1.318-.783l-2.55,4.643c1.393-.419,2.75-.939,4.143-1.272ZM154.779,231.2a3.045,3.045,0,0,0-.324.878c-.022.211-.058.541.5.839l.7.372.694.376c.56.3.818.1.972-.048a3.147,3.147,0,0,0,.521-.718l3.217-6.093h-3.869Zm97.62.263a1.935,1.935,0,0,1-.508.118c-.331,0-.342-.437-.342-1.37v-5.185c0-.52.024-1.111.035-1.465a.13.13,0,0,0-.118-.071,8.354,8.354,0,0,1-1.276.5.18.18,0,0,0,0,.236l.118.071c.354.213.366.284.366.98v1.784c0,.095-.012.166-.071.166a2.414,2.414,0,0,0-.792-.106,2.681,2.681,0,0,0-2.858,2.717,2.17,2.17,0,0,0,2.185,2.268,2.459,2.459,0,0,0,1.488-.544h.047a1.309,1.309,0,0,1,.024.366v.2c0,.059.059.095.13.095a8.875,8.875,0,0,1,1.559-.378C252.493,231.785,252.481,231.49,252.4,231.467Zm-1.725-.7a.716.716,0,0,1-.083.437,1.446,1.446,0,0,1-.91.331,1.873,1.873,0,0,1-1.76-2.091c0-1.028.555-1.96,1.63-1.96a1.232,1.232,0,0,1,.992.5.691.691,0,0,1,.13.461ZM226.8,224.143h-2.173c-.473,0-.874-.012-1.37-.035-.071.035-.094.248-.023.3l.189.024c.685.083.709.248.709,1.488v4.253c0,1.24-.024,1.394-.709,1.477l-.3.035a.229.229,0,0,0,.024.295c.555-.024.957-.035,1.477-.035.473,0,.874.012,1.571.035.071-.035.095-.248.023-.295l-.4-.035c-.7-.059-.721-.237-.721-1.477v-1.642c0-.307.035-.319.39-.319h.8a4.023,4.023,0,0,1,.91.059.549.549,0,0,1,.378.449l.118.461c.083.071.26.071.307,0,0-.272-.047-.721-.047-1.146s.047-.91.047-1.193a.249.249,0,0,0-.307,0l-.106.473c-.071.307-.165.366-.3.413a4.456,4.456,0,0,1-1,.071h-.8c-.354,0-.39,0-.39-.319v-2.492c0-.449,0-.472.354-.472h.721a5.847,5.847,0,0,1,1.146.071c.591.165.732.59.827,1.122a.213.213,0,0,0,.283-.035c-.024-.449-.035-1.016-.035-1.56C228.242,224.143,227.557,224.143,226.8,224.143Zm-51.008-25.307c.079-.193.15-.38.177-.478a.607.607,0,0,0-.359-.772l-.567-.31-.564-.317a.6.6,0,0,0-.841.107,4.884,4.884,0,0,0-.318.444c.489.221.946.451,1.331.669C175.023,198.374,175.405,198.592,175.794,198.836Zm-21.063,5.8-.463.248,1.062,2.012c1.392.354,2.752.88,4.152,1.288l-2.57-4.679C156.138,203.935,155.35,204.332,154.73,204.64Zm17.4,26.563-2.414-4.394h-3.869l3.217,6.093a3.186,3.186,0,0,0,.521.718c.155.144.414.35.973.048l.694-.376.7-.372c.561-.3.525-.628.5-.839A3.058,3.058,0,0,0,172.126,231.2Zm94.789-4.084a2.482,2.482,0,0,0-2.516,2.551,2.335,2.335,0,0,0,2.422,2.434,2.413,2.413,0,0,0,2.492-2.54A2.36,2.36,0,0,0,266.915,227.12Zm.024,4.63c-1.04,0-1.524-1.157-1.524-2.233,0-1.3.579-2.044,1.358-2.044,1.122,0,1.524,1.276,1.524,2.28C268.3,230.663,267.978,231.75,266.938,231.75ZM415,226.942a3.755,3.755,0,0,0-1.654.555c-.083,0-.106-.071-.106-.153a5.441,5.441,0,0,1,.047-.544.133.133,0,0,0-.141-.082,7.177,7.177,0,0,1-1.169.637.162.162,0,0,0-.012.213l.106.071c.319.213.319.272.319.732v5.08c0,.85-.012.968-.449,1.027l-.248.035a.207.207,0,0,0,.024.3c.331-.024.685-.035,1.11-.035s.756.012,1.323.035a.207.207,0,0,0,.024-.3l-.461-.059c-.426-.059-.449-.165-.449-1v-1.24c0-.248.059-.307.165-.331a4.487,4.487,0,0,0,.65.047,2.752,2.752,0,0,0,2.882-2.823A2,2,0,0,0,415,226.942Zm-.531,4.6a1.554,1.554,0,0,1-.851-.26.76.76,0,0,1-.354-.709v-2.031c0-.39.035-.567.141-.7a1.452,1.452,0,0,1,1-.331,1.711,1.711,0,0,1,1.595,1.9C416,230.639,415.435,231.537,414.466,231.537Zm6.52-4.6a3.759,3.759,0,0,0-1.654.555c-.082,0-.106-.071-.106-.153a5.427,5.427,0,0,1,.047-.544.133.133,0,0,0-.141-.082,7.194,7.194,0,0,1-1.169.637.162.162,0,0,0-.012.213l.106.071c.319.213.319.272.319.732v5.08c0,.85-.012.968-.449,1.027l-.248.035a.207.207,0,0,0,.024.3c.33-.024.684-.035,1.11-.035s.756.012,1.323.035a.207.207,0,0,0,.023-.3l-.46-.059c-.426-.059-.449-.165-.449-1v-1.24c0-.248.059-.307.165-.331a4.481,4.481,0,0,0,.65.047,2.752,2.752,0,0,0,2.882-2.823A2,2,0,0,0,420.986,226.942Zm-.531,4.6a1.555,1.555,0,0,1-.851-.26.76.76,0,0,1-.354-.709v-2.031a1.051,1.051,0,0,1,.141-.7,1.451,1.451,0,0,1,1-.331,1.711,1.711,0,0,1,1.595,1.9C421.99,230.639,421.423,231.537,420.455,231.537Zm-39.18-4.17h-.957a1.41,1.41,0,0,1-.721-.189,2.959,2.959,0,0,0-1.134-.236,1.846,1.846,0,0,0-1.925,1.784,1.6,1.6,0,0,0,.886,1.429.458.458,0,0,1-.118.225,3.67,3.67,0,0,1-.626.544c-.13.094-.177.141-.177.2a1.1,1.1,0,0,0,.862.933c.106.071.012.177-.095.283-.272.272-.6.579-.8.792a.665.665,0,0,0-.13.437c0,.59.508,1.37,1.961,1.37,1.535,0,2.941-.945,2.941-2.232,0-1.182-.992-1.3-1.654-1.3-.52,0-1,.035-1.406.035-.555,0-.827-.224-.827-.5,0-.342.378-.567.52-.65.142.012.307.036.52.036a1.816,1.816,0,0,0,1.984-1.878,5.138,5.138,0,0,0-.024-.6h.85C381.382,227.828,381.405,227.426,381.275,227.367Zm-3.484,4.9a2.618,2.618,0,0,1,1.016-.13h.4c.851,0,1.347.307,1.347,1.028,0,.673-.7,1.264-1.748,1.264-1.075,0-1.583-.532-1.583-1.169A1.211,1.211,0,0,1,377.791,232.269Zm.78-2.28c-.567,0-1.075-.544-1.075-1.382,0-.8.425-1.323.992-1.323.72,0,1.051.673,1.051,1.477C379.539,229.482,379.208,229.99,378.57,229.99Zm48.617-5.422a.609.609,0,1,0,.638-.626A.611.611,0,0,0,427.187,224.568Zm1.819,6.934-.248-.035c-.426-.059-.449-.177-.449-1.028v-2.126c0-.484.023-1.051.047-1.465-.012-.048-.059-.071-.118-.071a8.124,8.124,0,0,1-1.217.579.161.161,0,0,0-.012.213l.106.071c.319.213.319.272.319.732v2.067c0,.85-.012.969-.449,1.028l-.248.035a.206.206,0,0,0,.023.3c.331-.024.685-.035,1.111-.035s.756.012,1.11.035A.207.207,0,0,0,429.006,231.5Zm4.571-.815a1.273,1.273,0,0,1-1.087.579,2,2,0,0,1-1.961-2.209c0-.3.012-.319.319-.319h2.185c.5,0,.662-.012.7-.083a.726.726,0,0,0,.047-.307,1.548,1.548,0,0,0-1.678-1.406,2.48,2.48,0,0,0-2.374,2.67,2.507,2.507,0,0,0,.5,1.535,2.116,2.116,0,0,0,1.713.78,2.064,2.064,0,0,0,1.854-1.1A.156.156,0,0,0,433.577,230.687Zm-1.606-3.39c.685,0,.91.413.91.744,0,.154-.035.2-.071.224-.094.071-.354.118-1.228.118h-.839c-.082,0-.082-.035-.082-.059A1.385,1.385,0,0,1,431.971,227.3ZM394.906,231.5l-.26-.035c-.425-.059-.449-.177-.449-1.028v-2.032a1.311,1.311,0,0,0-1.382-1.465,3.24,3.24,0,0,0-1.654.6.124.124,0,0,1-.13-.13c0-.106,0-.284.024-.555a.137.137,0,0,0-.13-.083,6.457,6.457,0,0,1-1.181.579.162.162,0,0,0-.012.213l.106.071c.319.213.319.272.319.732v2.067c0,.85-.012.969-.449,1.028l-.248.035a.207.207,0,0,0,.024.3c.331-.024.685-.035,1.11-.035s.756.012,1.075.035a.207.207,0,0,0,.023-.3l-.213-.035c-.425-.071-.449-.177-.449-1.028v-1.807a.994.994,0,0,1,.177-.709,1.288,1.288,0,0,1,1-.413,1.024,1.024,0,0,1,1.11,1.169v1.76c0,.85-.012.957-.449,1.028l-.225.035a.207.207,0,0,0,.024.3c.319-.024.673-.035,1.1-.035s.756.012,1.11.035A.207.207,0,0,0,394.906,231.5Zm16.8,0-.319-.035c-.508-.059-.662-.236-1-1.252l-1.618-4.749c-.177-.519-.366-1.063-.52-1.583a.167.167,0,0,0-.177-.106,1.328,1.328,0,0,1-.614.449,1.7,1.7,0,0,1-.2.839l-1.2,3.189c-.5,1.323-.827,2.091-1.04,2.634a.785.785,0,0,1-.709.579l-.39.035a.232.232,0,0,0,.024.3c.319-.012.744-.035,1.134-.035.555.012.921.012,1.228.035a.19.19,0,0,0,.024-.3l-.39-.035c-.284-.024-.342-.094-.342-.236a4.52,4.52,0,0,1,.26-.98l.413-1.24c.083-.248.154-.283.449-.283h1.783c.355,0,.4.035.484.3l.52,1.607a2.423,2.423,0,0,1,.154.626c0,.118-.165.189-.413.213l-.343.035a.2.2,0,0,0,.024.3c.342-.012.791-.035,1.358-.035.531,0,.945.012,1.429.035A.231.231,0,0,0,411.7,231.5Zm-3.367-3.248h-1.453c-.331,0-.342-.012-.248-.283l.744-2.056a7.107,7.107,0,0,1,.284-.7h.023a7.672,7.672,0,0,1,.272.744l.638,1.925C408.7,228.206,408.678,228.253,408.335,228.253Zm-19.323,3c-.036,0-.094.048-.154.083a.673.673,0,0,1-.3.071c-.461,0-.567-.484-.544-1.028l.071-2.055c.036-.886-.378-1.382-1.228-1.382s-2.2.839-2.2,1.453a.15.15,0,0,0,.165.165,1.27,1.27,0,0,0,.673-.224c.095-.071.106-.213.118-.4.024-.366.426-.531.756-.531.733,0,.874.59.862,1.028l-.012.543c-.012.177-.024.283-.2.342l-1.406.508c-.756.272-.98.544-.98,1a1.1,1.1,0,0,0,.366.827,1.221,1.221,0,0,0,.827.272,1.746,1.746,0,0,0,.85-.3,1.817,1.817,0,0,1,.461-.236c.071,0,.141.095.189.166a.943.943,0,0,0,.768.366,1.24,1.24,0,0,0,.992-.519C389.095,231.324,389.059,231.253,389.012,231.253Zm-1.843-.708a.7.7,0,0,1-.154.555,1.334,1.334,0,0,1-.72.3.712.712,0,0,1-.744-.708c0-.461.342-.638,1.039-.875a2.254,2.254,0,0,1,.484-.118c.071,0,.118.024.118.154Zm13.891.744a1.928,1.928,0,0,1-.508.118c-.331,0-.343-.437-.343-1.37v-5.185c0-.52.024-1.11.036-1.465a.13.13,0,0,0-.118-.07,8.452,8.452,0,0,1-1.276.5.18.18,0,0,0,0,.236l.118.071c.354.212.366.283.366.98v1.784c0,.094-.012.165-.071.165a2.424,2.424,0,0,0-.791-.106,2.681,2.681,0,0,0-2.859,2.717,2.17,2.17,0,0,0,2.185,2.268,2.461,2.461,0,0,0,1.488-.543h.047a1.308,1.308,0,0,1,.024.366v.2c0,.059.059.094.13.094a8.882,8.882,0,0,1,1.559-.378C401.154,231.608,401.142,231.313,401.06,231.289Zm-1.725-.7a.717.717,0,0,1-.083.437,1.445,1.445,0,0,1-.909.33,1.873,1.873,0,0,1-1.76-2.091c0-1.028.555-1.961,1.63-1.961a1.232,1.232,0,0,1,.992.5.692.692,0,0,1,.13.461Zm26.671.909-.283-.035c-.426-.059-.449-.177-.449-1.028v-5.587c0-.52.023-1.11.035-1.465a.13.13,0,0,0-.118-.07,8.444,8.444,0,0,1-1.276.5.179.179,0,0,0,0,.236l.118.071c.355.212.366.283.366.98v5.339c0,.85-.012.969-.449,1.028l-.272.035a.206.206,0,0,0,.023.3c.355-.024.709-.035,1.134-.035s.756.012,1.146.035A.206.206,0,0,0,426.006,231.5Zm34.75-.815a1.274,1.274,0,0,1-1.087.579,2,2,0,0,1-1.961-2.209c0-.3.012-.319.319-.319h2.185c.5,0,.662-.012.7-.083a.733.733,0,0,0,.047-.307,1.548,1.548,0,0,0-1.677-1.406,2.48,2.48,0,0,0-2.374,2.67,2.507,2.507,0,0,0,.5,1.535,2.116,2.116,0,0,0,1.713.78,2.064,2.064,0,0,0,1.854-1.1A.156.156,0,0,0,460.756,230.687Zm-1.607-3.39c.685,0,.909.413.909.744,0,.154-.035.2-.071.224-.094.071-.354.118-1.228.118h-.839c-.083,0-.083-.035-.083-.059A1.386,1.386,0,0,1,459.149,227.3Zm7.926,4.205-.26-.035c-.425-.059-.449-.177-.449-1.028v-2.032a1.311,1.311,0,0,0-1.382-1.465,3.24,3.24,0,0,0-1.654.6.124.124,0,0,1-.13-.13c0-.106,0-.284.023-.555a.137.137,0,0,0-.13-.083,6.441,6.441,0,0,1-1.181.579.162.162,0,0,0-.012.213l.107.071c.319.213.319.272.319.732v2.067c0,.85-.012.969-.449,1.028l-.248.035a.206.206,0,0,0,.023.3c.331-.024.685-.035,1.111-.035s.756.012,1.075.035a.207.207,0,0,0,.023-.3l-.212-.035c-.426-.071-.449-.177-.449-1.028v-1.807a1,1,0,0,1,.177-.709,1.289,1.289,0,0,1,1-.413,1.024,1.024,0,0,1,1.11,1.169v1.76c0,.85-.012.957-.449,1.028l-.224.035a.206.206,0,0,0,.023.3c.319-.024.673-.035,1.1-.035s.756.012,1.111.035A.207.207,0,0,0,467.075,231.5Zm-27.226-.213a1.926,1.926,0,0,1-.508.118c-.331,0-.342-.437-.342-1.37v-5.185c0-.52.024-1.11.035-1.465a.13.13,0,0,0-.118-.07,8.447,8.447,0,0,1-1.276.5.18.18,0,0,0,0,.236l.118.071c.354.212.366.283.366.98v1.784c0,.094-.012.165-.071.165a2.424,2.424,0,0,0-.791-.106,2.681,2.681,0,0,0-2.858,2.717,2.17,2.17,0,0,0,2.185,2.268,2.461,2.461,0,0,0,1.488-.543h.047a1.308,1.308,0,0,1,.024.366v.2c0,.059.059.094.13.094a8.885,8.885,0,0,1,1.56-.378C439.943,231.608,439.932,231.313,439.849,231.289Zm-1.725-.7a.717.717,0,0,1-.083.437,1.445,1.445,0,0,1-.909.33,1.874,1.874,0,0,1-1.76-2.091c0-1.028.555-1.961,1.631-1.961a1.232,1.232,0,0,1,.992.5.692.692,0,0,1,.13.461Zm38.234.095a1.273,1.273,0,0,1-1.086.579,2,2,0,0,1-1.961-2.209c0-.3.012-.319.319-.319h2.185c.5,0,.662-.012.7-.083a.733.733,0,0,0,.047-.307,1.548,1.548,0,0,0-1.678-1.406A2.671,2.671,0,0,0,473,231.147a2.115,2.115,0,0,0,1.713.78,2.065,2.065,0,0,0,1.855-1.1A.156.156,0,0,0,476.358,230.687Zm-1.606-3.39c.685,0,.909.413.909.744,0,.154-.035.2-.071.224-.094.071-.354.118-1.228.118h-.839c-.083,0-.083-.035-.083-.059A1.387,1.387,0,0,1,474.752,227.3Zm-2.894,3.26a1.441,1.441,0,0,1-1.311.709,1.941,1.941,0,0,1-1.9-2.02,1.7,1.7,0,0,1,1.63-1.9,1.61,1.61,0,0,1,1.181.626.207.207,0,0,0,.166.083c.141,0,.259-.224.259-.437a.67.67,0,0,0-.177-.473,2.954,2.954,0,0,0-1.051-.2,2.628,2.628,0,0,0-2.859,2.634,2.351,2.351,0,0,0,.685,1.748,2.287,2.287,0,0,0,1.618.6,2.152,2.152,0,0,0,1.973-1.2A.187.187,0,0,0,471.858,230.557ZM446.641,227.5l-.945-.59a1.878,1.878,0,0,1-1-1.453,1.237,1.237,0,0,1,1.405-1.311,1.548,1.548,0,0,1,1.606,1.335c.059.071.248.036.3-.036a5.161,5.161,0,0,0-.213-1.441,2.331,2.331,0,0,1-.413-.071,4.038,4.038,0,0,0-1.1-.153,2.125,2.125,0,0,0-2.409,2.031,2.52,2.52,0,0,0,1.275,2.032l1.122.733a1.774,1.774,0,0,1,.969,1.653,1.342,1.342,0,0,1-1.477,1.358,2.149,2.149,0,0,1-2.032-1.76c-.047-.071-.224-.047-.284.036a5.455,5.455,0,0,0,.319,1.653,3.682,3.682,0,0,0,1.843.437,2.229,2.229,0,0,0,2.516-2.185A2.66,2.66,0,0,0,446.641,227.5Zm6.579,3.059a1.442,1.442,0,0,1-1.311.709,1.941,1.941,0,0,1-1.9-2.02,1.7,1.7,0,0,1,1.63-1.9,1.611,1.611,0,0,1,1.181.626.206.206,0,0,0,.165.083c.142,0,.26-.224.26-.437a.672.672,0,0,0-.177-.473,2.955,2.955,0,0,0-1.051-.2,2.628,2.628,0,0,0-2.859,2.634,2.351,2.351,0,0,0,.685,1.748,2.289,2.289,0,0,0,1.618.6,2.151,2.151,0,0,0,1.973-1.2A.186.186,0,0,0,453.22,230.557Zm2.965.945-.248-.035c-.425-.059-.449-.177-.449-1.028v-2.126c0-.484.024-1.051.047-1.465-.012-.048-.059-.071-.118-.071a8.125,8.125,0,0,1-1.217.579.161.161,0,0,0-.012.213l.107.071c.319.213.319.272.319.732v2.067c0,.85-.012.969-.449,1.028l-.248.035a.207.207,0,0,0,.023.3c.331-.024.685-.035,1.111-.035s.756.012,1.11.035A.207.207,0,0,0,456.185,231.5Zm-.6-6.957a.571.571,0,0,0-.579-.6.611.611,0,0,0-.638.626.609.609,0,0,0,1.217-.024ZM304.133,227.12a2.482,2.482,0,0,0-2.516,2.551,2.335,2.335,0,0,0,2.422,2.434,2.413,2.413,0,0,0,2.492-2.54A2.36,2.36,0,0,0,304.133,227.12Zm.024,4.63c-1.04,0-1.524-1.157-1.524-2.233,0-1.3.579-2.044,1.359-2.044,1.122,0,1.524,1.276,1.524,2.28C305.515,230.663,305.2,231.75,304.157,231.75Zm5.433-.07-.284-.035c-.425-.059-.449-.177-.449-1.028v-5.587c0-.52.023-1.111.036-1.465a.13.13,0,0,0-.118-.071,8.37,8.37,0,0,1-1.275.5.179.179,0,0,0,0,.236l.118.071c.354.213.366.284.366.98v5.339c0,.851-.012.969-.448,1.028l-.272.035a.206.206,0,0,0,.024.295c.354-.024.709-.035,1.134-.035s.756.012,1.146.035A.206.206,0,0,0,309.59,231.679Zm6.154-4.56a2.482,2.482,0,0,0-2.516,2.551,2.336,2.336,0,0,0,2.422,2.434,2.412,2.412,0,0,0,2.492-2.54A2.36,2.36,0,0,0,315.744,227.12Zm.024,4.63c-1.04,0-1.524-1.157-1.524-2.233,0-1.3.579-2.044,1.358-2.044,1.122,0,1.524,1.276,1.524,2.28C317.126,230.663,316.807,231.75,315.768,231.75Zm-40.136-.07-.26-.035c-.425-.059-.449-.177-.449-1.028v-2.031a1.311,1.311,0,0,0-1.382-1.465,3.238,3.238,0,0,0-1.653.6.124.124,0,0,1-.13-.13c0-.106,0-.283.024-.555a.138.138,0,0,0-.13-.083,6.48,6.48,0,0,1-1.182.579.162.162,0,0,0-.012.212l.106.071c.319.213.319.272.319.733v2.067c0,.851-.012.969-.449,1.028l-.248.035a.206.206,0,0,0,.023.295c.331-.024.685-.035,1.111-.035s.756.012,1.075.035a.206.206,0,0,0,.024-.295l-.213-.035c-.425-.071-.449-.177-.449-1.028v-1.807a1,1,0,0,1,.177-.709,1.288,1.288,0,0,1,1-.413,1.024,1.024,0,0,1,1.111,1.169v1.76c0,.851-.012.957-.449,1.028l-.224.035a.206.206,0,0,0,.024.295c.319-.024.673-.035,1.1-.035s.756.012,1.11.035A.207.207,0,0,0,275.631,231.679Zm46.538-8.186a2.323,2.323,0,0,0-2.126,1.5,5.293,5.293,0,0,0-.366,2.079.268.268,0,0,1-.177.236l-.508.248a.165.165,0,0,0,.036.224h.413c.236,0,.236.024.236.343v2.492c0,.851-.012.969-.449,1.028l-.272.035a.206.206,0,0,0,.023.295c.355-.024.709-.035,1.134-.035s.756.012,1.288.035a.206.206,0,0,0,.024-.295l-.425-.035c-.425-.036-.449-.177-.449-1.028v-2.492c0-.319,0-.343.2-.343h1.264a.364.364,0,0,0,.083-.5h-1.347c-.2,0-.2-.012-.2-.33v-.343a6.261,6.261,0,0,1,.26-2,.911.911,0,0,1,.839-.65,1.317,1.317,0,0,1,.945.519.337.337,0,0,0,.284.142.452.452,0,0,0,.449-.425C323.327,223.777,322.8,223.493,322.169,223.493Zm-39.6,4.182-.945-.591a1.877,1.877,0,0,1-1-1.453,1.237,1.237,0,0,1,1.406-1.311,1.548,1.548,0,0,1,1.607,1.335c.059.071.248.036.3-.036a5.163,5.163,0,0,0-.213-1.441,2.325,2.325,0,0,1-.413-.071,4.053,4.053,0,0,0-1.1-.154,2.125,2.125,0,0,0-2.41,2.032,2.521,2.521,0,0,0,1.276,2.032l1.122.732a1.775,1.775,0,0,1,.968,1.654,1.341,1.341,0,0,1-1.477,1.358,2.15,2.15,0,0,1-2.032-1.76c-.047-.071-.224-.047-.283.036a5.457,5.457,0,0,0,.319,1.654,3.689,3.689,0,0,0,1.843.437,2.229,2.229,0,0,0,2.516-2.185A2.66,2.66,0,0,0,282.565,227.675Zm49.879,2.4a2.966,2.966,0,0,1-.839,1.146,3.459,3.459,0,0,1-1.512.177c-1.04,0-1.288-.13-1.429-.272-.189-.2-.224-.6-.224-1.228V228.23c0-.307.036-.319.39-.319h.685a3.932,3.932,0,0,1,.909.059.5.5,0,0,1,.366.449l.106.46a.233.233,0,0,0,.307-.012c0-.26-.047-.708-.047-1.134,0-.448.047-.909.047-1.193a.233.233,0,0,0-.307-.012l-.094.484c-.059.3-.142.366-.284.413a4.368,4.368,0,0,1-1,.071h-.685c-.354,0-.39,0-.39-.331V224.8c0-.449,0-.473.354-.473h.85a5.646,5.646,0,0,1,1.146.071c.614.153.721.567.9,1.122a.232.232,0,0,0,.3-.024,13.226,13.226,0,0,0-.189-1.571,15.826,15.826,0,0,1-1.595.035h-2.221c-.484,0-.886-.012-1.394-.035-.071.035-.094.248-.024.3l.189.023c.7.083.721.26.721,1.489v4.252c0,1.24-.059,1.418-.732,1.476l-.39.035a.23.23,0,0,0,.024.3c.7-.024,1.1-.035,1.606-.035h1.063c1.051,0,2.1.012,3.166.035a10.277,10.277,0,0,0,.531-1.642A.217.217,0,0,0,332.444,230.072Zm-43.3.662a1.44,1.44,0,0,1-1.311.708,1.941,1.941,0,0,1-1.9-2.02,1.705,1.705,0,0,1,1.63-1.9,1.611,1.611,0,0,1,1.181.626.206.206,0,0,0,.166.083c.142,0,.259-.224.259-.437a.67.67,0,0,0-.177-.473,2.944,2.944,0,0,0-1.051-.2,2.628,2.628,0,0,0-2.858,2.634,2.353,2.353,0,0,0,.685,1.748,2.291,2.291,0,0,0,1.618.6,2.152,2.152,0,0,0,1.973-1.2A.186.186,0,0,0,289.144,230.734Zm9.249-3.615a2.482,2.482,0,0,0-2.516,2.551A2.335,2.335,0,0,0,298.3,232.1a2.413,2.413,0,0,0,2.492-2.54A2.36,2.36,0,0,0,298.392,227.12Zm.024,4.63c-1.039,0-1.524-1.157-1.524-2.233,0-1.3.579-2.044,1.359-2.044,1.122,0,1.524,1.276,1.524,2.28C299.775,230.663,299.456,231.75,298.416,231.75Zm-3.189-.07-.319-.035c-.425-.048-.449-.177-.449-1.028v-1.973a1.378,1.378,0,0,0-1.524-1.524,2.684,2.684,0,0,0-1.6.614c-.035-.024-.047-.118-.047-.224v-2.48c0-.52.023-1.111.035-1.465a.13.13,0,0,0-.118-.071,8.355,8.355,0,0,1-1.276.5.18.18,0,0,0,0,.236l.118.071c.355.213.366.284.366.98v5.339c0,.851-.012.98-.449,1.028l-.3.035a.206.206,0,0,0,.024.295c.378-.024.732-.035,1.158-.035s.756.012,1.11.035c.083-.035.106-.248.024-.295l-.248-.035c-.425-.059-.449-.177-.449-1.028v-1.984c0-.413.035-.473.248-.65a1.412,1.412,0,0,1,.921-.319c.756,0,1.122.508,1.122,1.264v1.689c0,.851-.011.957-.448,1.028l-.236.035a.206.206,0,0,0,.023.295c.319-.024.673-.035,1.1-.035s.756.012,1.181.035A.207.207,0,0,0,295.227,231.679Zm80.485-.178-.26-.035c-.425-.059-.449-.177-.449-1.028v-2.032a1.311,1.311,0,0,0-1.382-1.465,3.239,3.239,0,0,0-1.654.6.124.124,0,0,1-.13-.13c0-.106,0-.284.024-.555a.137.137,0,0,0-.13-.083,6.444,6.444,0,0,1-1.181.579.162.162,0,0,0-.012.213l.106.071c.319.213.319.272.319.732v2.067c0,.85-.012.969-.449,1.028l-.248.035a.207.207,0,0,0,.023.3c.331-.024.685-.035,1.111-.035s.756.012,1.075.035a.207.207,0,0,0,.024-.3l-.213-.035c-.425-.071-.449-.177-.449-1.028v-1.807a.994.994,0,0,1,.177-.709,1.287,1.287,0,0,1,1-.413,1.024,1.024,0,0,1,1.11,1.169v1.76c0,.85-.012.957-.449,1.028l-.224.035a.207.207,0,0,0,.024.3c.319-.024.673-.035,1.1-.035s.756.012,1.11.035A.207.207,0,0,0,375.712,231.5Zm-17.954-.815a1.274,1.274,0,0,1-1.087.579,2,2,0,0,1-1.961-2.209c0-.3.012-.319.319-.319h2.185c.5,0,.661-.012.7-.083a.725.725,0,0,0,.047-.307,1.548,1.548,0,0,0-1.677-1.406,2.48,2.48,0,0,0-2.374,2.67,2.507,2.507,0,0,0,.5,1.535,2.116,2.116,0,0,0,1.713.78,2.064,2.064,0,0,0,1.855-1.1A.156.156,0,0,0,357.758,230.687Zm-1.606-3.39c.685,0,.91.413.91.744,0,.154-.035.2-.071.224-.095.071-.354.118-1.228.118h-.839c-.083,0-.083-.035-.083-.059A1.386,1.386,0,0,1,356.152,227.3Zm6.284,3.39a1.274,1.274,0,0,1-1.087.579,2,2,0,0,1-1.961-2.209c0-.3.012-.319.319-.319h2.185c.5,0,.662-.012.7-.083a.725.725,0,0,0,.047-.307,1.548,1.548,0,0,0-1.678-1.406,2.48,2.48,0,0,0-2.374,2.67,2.506,2.506,0,0,0,.5,1.535,2.116,2.116,0,0,0,1.713.78,2.064,2.064,0,0,0,1.855-1.1A.156.156,0,0,0,362.436,230.687Zm-1.606-3.39c.685,0,.91.413.91.744,0,.154-.035.2-.071.224-.094.071-.354.118-1.229.118H359.6c-.083,0-.083-.035-.083-.059A1.386,1.386,0,0,1,360.829,227.3Zm5.386-.355a2.387,2.387,0,0,0-1.3.709c-.024-.012-.036-.047-.036-.106v-.685c0-.047-.035-.071-.094-.083a9.169,9.169,0,0,1-1.193.579.162.162,0,0,0-.012.213l.106.071c.319.213.319.272.319.732v2.067c0,.85-.012.957-.449,1.028l-.224.035a.207.207,0,0,0,.024.3c.307-.024.662-.035,1.087-.035s.756.012,1.311.035a.207.207,0,0,0,.024-.3l-.425-.035c-.449-.035-.473-.177-.473-1.028v-1.607a1.8,1.8,0,0,1,.154-.91.525.525,0,0,1,.425-.236.968.968,0,0,1,.52.189.455.455,0,0,0,.26.083.524.524,0,0,0,.508-.543A.49.49,0,0,0,366.215,226.942Zm-27.521,4.56-.26-.035c-.425-.059-.449-.177-.449-1.028v-2.032a1.311,1.311,0,0,0-1.382-1.465,3.239,3.239,0,0,0-1.654.6.124.124,0,0,1-.13-.13c0-.106,0-.284.023-.555a.137.137,0,0,0-.13-.083,6.437,6.437,0,0,1-1.181.579.162.162,0,0,0-.012.213l.106.071c.319.213.319.272.319.732v2.067c0,.85-.012.969-.449,1.028l-.248.035a.207.207,0,0,0,.023.3c.331-.024.685-.035,1.111-.035s.756.012,1.075.035a.207.207,0,0,0,.024-.3l-.213-.035c-.425-.071-.449-.177-.449-1.028v-1.807a1,1,0,0,1,.177-.709,1.288,1.288,0,0,1,1-.413,1.024,1.024,0,0,1,1.11,1.169v1.76c0,.85-.012.957-.449,1.028l-.224.035a.206.206,0,0,0,.024.3c.319-.024.673-.035,1.1-.035s.756.012,1.11.035A.207.207,0,0,0,338.694,231.5Zm30.8,0-.248-.035c-.425-.059-.449-.177-.449-1.028v-2.126c0-.484.023-1.051.047-1.465-.012-.048-.059-.071-.118-.071a8.123,8.123,0,0,1-1.217.579.162.162,0,0,0-.012.213l.106.071c.319.213.319.272.319.732v2.067c0,.85-.012.969-.449,1.028l-.248.035a.207.207,0,0,0,.023.3c.331-.024.685-.035,1.111-.035s.756.012,1.11.035A.207.207,0,0,0,369.5,231.5Zm-16.3,0-.26-.035c-.425-.059-.449-.177-.449-1.028v-2.032a1.311,1.311,0,0,0-1.382-1.465,3.239,3.239,0,0,0-1.654.6.124.124,0,0,1-.13-.13c0-.106,0-.284.023-.555a.137.137,0,0,0-.13-.083,6.442,6.442,0,0,1-1.181.579.162.162,0,0,0-.012.213l.106.071c.319.213.319.272.319.732v2.067c0,.85-.012.969-.449,1.028l-.248.035a.207.207,0,0,0,.023.3c.331-.024.685-.035,1.111-.035s.756.012,1.075.035a.207.207,0,0,0,.023-.3l-.213-.035c-.425-.071-.449-.177-.449-1.028v-1.807a.994.994,0,0,1,.177-.709,1.288,1.288,0,0,1,1-.413,1.024,1.024,0,0,1,1.11,1.169v1.76c0,.85-.012.957-.449,1.028l-.224.035a.206.206,0,0,0,.024.3c.319-.024.673-.035,1.1-.035s.756.012,1.11.035A.207.207,0,0,0,353.2,231.5Zm-8.941-4.135H343.3a1.41,1.41,0,0,1-.721-.189,2.959,2.959,0,0,0-1.134-.236,1.846,1.846,0,0,0-1.925,1.784,1.6,1.6,0,0,0,.886,1.429.459.459,0,0,1-.118.225,3.673,3.673,0,0,1-.626.544c-.13.094-.177.141-.177.2a1.1,1.1,0,0,0,.862.933c.106.071.012.177-.095.283-.272.272-.6.579-.8.792a.666.666,0,0,0-.13.437c0,.59.508,1.37,1.961,1.37,1.535,0,2.941-.945,2.941-2.232,0-1.182-.992-1.3-1.654-1.3-.52,0-1,.035-1.406.035-.555,0-.827-.224-.827-.5,0-.342.378-.567.52-.65.142.012.307.036.52.036a1.816,1.816,0,0,0,1.984-1.878,5.138,5.138,0,0,0-.024-.6h.85C344.364,227.828,344.388,227.426,344.258,227.367Zm-3.485,4.9a2.617,2.617,0,0,1,1.016-.13h.4c.85,0,1.346.307,1.346,1.028,0,.673-.7,1.264-1.748,1.264-1.075,0-1.583-.532-1.583-1.169A1.211,1.211,0,0,1,340.773,232.269Zm.779-2.28c-.567,0-1.075-.544-1.075-1.382,0-.8.425-1.323.992-1.323.721,0,1.051.673,1.051,1.477C342.521,229.482,342.191,229.99,341.553,229.99Zm3.614-5.422a.608.608,0,1,0,.638-.626A.611.611,0,0,0,345.167,224.568Zm1.819,6.934-.248-.035c-.425-.059-.449-.177-.449-1.028v-2.126c0-.484.023-1.051.047-1.465-.012-.048-.059-.071-.118-.071a8.121,8.121,0,0,1-1.217.579.162.162,0,0,0-.012.213l.106.071c.319.213.319.272.319.732v2.067c0,.85-.012.969-.449,1.028l-.248.035a.207.207,0,0,0,.024.3c.331-.024.685-.035,1.11-.035s.756.012,1.11.035A.207.207,0,0,0,346.986,231.5Z" transform="translate(-148.035 -194.846)" fill="#002575"/></svg>