<svg xmlns="http://www.w3.org/2000/svg" width="234.913" height="28.668" viewBox="0 0 234.913 28.668"><path d="M219.018,199.941c0-.08-.064-.112-.224-.112-.416,0-1.088.032-1.184.032-.08,0-.9-.032-1.52-.032-.16,0-.224.032-.224.112a.12.12,0,0,0,.112.112,4.578,4.578,0,0,1,.48.032c.464.064.544.32.56.752s.032.816.032,2.928v1.712a5.015,5.015,0,0,1-.8,3.3,2.889,2.889,0,0,1-2.176.96,2.742,2.742,0,0,1-2.1-.736c-.608-.544-1.04-1.36-1.04-3.328v-1.9c0-2.112,0-2.5.032-2.928.032-.448.112-.688.48-.752a1.652,1.652,0,0,1,.352-.032.137.137,0,0,0,.128-.112c0-.08-.08-.112-.24-.112-.416,0-1.3.032-1.424.032s-.976-.032-1.616-.032c-.16,0-.224.032-.224.112a.136.136,0,0,0,.112.112,4.581,4.581,0,0,1,.48.032c.464.064.544.32.576.752s.032.816.032,2.928v2c0,1.984.544,2.928,1.232,3.568a4.394,4.394,0,0,0,2.928.96,4.26,4.26,0,0,0,2.944-.992c1.12-.96,1.312-2.608,1.312-4.079v-1.456c0-2.112-.016-2.5.016-2.928.032-.448.112-.672.5-.752a1.649,1.649,0,0,1,.352-.032A.12.12,0,0,0,219.018,199.941Zm150.645,9.3.032-7.968c0-.816.032-1.088.5-1.184a1.6,1.6,0,0,1,.336-.032.159.159,0,0,0,.16-.128c0-.08-.113-.1-.256-.1-.576,0-1.04.032-1.2.032s-.832-.032-1.472-.032c-.16,0-.272.016-.272.1,0,.048.016.128.112.128a4.493,4.493,0,0,1,.688.064c.432.08.512.384.528,1.264l.144,6.816c-.432-.448-1.936-2.064-3.328-3.5-2.176-2.24-4.224-4.416-4.448-4.64-.144-.144-.384-.416-.544-.416-.112,0-.192.144-.192.688v7.792c0,1.232-.048,1.6-.4,1.7a2.218,2.218,0,0,1-.576.08.109.109,0,0,0-.112.112c0,.1.08.112.224.112.64,0,1.232-.048,1.36-.048s.688.048,1.488.048c.16,0,.256-.032.256-.112a.109.109,0,0,0-.112-.112,3.34,3.34,0,0,1-.7-.08c-.384-.1-.513-.432-.544-1.552l-.16-6.416c.432.48,2.016,2.144,3.648,3.856,1.488,1.552,3.52,3.552,3.664,3.68.784.72.928.832,1.072.832C369.646,210.213,369.663,210.133,369.663,209.237Zm-12.336.656a5.6,5.6,0,0,1-.639-.064c-.417-.064-.464-.32-.512-.72-.065-.56-.065-1.632-.065-2.944v-2.4c0-2.112,0-2.5.017-2.928.032-.48.112-.672.5-.752a1.576,1.576,0,0,1,.352-.032.136.136,0,0,0,.112-.112c0-.08-.064-.112-.224-.112-.432,0-1.344.032-1.408.032-.08,0-.96-.032-1.424-.032-.16,0-.224.032-.224.112a.12.12,0,0,0,.112.112,2.5,2.5,0,0,1,.432.048c.3.064.417.272.448.736.033.432.033.816.033,2.928v2.4c0,1.312-.017,2.384-.08,2.944-.048.4-.1.656-.368.72a1.986,1.986,0,0,1-.432.064.109.109,0,0,0-.112.112c0,.08.08.112.224.112.432,0,1.312-.048,1.392-.048.063,0,.976.048,1.76.048.16,0,.224-.048.224-.112A.109.109,0,0,0,357.327,209.893Zm-154.836.176c.416,0,.9.016,1.536.032.656.032,1.44.048,2.448.048.752,0,.8-.048.9-.368a8.6,8.6,0,0,0,.208-1.36c0-.144-.032-.208-.1-.208-.08,0-.128.08-.144.176a1.665,1.665,0,0,1-.336.768c-.336.4-.96.416-1.7.416-1.1,0-1.648-.1-1.872-.32-.256-.24-.288-1.056-.288-3.056v-2.432c0-2.112,0-2.5.016-2.928.032-.48.112-.688.528-.768.16-.016.368-.032.464-.032.048,0,.112-.048.112-.1,0-.08-.08-.112-.224-.112-.432,0-1.488.032-1.552.032-.08,0-.96-.032-1.6-.032-.16,0-.224.032-.224.112a.136.136,0,0,0,.112.112,4.57,4.57,0,0,1,.48.032c.464.064.544.288.576.752.032.432.032.816.032,2.928v2.4a27.84,27.84,0,0,1-.08,2.944c-.064.4-.1.656-.368.72a1.987,1.987,0,0,1-.432.064.109.109,0,0,0-.112.112c0,.08.08.112.224.112.224,0,.528-.016.816-.032C202.187,210.069,202.427,210.069,202.491,210.069Zm88.625.144c.1,0,.112-.08.112-.976l.032-7.968c0-.816.032-1.088.5-1.184a1.605,1.605,0,0,1,.336-.032.159.159,0,0,0,.16-.128c0-.08-.112-.1-.256-.1-.576,0-1.04.032-1.2.032s-.832-.032-1.472-.032c-.16,0-.272.016-.272.1a.112.112,0,0,0,.112.128,4.494,4.494,0,0,1,.688.064c.432.08.512.384.528,1.264l.144,6.816c-.432-.448-1.936-2.064-3.328-3.5-2.176-2.24-4.224-4.416-4.448-4.64-.144-.144-.384-.416-.544-.416-.112,0-.192.144-.192.688v7.792c0,1.232-.048,1.6-.4,1.7a2.212,2.212,0,0,1-.576.08.109.109,0,0,0-.112.112c0,.1.08.112.224.112.64,0,1.232-.048,1.36-.048s.688.048,1.488.048c.16,0,.256-.032.256-.112a.109.109,0,0,0-.112-.112,3.339,3.339,0,0,1-.7-.08c-.384-.1-.512-.432-.544-1.552l-.16-6.416c.432.48,2.016,2.144,3.648,3.856,1.488,1.552,3.52,3.552,3.664,3.68C290.828,210.1,290.972,210.213,291.116,210.213Zm-12.718-.464a15.6,15.6,0,0,0,.208-1.552c0-.112,0-.24-.1-.24-.08,0-.112.064-.144.24-.112.656-.3.976-.72,1.152a4.589,4.589,0,0,1-1.536.176c-1.568,0-1.808-.208-1.856-1.312-.016-.336,0-2.192,0-2.736v-1.408a.1.1,0,0,1,.112-.112c.272,0,1.856.032,2.289.08.624.064.768.336.832.56a1.635,1.635,0,0,1,.064.528c0,.08.032.144.112.144.112,0,.112-.176.112-.3,0-.112.032-.7.064-1.024.048-.528.128-.8.128-.9s-.032-.128-.08-.128c-.064,0-.128.08-.24.208-.144.16-.368.192-.752.224-.368.032-2.336.032-2.544.032-.08,0-.1-.048-.1-.16V198.8c0-.112.032-.16.1-.16.176,0,1.92.016,2.192.048.864.1,1.024.288,1.136.544a1.716,1.716,0,0,1,.1.576c0,.128.032.208.128.208.064,0,.1-.1.112-.176.032-.192.064-.9.08-1.056.048-.448.128-.64.128-.752,0-.08-.016-.144-.064-.144-.08,0-.144.064-.224.08a4.3,4.3,0,0,1-.688.08c-.369.016-3.552.016-3.664.016l-.656-.032c-.352-.016-.784-.016-1.152-.016-.176,0-.256.032-.256.128,0,.064.064.1.128.1a2.983,2.983,0,0,1,.544.048c.528.112.656.368.688.912.032.512.032.96.032,3.456v2.816c0,1.536,0,2.8-.08,3.472-.064.464-.144.816-.464.88a2.435,2.435,0,0,1-.48.064c-.1,0-.128.048-.128.1,0,.1.08.128.256.128.24,0,.608-.032.928-.032.336-.016.608-.016.64-.016.24,0,.624.016,1.248.048.624.016,1.5.048,2.7.048C278.158,210.165,278.286,210.165,278.4,209.749Zm-13.021,3.417h.307V194.846h-.307Zm75.042-4.889c-.08,0-.112.048-.144.208a1.032,1.032,0,0,1-.64.944,4.7,4.7,0,0,1-1.408.144c-1.392,0-1.648-.176-1.68-1.088-.017-.272,0-1.856,0-2.32v-1.136a.084.084,0,0,1,.1-.1c.24,0,1.744.016,2.128.064.544.064.672.224.72.416a1.2,1.2,0,0,1,.064.448c0,.08.032.128.1.128.1,0,.128-.144.128-.256,0-.1.032-.608.064-.88a7.359,7.359,0,0,1,.112-.752c0-.08-.032-.112-.08-.112s-.112.08-.208.176c-.144.144-.352.16-.688.192-.32.032-2.176.032-2.352.032-.08,0-.08-.048-.08-.144v-3.7c0-.1.016-.144.08-.144.16,0,1.792.016,2.032.048.768.1.912.193,1.008.416a1.5,1.5,0,0,1,.08.48c0,.112.032.176.112.176.064,0,.112-.08.128-.144.032-.16.064-.768.08-.9.032-.384.112-.544.112-.64,0-.064-.016-.128-.064-.128a.912.912,0,0,0-.192.064c-.112.016-.368.064-.64.08-.32.016-3.264,0-3.36,0-.08,0-.992-.032-1.632-.032-.16,0-.224.032-.224.112a.136.136,0,0,0,.112.112,4.579,4.579,0,0,1,.48.032c.464.064.544.288.576.752.032.432.032.816.032,2.928v2.4a27.75,27.75,0,0,1-.08,2.944c-.064.4-.1.672-.368.72a4.033,4.033,0,0,1-.432.064.109.109,0,0,0-.112.112c0,.08.08.112.224.112.224,0,.544-.016.816-.032.3-.016.576-.016.608-.016.208,0,.576,0,1.168.032.576.016,1.392.048,2.448.048.544,0,.688,0,.784-.352a11.237,11.237,0,0,0,.192-1.312C340.515,208.389,340.5,208.277,340.419,208.277Zm-106.6,1.84c.16,0,.288-.048.288-.128,0-.064-.048-.1-.112-.1a2.966,2.966,0,0,1-.912-.128c-.576-.192-.672-.928-.72-1.408L231.4,200c-.032-.256-.112-.368-.208-.368s-.16.1-.224.224l-4.1,8.432-4.256-8.448a.321.321,0,0,0-.288-.208c-.08,0-.144.1-.16.24l-1.024,8.88c-.064.512-.08,1.008-.544,1.088a2.727,2.727,0,0,1-.416.048c-.08,0-.144.048-.144.1,0,.1.1.128.24.128.384,0,1.056-.048,1.184-.048.112,0,.784.048,1.312.048.16,0,.256-.032.256-.128,0-.048-.064-.1-.112-.1a2.284,2.284,0,0,1-.544-.08.38.38,0,0,1-.336-.384c0-.224,0-.48.016-.688l.544-6.144h.064c.24.56,1.376,2.848,1.792,3.712.352.736,1.28,2.48,1.648,3.152.272.5.352.624.48.624s.208-.128.5-.72l3.392-6.944h.032l.672,6.879c.032.256.016.464-.064.481a.117.117,0,0,0-.1.112c0,.064.064.112.4.144C231.928,210.085,233.5,210.117,233.815,210.117Zm140.1-1.28a7.943,7.943,0,0,0,7.632.848c.176-.1.192-.112.192-.736v-1.52c0-.576,0-.976.016-1.408.032-.48.144-.688.528-.752a1.579,1.579,0,0,1,.352-.032.136.136,0,0,0,.112-.112c0-.1-.064-.112-.224-.112-.432,0-1.312.032-1.376.032-.08,0-1.024-.032-1.664-.032-.16,0-.224.016-.224.112a.136.136,0,0,0,.112.112,4.5,4.5,0,0,1,.48.032c.576.112.608.272.608,1.376V209c0,.256-.112.32-.288.416a3.537,3.537,0,0,1-1.52.256,5.028,5.028,0,0,1-3.6-1.424,5.414,5.414,0,0,1-1.488-3.76,4.234,4.234,0,0,1,1.392-3.424,4.469,4.469,0,0,1,2.944-.88c1.824,0,2.9.544,3.248,1.056a2.025,2.025,0,0,1,.32.9c0,.128.016.208.1.208.1,0,.16-.064.16-.288,0-1.36.08-1.728.08-1.92,0-.064-.032-.128-.176-.128a6.081,6.081,0,0,1-1.136-.144,11.756,11.756,0,0,0-2.16-.224,7.076,7.076,0,0,0-3.744.864,5.088,5.088,0,0,0-2.352,4.464A5.206,5.206,0,0,0,373.916,208.837Zm-128.889-8.784a2.509,2.509,0,0,1,.432.048c.3.064.416.272.448.736.032.432.032.816.032,2.928v2.4c0,1.312-.016,2.384-.08,2.944-.048.4-.1.656-.368.72a1.989,1.989,0,0,1-.432.064.109.109,0,0,0-.112.112c0,.08.08.112.224.112.432,0,1.312-.048,1.392-.048.064,0,.976.048,1.76.048.16,0,.224-.048.224-.112a.109.109,0,0,0-.112-.112,5.618,5.618,0,0,1-.64-.064c-.416-.064-.464-.32-.512-.72-.064-.56-.064-1.632-.064-2.944v-2.4c0-2.112,0-2.5.016-2.928.032-.48.112-.672.5-.752a1.58,1.58,0,0,1,.352-.032.136.136,0,0,0,.112-.112c0-.08-.064-.112-.224-.112-.432,0-1.344.032-1.408.032-.08,0-.96-.032-1.424-.032-.16,0-.224.032-.224.112A.12.12,0,0,0,245.027,200.053Zm15.263,9.952c0-.08-.1-.112-.176-.112a1.957,1.957,0,0,1-.56-.08c-.3-.1-.688-.272-1.2-1.488-.864-2.064-3.12-7.68-3.376-8.256-.144-.3-.192-.5-.336-.5-.1,0-.16.08-.336.528l-3.312,8.512c-.272.688-.544,1.168-1.184,1.248a4.066,4.066,0,0,1-.416.032.123.123,0,0,0-.128.112c0,.08.1.112.272.112.576,0,1.28-.048,1.424-.048.16,0,.928.048,1.264.048.128,0,.208-.032.208-.112,0-.064-.032-.112-.144-.112h-.128c-.24,0-.48-.1-.48-.368a2.814,2.814,0,0,1,.208-.912l.8-2.176a.148.148,0,0,1,.144-.112h3.248c.08,0,.1.016.128.08l1.264,3.12a.255.255,0,0,1-.128.368c-.064.032-.1.032-.1.1,0,.08.224.08.5.1.976.032,2.016.032,2.224.032C260.13,210.117,260.29,210.085,260.29,210.005Zm-4.416-4.24h-2.848c-.048,0-.064-.032-.048-.1l1.312-3.728q.12-.312.24,0l1.392,3.728C255.938,205.733,255.938,205.765,255.874,205.765Zm39.608,3.072a7.944,7.944,0,0,0,7.632.848c.176-.1.192-.112.192-.736v-1.52c0-.576,0-.976.016-1.408.032-.48.144-.688.528-.752a1.579,1.579,0,0,1,.352-.032.136.136,0,0,0,.112-.112c0-.1-.064-.112-.224-.112-.432,0-1.312.032-1.376.032-.08,0-1.024-.032-1.664-.032-.16,0-.224.016-.224.112a.136.136,0,0,0,.112.112,4.516,4.516,0,0,1,.48.032c.576.112.608.272.608,1.376V209c0,.256-.112.32-.288.416a3.537,3.537,0,0,1-1.52.256,5.027,5.027,0,0,1-3.6-1.424,5.414,5.414,0,0,1-1.488-3.76,4.234,4.234,0,0,1,1.392-3.424,4.471,4.471,0,0,1,2.944-.88c1.824,0,2.9.544,3.248,1.056a2.02,2.02,0,0,1,.32.9c0,.128.016.208.1.208.1,0,.16-.064.16-.288,0-1.36.08-1.728.08-1.92,0-.064-.032-.128-.176-.128a6.091,6.091,0,0,1-1.136-.144,11.749,11.749,0,0,0-2.16-.224,7.079,7.079,0,0,0-3.744.864,5.09,5.09,0,0,0-2.352,4.464A5.206,5.206,0,0,0,295.482,208.837Zm-52.565-1.712a3.236,3.236,0,0,0-2.48-2.832,3.218,3.218,0,0,0,1.424-2.384c0-.72-.608-2.08-2.96-2.08-.656,0-1.312.032-1.648.032-.08,0-.992-.032-1.632-.032-.16,0-.224.032-.224.112,0,.048.064.08.112.08a4.521,4.521,0,0,1,.48.032c.464.064.544.32.576.784.032.432.032.816.032,2.928v2.4a27.818,27.818,0,0,1-.08,2.944c-.064.4-.1.7-.368.753a4.139,4.139,0,0,1-.432.064c-.08,0-.112.032-.112.08,0,.08.08.112.224.112.224,0,.56-.016.848-.032.288,0,.544-.016.576-.016.064,0,.464.016.912.032.448.032.96.048,1.216.048C241.781,210.149,242.917,208.645,242.917,207.125Zm-5.1-6.656c0-.08.048-.112.176-.144a4.159,4.159,0,0,1,.72-.064,2,2,0,0,1,1.984,2.192,2.088,2.088,0,0,1-.544,1.456c-.288.32-.592.352-1.376.352a4.364,4.364,0,0,1-.864-.064c-.064-.016-.1-.048-.1-.144Zm1.728,9.2a3.362,3.362,0,0,1-1.232-.192c-.432-.208-.432-.368-.48-1.024-.016-.208-.016-1.84-.016-2.9V204.8c0-.064.032-.1.08-.1.224,0,.928,0,1.1.032a2.676,2.676,0,0,1,2.608,2.832A1.862,1.862,0,0,1,239.541,209.669Zm75.746.224a3.341,3.341,0,0,1-.7-.08c-.384-.1-.512-.432-.544-1.552l-.16-6.416c.432.48,2.016,2.144,3.648,3.856,1.488,1.552,3.52,3.552,3.664,3.68.784.72.928.832,1.072.832.1,0,.112-.08.112-.976l.032-7.968c0-.816.032-1.088.5-1.184a1.605,1.605,0,0,1,.336-.032.159.159,0,0,0,.16-.128c0-.08-.112-.1-.256-.1-.576,0-1.04.032-1.2.032s-.832-.032-1.472-.032c-.16,0-.272.016-.272.1a.111.111,0,0,0,.112.128,4.5,4.5,0,0,1,.688.064c.432.08.512.384.528,1.264l.144,6.816c-.432-.448-1.936-2.064-3.328-3.5-2.176-2.24-4.224-4.416-4.448-4.64-.144-.144-.384-.416-.544-.416-.112,0-.192.144-.192.688v7.792c0,1.232-.048,1.6-.4,1.7a2.21,2.21,0,0,1-.576.08.109.109,0,0,0-.112.112c0,.1.08.112.224.112.64,0,1.232-.048,1.36-.048s.688.048,1.488.048c.16,0,.256-.032.256-.112A.109.109,0,0,0,315.287,209.893Zm-5.359.224c.16,0,.224-.048.224-.112a.109.109,0,0,0-.112-.112,5.617,5.617,0,0,1-.64-.064c-.416-.064-.464-.32-.512-.72-.064-.56-.064-1.632-.064-2.944v-2.4c0-2.112,0-2.5.016-2.928.032-.48.112-.672.5-.752a1.578,1.578,0,0,1,.352-.032.136.136,0,0,0,.112-.112c0-.08-.064-.112-.224-.112-.432,0-1.344.032-1.408.032-.08,0-.96-.032-1.424-.032-.16,0-.224.032-.224.112a.12.12,0,0,0,.112.112,2.514,2.514,0,0,1,.432.048c.3.064.416.272.448.736.032.432.032.816.032,2.928v2.4c0,1.312-.016,2.384-.08,2.944-.048.4-.1.656-.368.72a1.989,1.989,0,0,1-.433.064.109.109,0,0,0-.112.112c0,.08.08.112.224.112.432,0,1.312-.048,1.392-.048C308.231,210.069,309.144,210.117,309.927,210.117Zm-111-5.376c0-3.168-2.4-5.1-5.568-5.1a5.386,5.386,0,0,0-5.584,5.312,5.217,5.217,0,0,0,5.5,5.344A5.449,5.449,0,0,0,198.925,204.741Zm-9.7-.16c0-2.96,1.7-4.432,4.048-4.432,2.224,0,4.208,1.712,4.208,4.976,0,3.936-2.544,4.608-3.808,4.608C191.133,209.733,189.229,207.749,189.229,204.581ZM331.509,209.8a11.248,11.248,0,0,0,.192-1.312c0-.1-.016-.208-.1-.208s-.112.048-.144.208a1.032,1.032,0,0,1-.64.944,4.7,4.7,0,0,1-1.408.144c-1.392,0-1.648-.176-1.68-1.088-.016-.272,0-1.856,0-2.32v-1.136a.084.084,0,0,1,.1-.1c.24,0,1.744.016,2.129.064.544.064.672.224.72.416a1.206,1.206,0,0,1,.064.448c0,.08.032.128.1.128.1,0,.128-.144.128-.256,0-.1.032-.608.064-.88a7.4,7.4,0,0,1,.112-.752c0-.08-.032-.112-.08-.112s-.112.08-.208.176c-.144.144-.352.16-.688.192-.32.032-2.176.032-2.352.032-.08,0-.08-.048-.08-.144v-3.7c0-.1.016-.144.08-.144.16,0,1.792.016,2.032.048.768.1.912.193,1.008.416a1.5,1.5,0,0,1,.08.48c0,.112.031.176.112.176.064,0,.112-.08.128-.144.032-.16.064-.768.08-.9.032-.384.112-.544.112-.64,0-.064-.016-.128-.064-.128a.917.917,0,0,0-.192.064c-.112.016-.368.064-.64.08-.32.016-3.264,0-3.36,0-.08,0-.992-.032-1.632-.032-.16,0-.224.032-.224.112a.136.136,0,0,0,.112.112,4.57,4.57,0,0,1,.48.032c.464.064.544.288.576.752.032.432.032.816.032,2.928v2.4a27.877,27.877,0,0,1-.08,2.944c-.064.4-.1.672-.368.72a4.022,4.022,0,0,1-.432.064.109.109,0,0,0-.112.112c0,.08.08.112.224.112.224,0,.544-.016.816-.032.3-.016.576-.016.608-.016.208,0,.576,0,1.168.032.576.016,1.392.048,2.448.048C331.269,210.149,331.412,210.149,331.509,209.8Zm-145.781-.288a16.612,16.612,0,0,0,.352-2.048c0-.128-.032-.24-.112-.24-.1,0-.128.064-.16.24a3.046,3.046,0,0,1-.592,1.344,3.682,3.682,0,0,1-2.784.8,5.778,5.778,0,0,1-5.776-5.856,5.354,5.354,0,0,1,1.44-4.176,4.882,4.882,0,0,1,3.68-1.168,5.328,5.328,0,0,1,3.2.912,2.215,2.215,0,0,1,.672,1.632c0,.224.016.336.128.336.1,0,.128-.1.144-.336s.016-1.12.048-1.648c.032-.576.08-.768.08-.9,0-.1-.032-.16-.208-.176a13.966,13.966,0,0,1-1.632-.24,13.706,13.706,0,0,0-2.32-.192,6.466,6.466,0,0,0-4.88,1.712,6.389,6.389,0,0,0-1.792,4.368,6.129,6.129,0,0,0,1.936,4.736,7.385,7.385,0,0,0,5.28,1.728,9.273,9.273,0,0,0,2.88-.368C185.6,209.845,185.631,209.813,185.727,209.509Zm163.17-1.664a7.193,7.193,0,0,0,1.92,2,2.838,2.838,0,0,0,1.5.272h.88c.256,0,.336-.032.336-.112a.124.124,0,0,0-.128-.112,2.658,2.658,0,0,1-2.064-.992c-.816-.848-1.792-2.08-2.944-3.52a3.974,3.974,0,0,0,1.728-3.1,2.386,2.386,0,0,0-.976-1.856,4.613,4.613,0,0,0-2.624-.592c-.432,0-1.616.032-1.76.032-.08,0-1.024-.032-1.664-.032-.16,0-.224.032-.224.112a.136.136,0,0,0,.112.112,4.574,4.574,0,0,1,.48.032c.464.064.544.288.576.752.032.432.032.816.032,2.928v2.4a27.877,27.877,0,0,1-.08,2.944c-.064.4-.1.656-.368.72a1.989,1.989,0,0,1-.432.064.109.109,0,0,0-.112.112c0,.08.08.112.224.112.432,0,1.376-.048,1.392-.048.064,0,.96.048,1.728.048.16,0,.224-.048.224-.112a.1.1,0,0,0-.112-.112,5.068,5.068,0,0,1-.624-.064c-.432-.064-.512-.32-.56-.72-.064-.56-.064-1.616-.064-2.928v-.32c0-.08.032-.112.1-.112l1.792.032a.215.215,0,0,1,.192.08C347.681,206.229,348.3,207.109,348.9,207.845Zm-1.952-2.544a4.771,4.771,0,0,1-1.552-.208.2.2,0,0,1-.1-.176v-4.368a.174.174,0,0,1,.112-.16,6.125,6.125,0,0,1,1.008-.08c1.5,0,2.432.976,2.432,2.672a2.427,2.427,0,0,1-.848,2.08A1.83,1.83,0,0,1,346.945,205.3Zm-41.427,11.211a.431.431,0,0,0,.025-.862.437.437,0,0,0-.456.448A.408.408,0,0,0,305.518,216.512ZM227.7,218.4h.955a.27.27,0,0,0-.009-.355h-.937c-.144,0-.152-.008-.152-.16v-.38c-.034-.059-.135-.059-.178-.042a2.1,2.1,0,0,1-.355.5,1.673,1.673,0,0,1-.54.262.14.14,0,0,0,.025.177h.236c.169,0,.177.017.177.245v1.934c0,.507.152.912.878.912a1.169,1.169,0,0,0,.887-.389c.017-.051-.017-.144-.084-.144-.025,0-.135.093-.211.118a.644.644,0,0,1-.228.042c-.558,0-.617-.448-.617-.938V218.6C227.548,218.421,227.556,218.4,227.7,218.4Zm3.024,2.787-.177-.025c-.3-.042-.321-.127-.321-.735V218.9c0-.346.017-.752.034-1.047-.008-.034-.042-.05-.084-.05a5.835,5.835,0,0,1-.87.414.115.115,0,0,0-.009.152l.076.051c.228.152.228.195.228.524v1.478c0,.608-.008.693-.321.735l-.177.025a.148.148,0,0,0,.017.211c.237-.017.49-.025.794-.025s.541.008.794.025A.148.148,0,0,0,230.723,221.183Zm-4.535-.178c-.025,0-.068.034-.11.059a.486.486,0,0,1-.211.051c-.329,0-.405-.346-.389-.735l.051-1.47c.025-.633-.27-.988-.878-.988s-1.571.6-1.571,1.039a.107.107,0,0,0,.118.118.909.909,0,0,0,.482-.16c.067-.051.076-.152.084-.287.017-.262.3-.38.541-.38.523,0,.625.422.617.735l-.009.389c-.008.127-.017.2-.143.245l-1.005.363c-.541.194-.7.389-.7.718a.792.792,0,0,0,.262.592.875.875,0,0,0,.591.194,1.252,1.252,0,0,0,.608-.211,1.3,1.3,0,0,1,.329-.169c.051,0,.1.068.135.118a.674.674,0,0,0,.549.262.886.886,0,0,0,.709-.372C226.247,221.056,226.222,221.005,226.188,221.005Zm-1.317-.507a.5.5,0,0,1-.11.4.956.956,0,0,1-.515.211.509.509,0,0,1-.532-.507c0-.329.245-.456.743-.625a1.6,1.6,0,0,1,.346-.085c.051,0,.084.017.084.11Zm-39.907.684-.228-.025c-.3-.034-.321-.127-.321-.735v-1.41a.985.985,0,0,0-1.089-1.089,1.918,1.918,0,0,0-1.14.439c-.025-.017-.034-.084-.034-.161v-1.773c0-.372.017-.794.025-1.048a.093.093,0,0,0-.085-.051,5.976,5.976,0,0,1-.912.355.128.128,0,0,0,0,.169l.084.051c.254.152.262.2.262.7v3.818c0,.608-.008.7-.321.735l-.211.025a.147.147,0,0,0,.017.211c.27-.017.524-.025.828-.025s.541.008.794.025c.059-.025.076-.177.017-.211l-.177-.025c-.3-.042-.321-.127-.321-.735V219c0-.3.025-.338.177-.464a1.01,1.01,0,0,1,.659-.228c.541,0,.8.363.8.9v1.208c0,.608-.008.684-.321.735l-.169.025a.148.148,0,0,0,.017.211c.228-.017.481-.025.785-.025s.541.008.845.025A.148.148,0,0,0,184.963,221.183Zm45.329-4.975a.408.408,0,0,0-.414-.431.437.437,0,0,0-.456.448.435.435,0,0,0,.87-.017Zm-49.746-.65c-.127.219-.2.236-.659.236h-3.421c-.389,0-.667.009-.718-.262a.21.21,0,0,0-.16,0,8.914,8.914,0,0,1-.321,1.258.163.163,0,0,0,.219.059,1.543,1.543,0,0,1,.38-.583,1.729,1.729,0,0,1,1.039-.211h.465c.253,0,.253.008.253.27V220.1c0,.887-.042,1.013-.524,1.056l-.3.025a.147.147,0,0,0,0,.211c.541-.017.836-.025,1.174-.025s.625.008,1.106.025c.051-.025.068-.177.017-.211l-.27-.025c-.49-.051-.507-.169-.507-1.056v-3.759c0-.279-.008-.287.245-.287h.6a1.683,1.683,0,0,1,.98.211c.127.093.186.405.211.617a.159.159,0,0,0,.22-.017,5.114,5.114,0,0,1,.127-1.284C180.681,215.549,180.588,215.541,180.546,215.558Zm18.252,5.5c-.237,0-.262-.254-.262-.921v-1.419c0-.312.008-.574.025-.735-.008-.034-.034-.051-.076-.059a3.379,3.379,0,0,1-.988.152.115.115,0,0,0-.009.186l.11.042c.254.1.313.118.313.667v1.385a.588.588,0,0,1-.169.49,1.1,1.1,0,0,1-.684.253c-.642,0-.785-.388-.785-.971v-1.411a6.348,6.348,0,0,1,.025-.735c-.009-.034-.034-.051-.085-.059a3,3,0,0,1-.9.152.125.125,0,0,0-.017.186l.1.042c.253.11.253.186.253.718v1.41c0,.684.279,1.056,1.022,1.056a2.21,2.21,0,0,0,1.166-.439c.051,0,.076.042.076.118v.346a.117.117,0,0,0,.1.059,4.395,4.395,0,0,1,1.106-.313c.068-.034.059-.2.008-.245A1.6,1.6,0,0,1,198.8,221.056Zm-48.249-3.789h16.869v-1.433H150.549Zm57.151.655a1.775,1.775,0,0,0-1.8,1.824,1.67,1.67,0,0,0,1.731,1.74,1.725,1.725,0,0,0,1.782-1.816A1.687,1.687,0,0,0,207.7,217.923Zm.017,3.311c-.743,0-1.09-.828-1.09-1.6,0-.929.414-1.461.971-1.461.8,0,1.09.912,1.09,1.63C208.689,220.456,208.461,221.233,207.717,221.233Zm-14.14-5.439h-1.554c-.338,0-.625-.008-.98-.025-.051.025-.068.177-.017.211l.135.017c.49.059.507.177.507,1.064V220.1c0,.887-.017,1-.507,1.056l-.211.025a.164.164,0,0,0,.017.211c.4-.017.684-.025,1.056-.025.338,0,.625.008,1.123.025.051-.025.068-.177.017-.211l-.287-.025c-.5-.042-.515-.169-.515-1.056v-1.174c0-.22.025-.228.279-.228h.574a2.875,2.875,0,0,1,.65.042.392.392,0,0,1,.27.321l.084.329c.059.051.186.051.22,0,0-.194-.034-.515-.034-.819s.034-.65.034-.853a.179.179,0,0,0-.22,0l-.076.338c-.051.22-.118.262-.211.3a3.185,3.185,0,0,1-.718.051h-.574c-.253,0-.279,0-.279-.228v-1.782c0-.321,0-.338.253-.338h.515a4.18,4.18,0,0,1,.819.051c.422.118.524.422.591.8a.152.152,0,0,0,.2-.025c-.017-.321-.025-.726-.025-1.115C194.608,215.794,194.118,215.794,193.578,215.794ZM151.391,202.12c.488-.246.956-.5,1.346-.71a17.831,17.831,0,0,0,3.1-1.818c.19-.17.443-.477.119-1.108l-.4-.783-.4-.786c-.318-.634-.715-.611-.964-.558a17.839,17.839,0,0,0-3.3,1.432c-.4.193-.882.419-1.368.668l-1.493,3.062h0Zm15.822,1.551c-2.384-.192-4.441,1.083-6.754,1.492-.185.033-.434-.361-.659-.586a1.811,1.811,0,0,0-.315-3.078,2.759,2.759,0,0,1-.005-1.051c.1-.084.893.067,1.005-.031a2.383,2.383,0,0,0,.018-1.139c-.072-.091-.965.007-1.015-.055s.024-.916-.059-.983a1.92,1.92,0,0,0-.891,0c-.084.067-.009.922-.059.983s-.943-.036-1.015.055a2.384,2.384,0,0,0,.018,1.139c.112.1.9-.054,1.005.031a2.763,2.763,0,0,1-.005,1.051,1.812,1.812,0,0,0-.315,3.078c-.225.225-.474.619-.658.586-2.313-.408-4.37-1.683-6.755-1.492a2.879,2.879,0,0,0-2.656,2.4c-.418,2.43,1.328,4.3,2.176,6.36a5.626,5.626,0,0,1,.46,2.278h16.5a5.609,5.609,0,0,1,.461-2.278c.847-2.062,2.593-3.93,2.175-6.36A2.879,2.879,0,0,0,167.213,203.671ZM158,211.447c-.214,1.219-.892,1.994-1.456,2a1.367,1.367,0,0,1-.936-.374c-.371-.325-.674-.86-.577-1.176.082-.106,1.082.047,1.154-.053a1.924,1.924,0,0,0-.235-.979c-.113-.1-1.016.034-1.137-.065s-.233-1.064-.357-1.124c0,0-.955-.143-1.024-.006s.323.942.255,1.079-1.332-.12-1.354.022a2.177,2.177,0,0,0,.194.957,6,6,0,0,0,1.3.112,1.193,1.193,0,0,1,.311.957c0,.494-.382.75-1,.578-1.143-.32-2.56-2.8-3.4-4.516-.617-1.262-.99-3.327.632-3.945a4.763,4.763,0,0,1,3.091.152,16.162,16.162,0,0,1,3.452,1.317c.213.132-.253.027.516,1.731A7.56,7.56,0,0,1,158,211.447Zm10.229-2.589c-.84,1.717-2.257,4.2-3.4,4.516-.613.172-1-.084-1-.578a1.2,1.2,0,0,1,.311-.957,6,6,0,0,0,1.3-.112,2.164,2.164,0,0,0,.193-.957c-.022-.142-1.287.116-1.354-.022s.325-.943.255-1.079-1.025.006-1.025.006c-.123.059-.236,1.025-.356,1.124s-1.024-.035-1.137.065a1.925,1.925,0,0,0-.236.979c.071.1,1.072-.053,1.155.053.1.316-.206.851-.577,1.176a1.367,1.367,0,0,1-.936.374c-.564,0-1.242-.779-1.456-2a7.568,7.568,0,0,1,.566-3.334c.77-1.7.3-1.6.516-1.731a16.137,16.137,0,0,1,3.452-1.317,4.76,4.76,0,0,1,3.09-.152C169.218,205.531,168.845,207.6,168.226,208.858ZM188.181,220.6a.91.91,0,0,1-.777.414,1.43,1.43,0,0,1-1.4-1.579c0-.211.008-.228.228-.228h1.563c.355,0,.473-.008.5-.059a.521.521,0,0,0,.034-.22,1.107,1.107,0,0,0-1.2-1,1.773,1.773,0,0,0-1.7,1.909,1.793,1.793,0,0,0,.355,1.1,1.514,1.514,0,0,0,1.225.558,1.476,1.476,0,0,0,1.326-.786A.112.112,0,0,0,188.181,220.6Zm-1.149-2.424c.49,0,.65.3.65.532,0,.11-.025.144-.051.161-.068.051-.253.084-.878.084h-.6c-.059,0-.059-.025-.059-.042A.991.991,0,0,1,187.032,218.176Zm26.546,2.88c-.237,0-.262-.254-.262-.921v-1.419c0-.312.008-.574.025-.735-.008-.034-.034-.051-.076-.059a3.38,3.38,0,0,1-.988.152.115.115,0,0,0-.008.186l.11.042c.253.1.312.118.312.667v1.385a.588.588,0,0,1-.169.49,1.1,1.1,0,0,1-.684.253c-.642,0-.785-.388-.785-.971v-1.411a6.358,6.358,0,0,1,.025-.735c-.009-.034-.034-.051-.085-.059a3,3,0,0,1-.9.152.125.125,0,0,0-.017.186l.1.042c.253.11.253.186.253.718v1.41c0,.684.279,1.056,1.022,1.056a2.21,2.21,0,0,0,1.166-.439c.051,0,.076.042.076.118v.346a.117.117,0,0,0,.1.059,4.393,4.393,0,0,1,1.106-.313c.068-.034.059-.2.008-.245A1.6,1.6,0,0,1,213.579,221.056Zm-63.367-23.408.384-.184c.4-.206.894-.46,1.409-.7a3.433,3.433,0,0,0-.218-.315.43.43,0,0,0-.6-.086l-.407.219-.409.215a.434.434,0,0,0-.266.547C150.122,197.4,150.164,197.522,150.212,197.648Zm68.045,23.535-.186-.025c-.3-.042-.321-.127-.321-.735V218.97a.937.937,0,0,0-.988-1.047,2.316,2.316,0,0,0-1.182.431.089.089,0,0,1-.093-.093c0-.076,0-.2.017-.4a.1.1,0,0,0-.093-.059,4.628,4.628,0,0,1-.845.414.115.115,0,0,0-.009.152l.076.051c.228.152.228.195.228.524v1.478c0,.608-.008.693-.321.735l-.177.025a.147.147,0,0,0,.017.211c.237-.017.49-.025.794-.025s.541.008.769.025a.147.147,0,0,0,.017-.211l-.152-.025c-.3-.051-.321-.127-.321-.735v-1.292a.712.712,0,0,1,.127-.507.921.921,0,0,1,.718-.3.732.732,0,0,1,.794.836v1.258c0,.608-.008.684-.321.735l-.161.025a.148.148,0,0,0,.017.211c.228-.017.481-.025.785-.025s.541.008.794.025A.147.147,0,0,0,218.258,221.183Zm-55.966-21.844a12.6,12.6,0,0,0,2.6,1.847,11.75,11.75,0,0,0,2.942,1.183c.216.057.567.081.876-.484l.789-1.443c.309-.564.1-.847-.065-1a11.749,11.749,0,0,0-2.585-1.837,12.571,12.571,0,0,0-2.961-1.194c-.217-.057-.568-.081-.876.483l-.789,1.443C161.917,198.9,162.127,199.187,162.292,199.339Zm3.323,2.709c-.329-.151-.637-.311-.923-.473s-.612-.344-.943-.56l-1.824,3.32c1-.3,1.966-.672,2.962-.909Zm-12.757,18.795a2.177,2.177,0,0,0-.231.628c-.016.151-.041.387.36.6l.5.266.5.269c.4.216.585.068.7-.035a2.25,2.25,0,0,0,.373-.513l2.3-4.356h-2.766Zm69.8.188a1.384,1.384,0,0,1-.363.084c-.237,0-.245-.313-.245-.98v-3.708c0-.372.017-.794.025-1.048a.093.093,0,0,0-.084-.051,5.976,5.976,0,0,1-.912.355.129.129,0,0,0,0,.169l.085.051c.253.152.262.2.262.7v1.275c0,.068-.008.118-.051.118a1.726,1.726,0,0,0-.566-.076,1.917,1.917,0,0,0-2.044,1.943,1.552,1.552,0,0,0,1.563,1.622,1.758,1.758,0,0,0,1.064-.389h.034a.936.936,0,0,1,.017.262v.143c0,.042.042.068.093.068a6.345,6.345,0,0,1,1.115-.27C222.725,221.259,222.717,221.048,222.658,221.031Zm-1.233-.5a.512.512,0,0,1-.059.313,1.034,1.034,0,0,1-.65.237,1.34,1.34,0,0,1-1.259-1.5c0-.735.4-1.4,1.166-1.4a.881.881,0,0,1,.709.355.494.494,0,0,1,.093.329Zm-17.069-4.738H202.8c-.338,0-.625-.008-.98-.025-.051.025-.068.177-.017.211l.135.017c.49.059.507.177.507,1.064V220.1c0,.887-.017,1-.507,1.056l-.211.025a.164.164,0,0,0,.017.211c.4-.017.684-.025,1.056-.025.338,0,.625.008,1.123.025.051-.025.068-.177.017-.211l-.287-.025c-.5-.042-.515-.169-.515-1.056v-1.174c0-.22.025-.228.279-.228h.574a2.876,2.876,0,0,1,.65.042.392.392,0,0,1,.27.321l.084.329c.059.051.186.051.22,0,0-.194-.034-.515-.034-.819s.034-.65.034-.853a.178.178,0,0,0-.22,0l-.076.338c-.051.22-.118.262-.211.3a3.186,3.186,0,0,1-.718.051h-.574c-.253,0-.279,0-.279-.228v-1.782c0-.321,0-.338.253-.338h.515a4.181,4.181,0,0,1,.819.051c.422.118.524.422.591.8a.152.152,0,0,0,.2-.025c-.017-.321-.025-.726-.025-1.115C205.385,215.794,204.9,215.794,204.355,215.794Zm-36.472-18.1c.056-.138.107-.272.127-.342a.434.434,0,0,0-.257-.552l-.406-.222-.4-.227a.429.429,0,0,0-.6.076,3.494,3.494,0,0,0-.227.317c.35.158.676.323.952.478C167.332,197.368,167.605,197.524,167.883,197.7Zm-15.061,4.15-.331.178.76,1.439c1,.253,1.968.629,2.969.921l-1.838-3.346C153.829,201.345,153.265,201.629,152.822,201.849Zm12.438,18.993-1.726-3.142h-2.767l2.3,4.356a2.277,2.277,0,0,0,.372.513c.111.1.3.25.7.035l.5-.269.5-.266c.4-.213.376-.449.36-.6A2.186,2.186,0,0,0,165.26,220.842Zm67.777-2.92a1.775,1.775,0,0,0-1.8,1.824,1.67,1.67,0,0,0,1.731,1.74,1.725,1.725,0,0,0,1.782-1.816A1.687,1.687,0,0,0,233.037,217.923Zm.017,3.311c-.743,0-1.09-.828-1.09-1.6,0-.929.414-1.461.971-1.461.8,0,1.09.912,1.09,1.63C234.025,220.456,233.8,221.233,233.054,221.233ZM338.921,217.8a2.685,2.685,0,0,0-1.182.4c-.059,0-.076-.051-.076-.11a3.89,3.89,0,0,1,.034-.389.1.1,0,0,0-.1-.059,5.132,5.132,0,0,1-.836.456.116.116,0,0,0-.009.152l.076.051c.228.152.228.194.228.523v3.632c0,.608-.009.692-.321.735l-.177.025a.148.148,0,0,0,.017.211c.237-.017.49-.025.794-.025s.54.008.946.025a.148.148,0,0,0,.017-.211l-.329-.042c-.3-.042-.321-.118-.321-.718v-.887c0-.177.042-.22.118-.237a3.208,3.208,0,0,0,.465.034,1.968,1.968,0,0,0,2.061-2.018A1.43,1.43,0,0,0,338.921,217.8Zm-.38,3.286a1.111,1.111,0,0,1-.608-.186.544.544,0,0,1-.253-.507v-1.453c0-.279.025-.405.1-.5a1.038,1.038,0,0,1,.718-.237,1.223,1.223,0,0,1,1.14,1.36C339.639,220.439,339.233,221.081,338.541,221.081ZM343.2,217.8a2.688,2.688,0,0,0-1.183.4c-.059,0-.076-.051-.076-.11a3.879,3.879,0,0,1,.034-.389.1.1,0,0,0-.1-.059,5.142,5.142,0,0,1-.836.456.116.116,0,0,0-.009.152l.076.051c.228.152.228.194.228.523v3.632c0,.608-.009.692-.321.735l-.177.025a.148.148,0,0,0,.017.211c.236-.017.489-.025.794-.025s.541.008.946.025a.148.148,0,0,0,.017-.211l-.329-.042c-.3-.042-.321-.118-.321-.718v-.887c0-.177.042-.22.118-.237a3.2,3.2,0,0,0,.465.034,1.967,1.967,0,0,0,2.061-2.018A1.43,1.43,0,0,0,343.2,217.8Zm-.38,3.286a1.112,1.112,0,0,1-.608-.186.544.544,0,0,1-.253-.507v-1.453a.752.752,0,0,1,.1-.5,1.038,1.038,0,0,1,.718-.237,1.223,1.223,0,0,1,1.14,1.36C343.921,220.439,343.515,221.081,342.823,221.081ZM314.808,218.1h-.684a1.008,1.008,0,0,1-.515-.135,2.116,2.116,0,0,0-.811-.169,1.32,1.32,0,0,0-1.377,1.276,1.146,1.146,0,0,0,.633,1.022.327.327,0,0,1-.085.161,2.624,2.624,0,0,1-.447.389c-.093.067-.127.1-.127.143a.785.785,0,0,0,.617.667c.076.051.008.127-.068.2-.194.194-.431.414-.574.566a.475.475,0,0,0-.093.313c0,.422.363.98,1.4.98,1.1,0,2.1-.676,2.1-1.6,0-.845-.709-.929-1.182-.929-.372,0-.718.025-1.005.025-.4,0-.591-.16-.591-.355,0-.245.27-.405.372-.465.1.009.22.025.372.025a1.3,1.3,0,0,0,1.419-1.343,3.666,3.666,0,0,0-.017-.431h.608C314.884,218.429,314.9,218.142,314.808,218.1Zm-2.491,3.505a1.872,1.872,0,0,1,.726-.093h.287c.608,0,.963.22.963.735,0,.481-.5.9-1.25.9-.769,0-1.132-.38-1.132-.836A.866.866,0,0,1,312.317,221.6Zm.557-1.63c-.405,0-.769-.389-.769-.988,0-.574.3-.946.71-.946.515,0,.752.481.752,1.056C313.567,219.612,313.33,219.975,312.874,219.975Zm34.762-3.877a.435.435,0,1,0,.456-.448A.437.437,0,0,0,347.636,216.1Zm1.3,4.958-.178-.025c-.3-.042-.321-.127-.321-.735v-1.52c0-.346.017-.752.034-1.047-.008-.034-.042-.051-.084-.051a5.809,5.809,0,0,1-.87.414.115.115,0,0,0-.008.152l.076.051c.228.152.228.194.228.523V220.3c0,.608-.009.693-.321.735l-.177.025a.148.148,0,0,0,.017.211c.237-.017.49-.025.794-.025s.541.008.794.025A.148.148,0,0,0,348.937,221.056Zm3.268-.583a.911.911,0,0,1-.777.414,1.43,1.43,0,0,1-1.4-1.579c0-.211.008-.228.228-.228h1.562c.355,0,.473-.008.5-.059a.519.519,0,0,0,.034-.219,1.107,1.107,0,0,0-1.2-1.005,1.773,1.773,0,0,0-1.7,1.909,1.792,1.792,0,0,0,.355,1.1,1.513,1.513,0,0,0,1.225.558,1.476,1.476,0,0,0,1.326-.785A.111.111,0,0,0,352.205,220.473Zm-1.149-2.424c.49,0,.65.3.65.532,0,.11-.025.143-.051.16-.068.051-.253.085-.878.085h-.6c-.059,0-.059-.025-.059-.042A.991.991,0,0,1,351.057,218.049Zm-26.5,3.007-.186-.025c-.3-.042-.321-.127-.321-.735v-1.453a.937.937,0,0,0-.988-1.047,2.317,2.317,0,0,0-1.183.431.089.089,0,0,1-.093-.093c0-.076,0-.2.017-.4a.1.1,0,0,0-.093-.059,4.618,4.618,0,0,1-.845.414.116.116,0,0,0-.009.152l.076.051c.228.152.228.194.228.523V220.3c0,.608-.009.693-.321.735l-.177.025a.148.148,0,0,0,.017.211c.237-.017.49-.025.794-.025s.54.008.769.025a.148.148,0,0,0,.017-.211l-.152-.025c-.3-.051-.321-.127-.321-.735V219a.711.711,0,0,1,.127-.507.921.921,0,0,1,.718-.3.732.732,0,0,1,.794.836V220.3c0,.608-.008.684-.321.735l-.161.025a.148.148,0,0,0,.017.211c.228-.017.482-.025.786-.025s.541.008.794.025A.148.148,0,0,0,324.555,221.056Zm12.01,0-.228-.025c-.363-.042-.473-.169-.718-.9l-1.157-3.4c-.127-.371-.262-.76-.372-1.132a.12.12,0,0,0-.127-.076.95.95,0,0,1-.439.321,1.212,1.212,0,0,1-.144.6l-.861,2.28c-.355.946-.591,1.495-.743,1.884a.561.561,0,0,1-.507.414l-.279.025a.166.166,0,0,0,.017.211c.228-.008.532-.025.811-.025.4.008.659.008.878.025a.136.136,0,0,0,.017-.211l-.279-.025c-.2-.017-.245-.067-.245-.169a3.233,3.233,0,0,1,.186-.7l.3-.887c.059-.177.11-.2.321-.2h1.275c.254,0,.287.025.346.211l.372,1.149a1.733,1.733,0,0,1,.11.447c0,.085-.118.135-.3.152l-.245.025a.142.142,0,0,0,.017.211c.245-.008.566-.025.971-.025.38,0,.676.008,1.022.025A.165.165,0,0,0,336.564,221.056Zm-2.407-2.323h-1.039c-.237,0-.245-.008-.177-.2l.532-1.47a5.078,5.078,0,0,1,.2-.5h.017a5.476,5.476,0,0,1,.194.532l.456,1.376C334.419,218.7,334.4,218.733,334.157,218.733Zm-13.817,2.145c-.025,0-.068.034-.11.059a.482.482,0,0,1-.211.051c-.329,0-.405-.346-.389-.735l.051-1.47c.025-.633-.27-.988-.878-.988s-1.571.6-1.571,1.039a.107.107,0,0,0,.118.118.908.908,0,0,0,.482-.16c.068-.051.076-.152.084-.287.017-.262.3-.38.541-.38.524,0,.625.422.617.735l-.009.388c-.008.127-.017.2-.143.245l-1.005.363c-.541.195-.7.389-.7.718a.79.79,0,0,0,.262.591.873.873,0,0,0,.591.194,1.249,1.249,0,0,0,.608-.211,1.3,1.3,0,0,1,.33-.169c.051,0,.1.068.135.118a.674.674,0,0,0,.549.262.887.887,0,0,0,.709-.371C320.4,220.929,320.374,220.878,320.34,220.878Zm-1.318-.506a.5.5,0,0,1-.11.4.954.954,0,0,1-.515.211.509.509,0,0,1-.532-.507c0-.33.245-.456.743-.625a1.611,1.611,0,0,1,.346-.084c.051,0,.085.017.085.11Zm9.932.532a1.379,1.379,0,0,1-.363.085c-.236,0-.245-.313-.245-.98V216.3c0-.372.017-.794.025-1.047a.093.093,0,0,0-.085-.05,6.045,6.045,0,0,1-.912.355.128.128,0,0,0,0,.169l.085.051c.253.152.262.2.262.7v1.275c0,.067-.008.118-.051.118a1.734,1.734,0,0,0-.566-.076,1.917,1.917,0,0,0-2.044,1.943,1.552,1.552,0,0,0,1.562,1.622,1.759,1.759,0,0,0,1.064-.388h.034a.935.935,0,0,1,.017.262v.143c0,.042.042.067.093.067a6.352,6.352,0,0,1,1.115-.27C329.022,221.132,329.014,220.921,328.955,220.9Zm-1.233-.5a.513.513,0,0,1-.059.313,1.033,1.033,0,0,1-.65.236,1.339,1.339,0,0,1-1.259-1.495c0-.735.4-1.4,1.166-1.4a.881.881,0,0,1,.709.355.5.5,0,0,1,.093.329Zm19.07.65-.2-.025c-.3-.042-.321-.127-.321-.735v-4c0-.372.017-.794.025-1.047a.093.093,0,0,0-.085-.05,6.038,6.038,0,0,1-.912.355.128.128,0,0,0,0,.169l.085.051c.253.152.262.2.262.7V220.3c0,.608-.008.693-.321.735l-.194.025a.148.148,0,0,0,.017.211c.254-.017.507-.025.811-.025s.541.008.819.025A.148.148,0,0,0,346.792,221.056Zm24.847-.583a.911.911,0,0,1-.777.414,1.43,1.43,0,0,1-1.4-1.579c0-.211.008-.228.228-.228h1.562c.355,0,.473-.008.5-.059a.524.524,0,0,0,.034-.219,1.107,1.107,0,0,0-1.2-1.005,1.773,1.773,0,0,0-1.7,1.909,1.792,1.792,0,0,0,.355,1.1,1.513,1.513,0,0,0,1.225.558,1.476,1.476,0,0,0,1.326-.785A.111.111,0,0,0,371.639,220.473Zm-1.149-2.424c.49,0,.65.3.65.532,0,.11-.025.143-.051.16-.067.051-.253.085-.878.085h-.6c-.059,0-.059-.025-.059-.042A.991.991,0,0,1,370.49,218.049Zm5.667,3.007-.186-.025c-.3-.042-.321-.127-.321-.735v-1.453a.937.937,0,0,0-.988-1.047,2.316,2.316,0,0,0-1.183.431.088.088,0,0,1-.093-.093c0-.076,0-.2.017-.4a.1.1,0,0,0-.093-.059,4.6,4.6,0,0,1-.845.414.116.116,0,0,0-.009.152l.076.051c.228.152.228.194.228.523V220.3c0,.608-.009.693-.321.735l-.177.025a.148.148,0,0,0,.017.211c.237-.017.49-.025.794-.025s.541.008.768.025a.148.148,0,0,0,.017-.211l-.152-.025c-.3-.051-.321-.127-.321-.735V219a.712.712,0,0,1,.126-.507.922.922,0,0,1,.718-.3.732.732,0,0,1,.794.836V220.3c0,.608-.008.684-.321.735l-.16.025a.148.148,0,0,0,.017.211c.228-.017.481-.025.785-.025s.541.008.794.025A.148.148,0,0,0,376.157,221.056ZM356.69,220.9a1.377,1.377,0,0,1-.363.085c-.237,0-.245-.313-.245-.98V216.3c0-.372.017-.794.025-1.047a.093.093,0,0,0-.084-.05,6.041,6.041,0,0,1-.912.355.129.129,0,0,0,0,.169l.085.051c.253.152.262.2.262.7v1.275c0,.067-.008.118-.051.118a1.733,1.733,0,0,0-.566-.076,1.917,1.917,0,0,0-2.044,1.943,1.552,1.552,0,0,0,1.563,1.622,1.759,1.759,0,0,0,1.064-.388h.034a.933.933,0,0,1,.017.262v.143c0,.042.042.067.093.067a6.353,6.353,0,0,1,1.115-.27C356.758,221.132,356.749,220.921,356.69,220.9Zm-1.233-.5a.512.512,0,0,1-.059.313,1.033,1.033,0,0,1-.65.236,1.34,1.34,0,0,1-1.259-1.495c0-.735.4-1.4,1.166-1.4a.881.881,0,0,1,.709.355.5.5,0,0,1,.093.329Zm27.338.068a.91.91,0,0,1-.777.414,1.43,1.43,0,0,1-1.4-1.579c0-.211.008-.228.228-.228h1.563c.355,0,.473-.008.5-.059a.524.524,0,0,0,.034-.219,1.107,1.107,0,0,0-1.2-1.005A1.91,1.91,0,0,0,380.4,220.8a1.513,1.513,0,0,0,1.225.558,1.476,1.476,0,0,0,1.326-.785A.111.111,0,0,0,382.8,220.473Zm-1.148-2.424c.49,0,.65.3.65.532,0,.11-.025.143-.051.16-.068.051-.253.085-.878.085h-.6c-.059,0-.059-.025-.059-.042A.991.991,0,0,1,381.647,218.049Zm-2.069,2.331a1.03,1.03,0,0,1-.938.507,1.388,1.388,0,0,1-1.36-1.444,1.219,1.219,0,0,1,1.166-1.36,1.151,1.151,0,0,1,.845.448.148.148,0,0,0,.118.059c.1,0,.185-.16.185-.313a.479.479,0,0,0-.126-.338,2.112,2.112,0,0,0-.752-.144,1.879,1.879,0,0,0-2.044,1.884,1.681,1.681,0,0,0,.49,1.25,1.635,1.635,0,0,0,1.157.431,1.539,1.539,0,0,0,1.411-.862A.133.133,0,0,0,379.578,220.38Zm-18.032-2.188-.676-.422a1.343,1.343,0,0,1-.718-1.039.885.885,0,0,1,1-.938,1.107,1.107,0,0,1,1.149.955c.042.051.177.025.211-.025a3.691,3.691,0,0,0-.152-1.03,1.665,1.665,0,0,1-.3-.051,2.888,2.888,0,0,0-.785-.11,1.519,1.519,0,0,0-1.723,1.452,1.8,1.8,0,0,0,.912,1.453l.8.524a1.269,1.269,0,0,1,.693,1.182.959.959,0,0,1-1.056.971,1.537,1.537,0,0,1-1.453-1.259c-.034-.05-.16-.034-.2.026a3.9,3.9,0,0,0,.228,1.182,2.633,2.633,0,0,0,1.318.313,1.594,1.594,0,0,0,1.8-1.563A1.9,1.9,0,0,0,361.546,218.193Zm4.7,2.188a1.031,1.031,0,0,1-.938.507,1.388,1.388,0,0,1-1.36-1.444,1.219,1.219,0,0,1,1.165-1.36,1.152,1.152,0,0,1,.845.448.148.148,0,0,0,.118.059c.1,0,.186-.16.186-.313a.48.48,0,0,0-.127-.338,2.113,2.113,0,0,0-.752-.144,1.879,1.879,0,0,0-2.044,1.884,1.681,1.681,0,0,0,.49,1.25,1.637,1.637,0,0,0,1.157.431,1.538,1.538,0,0,0,1.411-.862A.133.133,0,0,0,366.251,220.38Zm2.12.676-.178-.025c-.3-.042-.321-.127-.321-.735v-1.52c0-.346.017-.752.034-1.047-.008-.034-.042-.051-.084-.051a5.808,5.808,0,0,1-.87.414.115.115,0,0,0-.008.152l.076.051c.228.152.228.194.228.523V220.3c0,.608-.009.693-.321.735l-.177.025a.148.148,0,0,0,.017.211c.237-.017.49-.025.794-.025s.541.008.794.025A.148.148,0,0,0,368.371,221.056Zm-.431-4.975a.408.408,0,0,0-.414-.431.437.437,0,0,0-.456.448.435.435,0,0,0,.87-.017Zm-108.291,1.841a1.775,1.775,0,0,0-1.8,1.824,1.67,1.67,0,0,0,1.731,1.74,1.725,1.725,0,0,0,1.782-1.816A1.687,1.687,0,0,0,259.649,217.923Zm.017,3.311c-.743,0-1.09-.828-1.09-1.6,0-.929.414-1.461.971-1.461.8,0,1.09.912,1.09,1.63C260.638,220.456,260.409,221.233,259.666,221.233Zm3.885-.05-.2-.025c-.3-.042-.321-.127-.321-.735v-3.995c0-.372.017-.794.025-1.048a.093.093,0,0,0-.085-.051,5.985,5.985,0,0,1-.912.355.128.128,0,0,0,0,.169l.084.051c.253.152.262.2.262.7v3.818c0,.608-.008.693-.321.735l-.195.025a.148.148,0,0,0,.017.211c.253-.017.507-.025.811-.025s.541.008.819.025A.147.147,0,0,0,263.551,221.183Zm4.4-3.26a1.775,1.775,0,0,0-1.8,1.824,1.67,1.67,0,0,0,1.732,1.74,1.725,1.725,0,0,0,1.782-1.816A1.687,1.687,0,0,0,267.952,217.923Zm.017,3.311c-.743,0-1.09-.828-1.09-1.6,0-.929.414-1.461.971-1.461.8,0,1.09.912,1.09,1.63C268.94,220.456,268.712,221.233,267.968,221.233Zm-28.7-.05-.186-.025c-.3-.042-.321-.127-.321-.735V218.97a.937.937,0,0,0-.988-1.047,2.315,2.315,0,0,0-1.182.431.089.089,0,0,1-.093-.093c0-.076,0-.2.017-.4a.1.1,0,0,0-.093-.059,4.634,4.634,0,0,1-.845.414.116.116,0,0,0-.008.152l.076.051c.228.152.228.195.228.524v1.478c0,.608-.008.693-.321.735l-.177.025a.147.147,0,0,0,.017.211c.237-.017.49-.025.794-.025s.54.008.768.025a.148.148,0,0,0,.017-.211l-.152-.025c-.3-.051-.321-.127-.321-.735v-1.292a.712.712,0,0,1,.127-.507.921.921,0,0,1,.718-.3.732.732,0,0,1,.794.836v1.258c0,.608-.009.684-.321.735l-.161.025a.147.147,0,0,0,.017.211c.228-.017.481-.025.785-.025s.54.008.794.025A.148.148,0,0,0,239.27,221.183Zm33.276-5.853a1.661,1.661,0,0,0-1.52,1.073,3.785,3.785,0,0,0-.262,1.487.192.192,0,0,1-.126.169l-.363.177a.118.118,0,0,0,.025.16h.3c.169,0,.169.017.169.245v1.782c0,.608-.008.693-.321.735l-.194.025a.148.148,0,0,0,.017.211c.254-.017.507-.025.811-.025s.541.008.921.025a.147.147,0,0,0,.017-.211l-.3-.025c-.3-.025-.321-.127-.321-.735V218.64c0-.228,0-.245.144-.245h.9a.26.26,0,0,0,.059-.355h-.963c-.144,0-.144-.008-.144-.236v-.245a4.477,4.477,0,0,1,.186-1.427.651.651,0,0,1,.6-.464.942.942,0,0,1,.676.371.241.241,0,0,0,.2.1.323.323,0,0,0,.321-.3C273.373,215.532,272.994,215.33,272.546,215.33Zm-28.318,2.99-.676-.422a1.342,1.342,0,0,1-.718-1.039.885.885,0,0,1,1-.938,1.107,1.107,0,0,1,1.149.954c.042.051.178.025.211-.025a3.692,3.692,0,0,0-.152-1.03,1.661,1.661,0,0,1-.3-.051,2.9,2.9,0,0,0-.785-.11,1.519,1.519,0,0,0-1.723,1.453,1.8,1.8,0,0,0,.912,1.453l.8.524a1.269,1.269,0,0,1,.692,1.183.959.959,0,0,1-1.056.971,1.537,1.537,0,0,1-1.453-1.258c-.033-.051-.16-.034-.2.025a3.9,3.9,0,0,0,.228,1.182,2.637,2.637,0,0,0,1.318.312,1.594,1.594,0,0,0,1.8-1.562A1.9,1.9,0,0,0,244.228,218.32Zm35.665,1.714a2.121,2.121,0,0,1-.6.819,2.474,2.474,0,0,1-1.081.127c-.743,0-.921-.093-1.022-.194-.135-.143-.16-.431-.16-.878v-1.191c0-.22.025-.228.279-.228h.49a2.81,2.81,0,0,1,.65.042.361.361,0,0,1,.262.321l.076.329a.166.166,0,0,0,.22-.008c0-.186-.034-.507-.034-.811,0-.321.034-.65.034-.853a.167.167,0,0,0-.22-.008l-.068.346c-.042.211-.1.262-.2.3a3.122,3.122,0,0,1-.718.051h-.49c-.253,0-.279,0-.279-.237v-1.689c0-.321,0-.338.253-.338h.608a4.037,4.037,0,0,1,.819.051c.439.11.515.405.642.8a.166.166,0,0,0,.211-.017,9.452,9.452,0,0,0-.135-1.123,11.31,11.31,0,0,1-1.14.025H276.7c-.346,0-.633-.009-1-.025-.051.025-.068.177-.017.211l.135.017c.5.059.515.186.515,1.064v3.04c0,.887-.042,1.014-.524,1.056l-.279.025a.164.164,0,0,0,.017.211c.5-.017.786-.025,1.149-.025h.76c.752,0,1.5.008,2.263.025a7.349,7.349,0,0,0,.38-1.174A.155.155,0,0,0,279.893,220.034Zm-30.961.473a1.03,1.03,0,0,1-.937.507,1.388,1.388,0,0,1-1.36-1.444,1.219,1.219,0,0,1,1.166-1.36,1.152,1.152,0,0,1,.845.448.147.147,0,0,0,.118.059c.1,0,.186-.16.186-.312a.479.479,0,0,0-.126-.338,2.105,2.105,0,0,0-.752-.144,1.879,1.879,0,0,0-2.044,1.884,1.683,1.683,0,0,0,.49,1.25,1.638,1.638,0,0,0,1.157.431,1.539,1.539,0,0,0,1.41-.862A.133.133,0,0,0,248.932,220.507Zm6.613-2.585a1.775,1.775,0,0,0-1.8,1.824,1.67,1.67,0,0,0,1.731,1.74,1.725,1.725,0,0,0,1.782-1.816A1.687,1.687,0,0,0,255.545,217.923Zm.017,3.311c-.743,0-1.09-.828-1.09-1.6,0-.929.414-1.461.972-1.461.8,0,1.089.912,1.089,1.63C256.533,220.456,256.305,221.233,255.562,221.233Zm-2.28-.05-.228-.025c-.3-.034-.321-.127-.321-.735v-1.41a.985.985,0,0,0-1.089-1.089,1.919,1.919,0,0,0-1.141.439c-.025-.017-.034-.084-.034-.161v-1.773c0-.372.017-.794.025-1.048a.093.093,0,0,0-.084-.051,5.976,5.976,0,0,1-.912.355.129.129,0,0,0,0,.169l.084.051c.254.152.262.2.262.7v3.818c0,.608-.008.7-.321.735l-.211.025a.148.148,0,0,0,.017.211c.27-.017.524-.025.828-.025s.54.008.794.025c.059-.025.076-.177.017-.211l-.178-.025c-.3-.042-.321-.127-.321-.735V219c0-.3.025-.338.178-.464a1.01,1.01,0,0,1,.659-.228c.54,0,.8.363.8.9v1.208c0,.608-.008.684-.321.735l-.169.025a.147.147,0,0,0,.017.211c.228-.017.482-.025.786-.025s.54.008.845.025A.148.148,0,0,0,253.281,221.183Zm57.549-.127-.186-.025c-.3-.042-.321-.127-.321-.735v-1.453a.937.937,0,0,0-.988-1.047,2.316,2.316,0,0,0-1.182.431.089.089,0,0,1-.093-.093c0-.076,0-.2.017-.4a.1.1,0,0,0-.093-.059,4.607,4.607,0,0,1-.845.414.116.116,0,0,0-.009.152l.076.051c.228.152.228.194.228.523V220.3c0,.608-.009.693-.321.735l-.177.025a.148.148,0,0,0,.017.211c.237-.017.49-.025.794-.025s.54.008.769.025a.148.148,0,0,0,.017-.211l-.152-.025c-.3-.051-.321-.127-.321-.735V219a.711.711,0,0,1,.127-.507.921.921,0,0,1,.718-.3.732.732,0,0,1,.794.836V220.3c0,.608-.008.684-.321.735l-.16.025a.148.148,0,0,0,.017.211c.228-.017.481-.025.786-.025s.541.008.794.025A.148.148,0,0,0,310.83,221.056Zm-12.837-.583a.911.911,0,0,1-.777.414,1.43,1.43,0,0,1-1.4-1.579c0-.211.008-.228.228-.228H297.6c.355,0,.473-.008.5-.059a.518.518,0,0,0,.034-.219,1.107,1.107,0,0,0-1.2-1.005,1.773,1.773,0,0,0-1.7,1.909,1.793,1.793,0,0,0,.355,1.1,1.513,1.513,0,0,0,1.225.558,1.476,1.476,0,0,0,1.326-.785A.111.111,0,0,0,297.993,220.473Zm-1.149-2.424c.49,0,.65.3.65.532,0,.11-.025.143-.051.16-.068.051-.253.085-.878.085h-.6c-.059,0-.059-.025-.059-.042A.991.991,0,0,1,296.844,218.049Zm4.493,2.424a.911.911,0,0,1-.777.414,1.43,1.43,0,0,1-1.4-1.579c0-.211.008-.228.228-.228h1.562c.355,0,.473-.008.5-.059a.518.518,0,0,0,.034-.219,1.107,1.107,0,0,0-1.2-1.005,1.773,1.773,0,0,0-1.7,1.909,1.792,1.792,0,0,0,.355,1.1,1.513,1.513,0,0,0,1.225.558,1.476,1.476,0,0,0,1.326-.785A.111.111,0,0,0,301.337,220.473Zm-1.149-2.424c.49,0,.65.3.65.532,0,.11-.025.143-.051.16-.068.051-.253.085-.878.085h-.6c-.059,0-.059-.025-.059-.042A.991.991,0,0,1,300.189,218.049Zm3.851-.254a1.707,1.707,0,0,0-.929.507c-.017-.008-.025-.034-.025-.076v-.49c0-.034-.025-.051-.067-.059a6.555,6.555,0,0,1-.853.414.116.116,0,0,0-.008.152l.076.051c.228.152.228.194.228.523V220.3c0,.608-.009.684-.321.735l-.16.025a.148.148,0,0,0,.017.211c.22-.017.473-.025.777-.025s.541.008.937.025a.148.148,0,0,0,.017-.211l-.3-.025c-.321-.025-.338-.127-.338-.735v-1.149a1.285,1.285,0,0,1,.11-.65.375.375,0,0,1,.3-.169.692.692,0,0,1,.372.135.325.325,0,0,0,.186.059.375.375,0,0,0,.363-.388A.35.35,0,0,0,304.04,217.8Zm-19.678,3.26-.186-.025c-.3-.042-.321-.127-.321-.735v-1.453a.937.937,0,0,0-.988-1.047,2.316,2.316,0,0,0-1.182.431.088.088,0,0,1-.093-.093c0-.076,0-.2.017-.4a.1.1,0,0,0-.093-.059,4.6,4.6,0,0,1-.844.414.116.116,0,0,0-.008.152l.076.051c.228.152.228.194.228.523V220.3c0,.608-.008.693-.321.735l-.177.025a.148.148,0,0,0,.017.211c.236-.017.49-.025.794-.025s.541.008.768.025a.148.148,0,0,0,.017-.211l-.152-.025c-.3-.051-.321-.127-.321-.735V219a.711.711,0,0,1,.127-.507.921.921,0,0,1,.718-.3.732.732,0,0,1,.794.836V220.3c0,.608-.008.684-.321.735l-.16.025a.148.148,0,0,0,.017.211c.228-.017.481-.025.785-.025s.541.008.794.025A.148.148,0,0,0,284.362,221.056Zm22.026,0-.177-.025c-.3-.042-.321-.127-.321-.735v-1.52c0-.346.017-.752.034-1.047-.008-.034-.042-.051-.085-.051a5.806,5.806,0,0,1-.87.414.116.116,0,0,0-.009.152l.076.051c.228.152.228.194.228.523V220.3c0,.608-.008.693-.321.735l-.177.025a.148.148,0,0,0,.017.211c.237-.017.49-.025.794-.025s.541.008.794.025A.148.148,0,0,0,306.388,221.056Zm-11.655,0-.186-.025c-.3-.042-.321-.127-.321-.735v-1.453a.937.937,0,0,0-.988-1.047,2.316,2.316,0,0,0-1.182.431.088.088,0,0,1-.093-.093c0-.076,0-.2.017-.4a.1.1,0,0,0-.093-.059,4.606,4.606,0,0,1-.845.414.116.116,0,0,0-.008.152l.076.051c.228.152.228.194.228.523V220.3c0,.608-.009.693-.321.735l-.177.025a.148.148,0,0,0,.017.211c.237-.017.49-.025.794-.025s.541.008.769.025a.148.148,0,0,0,.017-.211l-.152-.025c-.3-.051-.321-.127-.321-.735V219a.711.711,0,0,1,.127-.507.921.921,0,0,1,.718-.3.732.732,0,0,1,.794.836V220.3c0,.608-.008.684-.321.735l-.16.025a.148.148,0,0,0,.017.211c.228-.017.481-.025.785-.025s.541.008.794.025A.148.148,0,0,0,294.733,221.056ZM288.34,218.1h-.684a1.008,1.008,0,0,1-.515-.135,2.116,2.116,0,0,0-.811-.169,1.32,1.32,0,0,0-1.377,1.276,1.146,1.146,0,0,0,.633,1.022.328.328,0,0,1-.085.161,2.627,2.627,0,0,1-.448.389c-.093.067-.127.1-.127.143a.785.785,0,0,0,.617.667c.076.051.008.127-.068.2-.194.194-.431.414-.574.566a.476.476,0,0,0-.093.313c0,.422.363.98,1.4.98,1.1,0,2.1-.676,2.1-1.6,0-.845-.709-.929-1.182-.929-.372,0-.718.025-1.005.025-.4,0-.591-.16-.591-.355,0-.245.27-.405.372-.465.1.009.22.025.372.025a1.3,1.3,0,0,0,1.419-1.343,3.679,3.679,0,0,0-.017-.431h.608C288.416,218.429,288.433,218.142,288.34,218.1Zm-2.492,3.505a1.871,1.871,0,0,1,.726-.093h.287c.608,0,.963.22.963.735,0,.481-.5.9-1.25.9-.768,0-1.132-.38-1.132-.836A.866.866,0,0,1,285.848,221.6Zm.557-1.63c-.405,0-.769-.389-.769-.988,0-.574.3-.946.71-.946.515,0,.752.481.752,1.056C287.1,219.612,286.862,219.975,286.406,219.975Zm2.584-3.877a.435.435,0,1,0,.456-.448A.437.437,0,0,0,288.99,216.1Zm1.3,4.958-.177-.025c-.3-.042-.321-.127-.321-.735v-1.52c0-.346.017-.752.034-1.047-.008-.034-.042-.051-.084-.051a5.8,5.8,0,0,1-.87.414.116.116,0,0,0-.008.152l.076.051c.228.152.228.194.228.523V220.3c0,.608-.008.693-.321.735l-.177.025a.148.148,0,0,0,.017.211c.237-.017.49-.025.794-.025s.541.008.794.025A.148.148,0,0,0,290.291,221.056Z" transform="translate(-148.035 -194.846)" fill="#fff"/></svg>