<svg xmlns="http://www.w3.org/2000/svg" width="48.67mm" height="6.33mm" viewBox="0 0 137.95 17.95"><defs><style>.cls-1{fill:#fff;}</style></defs><title>emeritus-short-v-logo</title><g id="Layer_2" data-name="Layer 2"><g id="Layer_1-2" data-name="Layer 1"><path class="cls-1" d="M.81.39c.65,0,1.49.1,2.28.1,1.43,0,5.11,0,6.19,0s1.38,0,1.65,0c.11,0,.22.16.27.43s.09,1.3.19,1.84c0,.16,0,.41-.1.41S11.12,3,11,2.69C10.53,1.55,10,1.14,9.53,1S5.33.93,4.47,1C4.25,1,4.14,1,4.14,2v6.2c0,.32.08.43.16.43H7.71c1.25,0,1.57-.05,1.82-.19a2.33,2.33,0,0,0,.7-1c.08-.19.16-.3.27-.3s.14.14.14.3-.11,1-.17,1.44a8.17,8.17,0,0,0,.06,1.51c.08.38-.11.54-.17.54s-.13-.13-.32-.57c-.08-.24-.27-.75-.68-.86a28,28,0,0,0-5-.16c-.19,0-.22,0-.22.51,0,1.38.08,5.17.08,5.68a1.49,1.49,0,0,0,.71,1.22A6.36,6.36,0,0,0,7.6,17c2.28,0,2.76-.05,3.31-.54a13.32,13.32,0,0,0,1-1.3c.27-.35.38-.46.49-.46s.13.19,0,.49c-.16.62-.46,1.76-.59,2.06a.51.51,0,0,1-.43.32c-2.87,0-5.93-.11-8.12-.11-.92,0-2.44.14-2.74.14S0,17.52,0,17.41s.19-.16.49-.25C1.41,17,2,16.68,2,15.46c.13-4.3.13-7.28.13-12.58C2.11,1.33,1.79,1,.81.79.54.74.41.66.41.55S.6.39.81.39Z"/><path class="cls-1" d="M17.54.36c.62,0,2.27.13,3.14.13.1,0,.24.11.35.38C22.19,3.44,26,11,27.71,14.21c.08.17.14.06.25-.1C29.55,11.05,33,4.36,33.64,3A21.91,21.91,0,0,0,34.45.85c0-.06.14-.36.27-.36.76,0,2.2-.16,3-.16.27,0,.44.06.44.16s-.22.22-.41.25C36.1,1.12,36,1.41,35.91,3c0,.92-.08,4.17-.08,5.52,0,3,.11,5.63.16,6.5.11,1.57.41,1.81,1.47,2.13.24.09.43.17.43.3s-.16.16-.49.16c-.51,0-2-.16-2.7-.16-1.11,0-1.84.06-2.25.06s-.57,0-.57-.22.27-.22.54-.24c1.14-.3,1.33-.73,1.41-3,.08-1.46.08-8.71.08-9.93,0-.27-.08-.27-.13-.11-1.82,3.63-5.15,10.12-6.45,13-.13.32-.24.48-.4.48s-.33-.43-.57-.94c-1.27-2.74-4.87-10.26-5.9-12.37-.14-.22-.19-.22-.24.13-.11,1.57-.41,8.61-.41,9.72a7,7,0,0,0,.16,2,1.61,1.61,0,0,0,1.38,1.08c.3.05.46.16.46.27s-.24.21-.54.19S20,17.46,19,17.46s-1.71.16-2,.16-.48-.05-.48-.18.1-.19.48-.28a2,2,0,0,0,1.46-.86,7.53,7.53,0,0,0,.57-2.92c.17-1.6.54-7.61.54-9.34S19.43,2,19,1.5A2.48,2.48,0,0,0,17.48.76c-.24-.05-.43-.13-.43-.24S17.29.36,17.54.36Z"/><path class="cls-1" d="M43.17.39c.65,0,1.49.1,2.27.1,1.44,0,5.12,0,6.2,0s1.38,0,1.65,0c.11,0,.22.16.27.43s.08,1.3.19,1.84c0,.16,0,.41-.11.41s-.16-.09-.3-.38c-.46-1.14-1-1.55-1.46-1.65S47.69.93,46.82,1C46.61,1,46.5,1,46.5,2v6.2c0,.32.08.43.16.43h3.41c1.25,0,1.57-.05,1.81-.19a2.33,2.33,0,0,0,.71-1c.08-.19.16-.3.27-.3s.13.14.13.3-.11,1-.16,1.44a9.38,9.38,0,0,0,.05,1.51c.09.38-.1.54-.16.54s-.13-.13-.32-.57c-.08-.24-.27-.75-.68-.86a28.13,28.13,0,0,0-5-.16c-.18,0-.21,0-.21.51,0,1.38.08,5.17.08,5.68a1.51,1.51,0,0,0,.7,1.22A6.45,6.45,0,0,0,50,17c2.28,0,2.76-.05,3.3-.54a13.33,13.33,0,0,0,1-1.3c.27-.35.38-.46.48-.46s.14.19,0,.49c-.16.62-.46,1.76-.59,2.06a.53.53,0,0,1-.44.32c-2.86,0-5.92-.11-8.12-.11-.92,0-2.43.14-2.73.14s-.51-.08-.51-.19.19-.16.48-.25a1.48,1.48,0,0,0,1.49-1.7c.14-4.3.14-7.28.14-12.58,0-1.55-.33-1.87-1.3-2.09-.27-.05-.41-.13-.41-.24S43,.39,43.17.39Z"/><path class="cls-1" d="M68.64,1.31a3.87,3.87,0,0,1,1.67,3.24,3.48,3.48,0,0,1-1.54,3,5.21,5.21,0,0,1-1.54.84c-.11.06-.08.22,0,.49.51,1,2,3.55,2.92,4.82a18.22,18.22,0,0,0,2,2.46,3,3,0,0,0,2,1.06c.19,0,.36.08.36.16s-.11.16-.3.21a3.69,3.69,0,0,1-1.25.14A4.76,4.76,0,0,1,69,15.6c-1.19-1.57-3.16-4.88-3.7-5.72-.36-.46-.63-.7-1-.75a3.71,3.71,0,0,0-1.14-.08.35.35,0,0,0-.24.27c0,.32,0,3.46,0,4.49a9.33,9.33,0,0,0,.22,2.57c.08.32.3.62,1.25.78.29.06.4.14.4.25s-.22.19-.51.19c-.49,0-1.3-.14-2.3-.14s-1.95.14-2.47.14c-.27,0-.46-.06-.46-.19s.17-.19.52-.25c.89-.18,1.16-.43,1.24-1.54.08-1.54.14-3.71.14-7.09,0-3.76-.11-5.46-.16-6.38C60.76,1.39,60.73,1,59.6.79c-.25-.05-.46-.11-.46-.24s.16-.16.49-.16,1.16.08,2.11.08C62.87.47,63.6.33,65,.33A5.87,5.87,0,0,1,68.64,1.31ZM63.14,1S63,1,63,1.5s0,6.17,0,6.63.11.46.21.46a2.64,2.64,0,0,0,.65.05A7.87,7.87,0,0,0,66.66,8a3.72,3.72,0,0,0,1.52-3,4.22,4.22,0,0,0-1.09-3.12A4.11,4.11,0,0,0,64,.79,1.73,1.73,0,0,0,63.14,1Z"/><path class="cls-1" d="M78.81.39c.9,0,1.49.1,2.3.1s1.74-.1,2.33-.1c.24,0,.41,0,.41.13s-.11.22-.41.24c-1.08.17-1.14.57-1.19,1.68-.08,1.36,0,4.5,0,6.17,0,4,0,6.25.1,7.07.09,1,.25,1.21,1,1.4.38.08.46.17.46.3s-.19.16-.51.16-1.11-.08-1.9-.08c-1.35,0-2.13.14-2.65.14-.24,0-.43-.06-.43-.19s.13-.16.59-.27c1-.22,1.17-.65,1.2-2.28s0-9,0-10.31A21.06,21.06,0,0,0,80,2c-.1-.9-.37-1-1.29-1.22-.19-.06-.3-.14-.3-.22S78.57.39,78.81.39Z"/><path class="cls-1" d="M100,.47a4.56,4.56,0,0,0,2.22-.3c.11-.08.19-.11.22-.05a.62.62,0,0,1,0,.35,8.22,8.22,0,0,0-.08,2.05c0,.41-.14.6-.22.6s-.19-.24-.22-.38a2.49,2.49,0,0,0-.48-1.27c-.25-.22-.6-.33-2.49-.33-.84,0-2.2,0-2.63.06-.13,0-.16.24-.16.43,0,1-.06,7.31-.06,8.44,0,1.52.09,4.88.17,5.71s.38,1.11,1.3,1.38c.32.09.46.14.46.28s-.19.18-.55.18c-.62,0-1.46-.16-2.54-.16-1.38,0-2.19.16-2.62.16s-.49-.1-.49-.24.24-.19.54-.24c1.3-.19,1.46-.62,1.54-1.87.19-2.62.19-13.4.14-13.77s-.11-.33-.19-.33a16,16,0,0,0-2-.08,19.6,19.6,0,0,0-2.3.11c-.52.11-.87.43-1.25,1.49-.13.32-.27.46-.38.46s-.1-.22-.08-.41A15.05,15.05,0,0,0,88.21.41c0-.21,0-.35.16-.4s.13,0,.21.11a1.56,1.56,0,0,0,.87.27c.43,0,3.11.1,5.9.1Z"/><path class="cls-1" d="M112,.41c.29,0,.43.08.43.17s-.22.21-.43.27c-1.39.21-1.33,1.13-1.33,2.4-.06,2.58-.06,6.23,0,7.58a6.61,6.61,0,0,0,1.46,4.52A5.31,5.31,0,0,0,116,16.84c3,0,5.06-1.57,5.25-6.9,0-1,.08-2.27.08-3.17,0-5.14-.22-5.49-1-5.76a3.62,3.62,0,0,0-.7-.16c-.22,0-.41-.17-.41-.25s.14-.19.44-.19c.56,0,1,.08,1.86.08.6,0,1.3-.08,2-.08.3,0,.49.06.49.14s-.14.21-.57.3c-1.08.19-1.14.73-1.22,1.94-.1,1.66-.1,5.28-.24,7-.16,2.44-.43,4.76-2,6.41a6.51,6.51,0,0,1-4.76,1.76,7.15,7.15,0,0,1-4.22-1.24c-1.65-1.3-2.25-2.9-2.35-6.2-.06-2.06,0-6.31-.11-7.9-.11-1.36-.17-1.52-1.28-1.82-.13-.05-.32-.13-.32-.27s.24-.1.49-.1c.65,0,1.43.1,2.41.1C110.59.49,111.37.41,112,.41Z"/><path class="cls-1" d="M137.14.49a.37.37,0,0,1,.19.3c0,.73.08,1.52.11,1.82s0,.54-.14.54-.19-.14-.24-.44a2.69,2.69,0,0,0-1-1.59,3.86,3.86,0,0,0-2.19-.71,3.28,3.28,0,0,0-3.17,3.33,3.84,3.84,0,0,0,1.92,3.14c1.06.7,1.92,1.33,2.79,2a5.13,5.13,0,0,1,2.57,4.3c0,3-2.84,4.82-5.66,4.82a9.1,9.1,0,0,1-3.68-.76.85.85,0,0,1-.46-.73,16.51,16.51,0,0,1-.27-2c0-.3,0-.52.14-.52s.19.16.3.54a3.88,3.88,0,0,0,4,3,3.52,3.52,0,0,0,3.58-3.52c0-1.84-1.3-2.86-3.25-4.16s-3.74-2.87-3.74-5.2a4.24,4.24,0,0,1,1.74-3.49A5.67,5.67,0,0,1,134.11,0,12.16,12.16,0,0,1,137.14.49Z"/></g></g></svg>