<svg xmlns="http://www.w3.org/2000/svg" viewBox="0 0 160.356 46.374"><defs><style>.a{fill:#efefef;}</style></defs><g transform="translate(-816 -5220)"><g transform="translate(816 5220)"><g transform="translate(0)"><g transform="translate(53.72 11.813)"><path class="a" d="M141.012,31.9c.5,0,1.148.077,1.76.077,1.11,0,3.941-.038,4.783-.038.765,0,1.071-.038,1.263-.038.077,0,.153.115.191.344s.077.995.153,1.416c.038.115,0,.306-.077.306s-.115-.077-.23-.306c-.344-.88-.765-1.186-1.148-1.263-.5-.077-3.252-.077-3.9-.077-.153.038-.268.077-.268.8v4.783c0,.268.077.344.115.344h2.64c.957,0,1.224-.038,1.416-.153a1.642,1.642,0,0,0,.536-.8c.077-.153.115-.23.191-.23s.115.115.115.23-.077.765-.115,1.11a10.079,10.079,0,0,0,.038,1.186c.077.306-.077.421-.115.421-.077,0-.115-.115-.268-.421-.077-.191-.191-.574-.536-.689a21.6,21.6,0,0,0-3.864-.115c-.153,0-.153.038-.153.383,0,1.071.077,3.979.077,4.4a1.191,1.191,0,0,0,.536.957,5.077,5.077,0,0,0,2.066.191c1.76,0,2.143-.038,2.564-.421.191-.191.536-.727.765-.995.191-.268.306-.344.383-.344s.115.153.038.383a12.5,12.5,0,0,1-.459,1.607.408.408,0,0,1-.344.268c-2.219,0-4.591-.077-6.275-.077-.727,0-1.875.115-2.1.115-.268,0-.383-.077-.383-.153s.153-.115.383-.191c.727-.115,1.148-.383,1.148-1.3.115-3.329.115-5.625.115-9.719,0-1.186-.268-1.454-.995-1.607-.191-.038-.306-.115-.306-.191C140.706,31.938,140.859,31.9,141.012,31.9Z" transform="translate(-140.4 -31.507)"/><path class="a" d="M174.565,31.8c.5.038,1.76.115,2.411.115.077,0,.191.077.268.306.918,1.99,3.864,7.844,5.165,10.331.077.115.115.038.191-.077,1.224-2.372,3.9-7.538,4.4-8.571a15.538,15.538,0,0,0,.612-1.684c.038-.038.115-.268.191-.268.574,0,1.684-.115,2.3-.115.191,0,.344.038.344.115s-.153.153-.306.191c-1.224.306-1.3.536-1.377,1.76-.038.727-.077,3.214-.077,4.285,0,2.3.077,4.362.115,5.012.077,1.224.306,1.416,1.148,1.645.191.077.344.115.344.23,0,.077-.115.115-.383.115-.383,0-1.531-.115-2.1-.115-.842,0-1.416.038-1.722.038-.191,0-.421-.038-.421-.153,0-.077.191-.153.421-.191.88-.23,1.033-.574,1.071-2.3.077-1.148.077-6.734.077-7.691,0-.191-.077-.191-.115-.077-1.416,2.793-3.979,7.844-4.974,10.063-.115.268-.191.383-.306.383s-.268-.344-.421-.727c-.995-2.1-3.75-7.92-4.553-9.566-.115-.153-.153-.153-.191.115-.077,1.224-.306,6.658-.306,7.5a5.771,5.771,0,0,0,.115,1.53,1.251,1.251,0,0,0,1.071.842c.23.038.344.115.344.191,0,.115-.191.153-.421.153a14.065,14.065,0,0,0-1.76-.115c-.765,0-1.3.115-1.53.115-.268,0-.383-.038-.383-.153,0-.077.077-.153.383-.191a1.5,1.5,0,0,0,1.148-.689,6.207,6.207,0,0,0,.421-2.257c.115-1.224.421-5.892.421-7.232,0-1.263-.115-1.53-.5-1.951a2.044,2.044,0,0,0-1.148-.574c-.191-.038-.344-.115-.344-.191C174.221,31.838,174.374,31.8,174.565,31.8Z" transform="translate(-161.02 -31.445)"/><path class="a" d="M226.612,31.9c.5,0,1.148.077,1.76.077,1.11,0,3.941-.038,4.783-.038.765,0,1.071-.038,1.263-.038.077,0,.153.115.191.344s.077.995.153,1.416c.038.115,0,.306-.077.306s-.115-.077-.23-.306c-.344-.88-.765-1.186-1.148-1.263-.5-.077-3.252-.077-3.9-.077-.153.038-.268.077-.268.8v4.783c0,.268.077.344.115.344h2.64c.957,0,1.224-.038,1.416-.153a1.642,1.642,0,0,0,.536-.8c.077-.153.115-.23.191-.23s.115.115.115.23-.077.765-.115,1.11a10.084,10.084,0,0,0,.038,1.186c.077.306-.077.421-.115.421-.077,0-.115-.115-.268-.421-.077-.191-.191-.574-.536-.689a21.6,21.6,0,0,0-3.864-.115c-.153,0-.153.038-.153.383,0,1.071.077,3.979.077,4.4a1.191,1.191,0,0,0,.536.957,5.077,5.077,0,0,0,2.066.191c1.76,0,2.143-.038,2.564-.421.191-.191.536-.727.765-.995.191-.268.306-.344.383-.344s.115.153.038.383a12.5,12.5,0,0,1-.459,1.607.408.408,0,0,1-.344.268c-2.219,0-4.591-.077-6.275-.077-.727,0-1.875.115-2.1.115-.268,0-.383-.077-.383-.153s.153-.115.383-.191c.727-.115,1.148-.383,1.148-1.3.115-3.329.115-5.625.115-9.719,0-1.186-.268-1.454-.995-1.607-.191-.038-.306-.115-.306-.191C226.306,31.938,226.459,31.9,226.612,31.9Z" transform="translate(-193.248 -31.507)"/><path class="a" d="M267.185,32.521a2.942,2.942,0,0,1,1.3,2.525A2.674,2.674,0,0,1,267.3,37.38a3.659,3.659,0,0,1-1.186.65c-.077.038-.077.153.038.383a42.06,42.06,0,0,0,2.257,3.711,14.271,14.271,0,0,0,1.53,1.913,2.181,2.181,0,0,0,1.569.8c.153,0,.268.077.268.115s-.077.115-.23.153a3.089,3.089,0,0,1-.957.115,3.63,3.63,0,0,1-3.061-1.684c-.918-1.224-2.449-3.75-2.87-4.4a1.267,1.267,0,0,0-.765-.574,4.043,4.043,0,0,0-.88-.077.461.461,0,0,0-.191.191c-.038.268-.038,2.678-.038,3.482a8.023,8.023,0,0,0,.153,1.99c.077.268.23.5.957.612.23.038.306.115.306.191s-.153.153-.383.153c-.383,0-.995-.115-1.76-.115s-1.492.115-1.913.115c-.191,0-.344-.038-.344-.153,0-.077.115-.153.383-.191.689-.153.918-.344.957-1.186.077-1.186.115-2.87.115-5.471,0-2.908-.077-4.209-.115-4.936-.038-.574-.077-.918-.957-1.033-.191-.038-.344-.077-.344-.191,0-.077.115-.115.383-.115.306,0,.918.077,1.645.077.88,0,1.454-.115,2.525-.115A4.333,4.333,0,0,1,267.185,32.521Zm-4.247-.23c-.038.038-.115.038-.115.383-.038.383-.038,4.783-.038,5.127,0,.268.077.344.153.344a2.021,2.021,0,0,0,.5.038,6.215,6.215,0,0,0,2.219-.459,2.923,2.923,0,0,0,1.186-2.372A3.285,3.285,0,0,0,266,32.942a3.216,3.216,0,0,0-2.372-.842A1.348,1.348,0,0,0,262.938,32.292Z" transform="translate(-214.115 -31.439)"/><path class="a" d="M299.021,31.9c.689,0,1.148.077,1.76.077.689,0,1.339-.077,1.8-.077.191,0,.306.038.306.115s-.077.153-.306.191c-.842.115-.88.421-.918,1.3-.077,1.033-.038,3.482-.038,4.783,0,3.061.038,4.821.077,5.471.077.8.191.957.8,1.071.306.077.344.115.344.23s-.153.115-.383.115c-.344,0-.842-.077-1.454-.077-1.033,0-1.645.115-2.066.115-.191,0-.344-.038-.344-.153,0-.077.115-.115.459-.191.765-.153.918-.5.918-1.76.038-1.224.038-7,.038-7.959a20.016,20.016,0,0,0-.077-2.028c-.077-.689-.306-.765-.995-.957-.153-.038-.23-.115-.23-.153S298.83,31.9,299.021,31.9Z" transform="translate(-238.069 -31.507)"/><path class="a" d="M327.374,31.3a3.448,3.448,0,0,0,1.722-.23c.077-.077.153-.077.153-.038a.492.492,0,0,1,.038.268,8.406,8.406,0,0,0-.077,1.607c0,.306-.115.459-.153.459-.077,0-.153-.191-.153-.306a1.817,1.817,0,0,0-.383-.995c-.191-.153-.459-.268-1.913-.268-.65,0-1.684,0-2.028.038-.115.038-.115.191-.115.344,0,.765-.038,5.663-.038,6.543-.038,1.186.077,3.75.115,4.4.077.727.306.842.995,1.071.268.077.344.115.344.191,0,.115-.153.153-.421.153-.5,0-1.148-.115-1.951-.115-1.071,0-1.684.115-2.028.115-.268,0-.383-.077-.383-.191,0-.077.191-.153.421-.191.995-.153,1.148-.5,1.186-1.454.153-2.028.153-10.369.115-10.637-.038-.191-.077-.268-.153-.268a8.734,8.734,0,0,0-1.569-.077,17.124,17.124,0,0,0-1.76.077c-.383.077-.689.344-.957,1.148-.115.268-.191.344-.306.344-.077,0-.077-.153-.077-.306a10.779,10.779,0,0,0,.268-1.8c.038-.153.038-.268.115-.306.038-.038.115.038.153.077a.985.985,0,0,0,.689.191c.344.038,2.411.077,4.553.077Z" transform="translate(-250.046 -30.873)"/><path class="a" d="M360.341,31.9c.23,0,.344.077.344.115,0,.115-.153.153-.344.191-1.071.153-1.033.88-1.033,1.875-.038,1.99-.038,4.821,0,5.854a5.059,5.059,0,0,0,1.148,3.482,4.06,4.06,0,0,0,2.946,1.148c2.372,0,3.9-1.224,4.056-5.318.038-.765.077-1.76.077-2.449,0-3.979-.153-4.247-.765-4.438a1.5,1.5,0,0,0-.536-.115c-.153-.038-.306-.115-.306-.191,0-.115.115-.153.344-.153.421,0,.8.077,1.454.077.459,0,.995-.077,1.492-.077.23,0,.383.038.383.115,0,.115-.115.153-.421.23-.842.153-.88.574-.957,1.492-.076,1.263-.076,4.094-.191,5.395-.115,1.875-.344,3.673-1.531,4.974a5.055,5.055,0,0,1-3.673,1.377,5.606,5.606,0,0,1-3.252-.957c-1.263-.995-1.722-2.257-1.837-4.783-.038-1.607-.038-4.859-.077-6.122-.077-1.033-.115-1.186-.995-1.416-.115-.038-.268-.115-.268-.191s.191-.077.383-.077c.5,0,1.11.077,1.875.077C359.27,31.977,359.882,31.9,360.341,31.9Z" transform="translate(-273.754 -31.507)"/><path class="a" d="M406,31.483a.238.238,0,0,1,.153.23c0,.574.076,1.186.076,1.416.038.268-.038.421-.115.421s-.153-.115-.191-.344a1.994,1.994,0,0,0-.8-1.224,3.027,3.027,0,0,0-1.684-.536,2.531,2.531,0,0,0-2.449,2.564,2.88,2.88,0,0,0,1.492,2.411c.8.536,1.492,1.033,2.143,1.492a3.944,3.944,0,0,1,1.99,3.329c0,2.334-2.181,3.711-4.362,3.711a7.176,7.176,0,0,1-2.831-.574.615.615,0,0,1-.344-.574,13.863,13.863,0,0,1-.191-1.53c-.038-.23.038-.383.115-.383s.153.115.23.421a3.009,3.009,0,0,0,3.061,2.3,2.709,2.709,0,0,0,2.755-2.717c0-1.416-.995-2.219-2.525-3.214-1.607-1.071-2.87-2.219-2.87-4.018a3.318,3.318,0,0,1,1.339-2.717A4.572,4.572,0,0,1,403.7,31.1,8.469,8.469,0,0,1,406,31.483Z" transform="translate(-299.976 -31.013)"/><g transform="translate(10.828 19.027)"><path class="a" d="M168.853,80.8c.191,0,.306.038.459.038.191,0,.344-.038.459-.038.038,0,.077,0,.077.038s-.038.038-.077.038c-.23.038-.23.115-.23.344v1.263a10.568,10.568,0,0,0,.038,1.416c0,.191.038.23.191.268.077,0,.077.038.077.077s-.038.038-.115.038h-.383c-.268,0-.421.038-.536.038-.038,0-.077,0-.077-.038a.168.168,0,0,1,.115-.038c.191-.038.23-.115.23-.459v-2.1a1.738,1.738,0,0,0-.038-.536c-.038-.191-.077-.191-.268-.23a.134.134,0,0,1-.077-.038C168.777,80.8,168.777,80.8,168.853,80.8Z" transform="translate(-168.7 -80.723)"/><path class="a" d="M174.315,80.8c.153,0,.459.038.65.038.038,0,.038,0,.115.115.344.459,1.76,2.066,2.257,2.6a.037.037,0,0,0,.038-.038c0-.191,0-1.722-.038-2.181,0-.306-.115-.383-.306-.421a.168.168,0,0,1-.115-.038c0-.038.038-.038.115-.038.115,0,.268.038.383.038a2.967,2.967,0,0,0,.344-.038c.077,0,.077,0,.077.038s-.038.038-.077.038c-.23.077-.23.191-.23.344-.038.191-.038,1.377-.038,1.875v1.11c0,.115,0,.191-.038.191s-.077-.077-.191-.191c-.306-.383-1.722-1.99-2.449-2.87-.038-.038-.038-.038-.038,0v2.219c0,.23,0,.383.077.459a.387.387,0,0,0,.268.153.082.082,0,0,1,.077.077c0,.038-.038.038-.115.038-.115,0-.23-.038-.421-.038-.153,0-.344.038-.383.038-.077,0-.077,0-.077-.038s.038-.038.115-.038c.191-.077.268-.115.306-.421.038-.191.077-1.951.077-2.372,0-.306-.038-.344-.115-.383a1.866,1.866,0,0,0-.268-.115.168.168,0,0,1-.115-.038C174.2,80.8,174.2,80.8,174.315,80.8Z" transform="translate(-172.096 -80.723)"/><path class="a" d="M188.1,80.8c.038,0,.038.038.038.077a1.066,1.066,0,0,0,.038.383c0,.077,0,.115-.038.115s-.038-.038-.038-.077a.472.472,0,0,0-.191-.306.938.938,0,0,0-.459-.153.676.676,0,0,0-.65.689.827.827,0,0,0,.383.65c.23.153.383.268.574.383a1,1,0,0,1-.612,1.875,2.039,2.039,0,0,1-.727-.153c-.077-.038-.077-.077-.077-.153s-.038-.268-.038-.383c0-.077,0-.115.038-.115s.038.038.077.115a.8.8,0,0,0,.8.612.726.726,0,0,0,.727-.727c0-.383-.268-.574-.65-.842a1.3,1.3,0,0,1-.765-1.071.773.773,0,0,1,.344-.689,1.133,1.133,0,0,1,.689-.23C187.716,80.687,187.984,80.764,188.1,80.8Z" transform="translate(-179.566 -80.687)"/><path class="a" d="M196.1,80.715c.268,0,.344,0,.459-.077.038,0,.038-.038.038,0v.077a.754.754,0,0,0,0,.421.168.168,0,0,1-.038.115c-.038,0-.038-.038-.038-.077a.3.3,0,0,0-.115-.268c-.038-.038-.115-.077-.5-.077h-.536c-.038,0-.038.038-.038.077v1.722a10.06,10.06,0,0,0,.038,1.148c.038.191.077.23.268.268.077,0,.077.038.077.038,0,.038-.038.038-.115.038-.115,0-.306-.038-.5-.038-.268,0-.459.038-.536.038a.168.168,0,0,1-.115-.038c0-.038.038-.038.115-.038.268-.038.306-.115.306-.383.038-.536.038-2.717.038-2.793a.134.134,0,0,0-.038-.077h-.421a1.446,1.446,0,0,0-.459.038c-.115.038-.191.077-.268.306-.038.077-.038.077-.077.077s-.038-.038,0-.077a2.291,2.291,0,0,0,.077-.459c0-.038,0-.077.038-.077a.037.037,0,0,1,.038.038.287.287,0,0,0,.191.038c.077,0,.612.038,1.186.038Z" transform="translate(-184.088 -80.6)"/><path class="a" d="M203.753,80.8c.191,0,.306.038.459.038.191,0,.344-.038.459-.038.038,0,.077,0,.077.038s-.038.038-.077.038c-.23.038-.23.115-.23.344v1.263a10.568,10.568,0,0,0,.038,1.416c0,.191.038.23.191.268.077,0,.077.038.077.077s-.038.038-.115.038h-.383c-.268,0-.421.038-.536.038-.038,0-.077,0-.077-.038a.168.168,0,0,1,.115-.038c.191-.038.23-.115.23-.459v-2.1a1.739,1.739,0,0,0-.038-.536c-.038-.191-.077-.191-.268-.23a.134.134,0,0,1-.077-.038C203.677,80.8,203.715,80.8,203.753,80.8Z" transform="translate(-190.247 -80.723)"/><path class="a" d="M211.2,80.715c.268,0,.344,0,.459-.077.038,0,.038-.038.038,0v.077a.755.755,0,0,0,0,.421.168.168,0,0,1-.038.115c-.038,0-.038-.038-.038-.077a.3.3,0,0,0-.115-.268c-.038-.038-.115-.077-.5-.077h-.536c-.038,0-.038.038-.038.077v1.722a10.052,10.052,0,0,0,.038,1.148c.038.191.077.23.268.268.077,0,.077.038.077.038,0,.038-.038.038-.115.038-.115,0-.306-.038-.5-.038-.268,0-.459.038-.536.038a.168.168,0,0,1-.115-.038c0-.038.038-.038.115-.038.268-.038.306-.115.306-.383.038-.536.038-2.717.038-2.793a.134.134,0,0,0-.038-.077h-.421a1.446,1.446,0,0,0-.459.038c-.115.038-.191.077-.268.306-.038.077-.038.077-.077.077s-.038-.038,0-.077a2.291,2.291,0,0,0,.077-.459c0-.038,0-.077.038-.077a.037.037,0,0,1,.038.038.287.287,0,0,0,.191.038c.077,0,.612.038,1.186.038Z" transform="translate(-193.411 -80.6)"/><path class="a" d="M219.895,80.677c.077,0,.077,0,.077.038s-.038.038-.077.038c-.268.038-.268.23-.268.5v1.53a1.326,1.326,0,0,0,.306.918.982.982,0,0,0,.765.306c.612,0,1.033-.306,1.071-1.416v-.65c0-1.033-.038-1.11-.191-1.186-.038,0-.115-.038-.153-.038a.134.134,0,0,1-.077-.038c0-.038.038-.038.077-.038h.765c.077,0,.115,0,.115.038s-.038.038-.115.077c-.23.038-.23.153-.23.383-.038.344-.038,1.071-.038,1.416a2.1,2.1,0,0,1-.383,1.3,1.48,1.48,0,0,1-1.8.077c-.344-.268-.459-.574-.459-1.263,0-.421,0-1.263-.038-1.607-.038-.268-.038-.306-.268-.383a.134.134,0,0,1-.077-.038c0-.038.038-.038.115-.038.115,0,.306.038.5.038C219.589,80.715,219.78,80.677,219.895,80.677Z" transform="translate(-199.692 -80.6)"/><path class="a" d="M232.2,80.715c.268,0,.344,0,.459-.077.038,0,.038-.038.038,0v.077a.755.755,0,0,0,0,.421.168.168,0,0,1-.038.115c-.038,0-.038-.038-.038-.077a.3.3,0,0,0-.115-.268c-.038-.038-.115-.077-.5-.077h-.536c-.038,0-.038.038-.038.077v1.722a10.06,10.06,0,0,0,.038,1.148c.038.191.077.23.268.268.077,0,.077.038.077.038,0,.038-.038.038-.115.038-.115,0-.306-.038-.5-.038-.268,0-.459.038-.536.038a.167.167,0,0,1-.115-.038c0-.038.038-.038.115-.038.268-.038.306-.115.306-.383.038-.536.038-2.717.038-2.793a.134.134,0,0,0-.038-.077h-.421a1.446,1.446,0,0,0-.459.038c-.115.038-.191.077-.268.306-.038.077-.038.077-.077.077s-.038-.038,0-.077a2.288,2.288,0,0,0,.077-.459c0-.038,0-.077.038-.077a.037.037,0,0,1,.038.038.287.287,0,0,0,.191.038c.077,0,.612.038,1.186.038Z" transform="translate(-206.376 -80.6)"/><path class="a" d="M239.83,80.8c.115,0,.306.038.459.038H241.9c.038,0,.038.038.038.077a1.436,1.436,0,0,0,.038.383c0,.038,0,.077-.038.077,0,0-.038,0-.077-.077a.469.469,0,0,0-.306-.344,4.65,4.65,0,0,0-1.033,0c-.038,0-.077,0-.077.23v1.224c0,.077,0,.077.038.077h.689c.268,0,.306,0,.383-.038a1.047,1.047,0,0,0,.153-.191.048.048,0,1,1,.077,0c0,.038-.038.191-.038.306v.306a.168.168,0,0,1-.038.115c-.038,0-.038-.038-.077-.115a.231.231,0,0,0-.153-.191,4.236,4.236,0,0,0-.995-.038c-.038,0-.038,0-.038.115V83.9a.238.238,0,0,0,.153.23,1.464,1.464,0,0,0,.536.038c.459,0,.574,0,.65-.115a1.62,1.62,0,0,0,.191-.268c.038-.077.077-.077.115-.077s.038.038,0,.115c-.038.115-.077.344-.115.421-.038.038-.038.077-.077.077-.574,0-1.186-.038-1.645-.038-.191,0-.5.038-.536.038-.077,0-.115,0-.115-.038s.038-.038.115-.038c.191-.038.306-.115.306-.344.038-.88.038-1.492.038-2.564,0-.306-.077-.383-.268-.421a.134.134,0,0,1-.077-.038C239.753,80.838,239.791,80.8,239.83,80.8Z" transform="translate(-212.472 -80.723)"/><path class="a" d="M259.258,82.475a1.784,1.784,0,0,1-1.033,1.607,1.553,1.553,0,0,1-.727.153,1.829,1.829,0,0,1-1.8-1.837,1.754,1.754,0,0,1,.727-1.454A1.71,1.71,0,0,1,257.5,80.6,1.832,1.832,0,0,1,259.258,82.475Zm-2.64-1.377a2.125,2.125,0,0,0,.038,2.487,1.2,1.2,0,0,0,.995.536.844.844,0,0,0,.574-.23,1.79,1.79,0,0,0,.612-1.454,2.184,2.184,0,0,0-.459-1.339,1.193,1.193,0,0,0-.918-.459A1.392,1.392,0,0,0,256.618,81.1Z" transform="translate(-222.412 -80.6)"/><path class="a" d="M269.866,80.8c.115,0,.153.038.153.077,0,.077.038.306.038.383,0,.038,0,.115-.038.115s-.038-.038-.077-.115a.4.4,0,0,0-.421-.306H268.6c-.038,0-.077.077-.077.115v1.416a.134.134,0,0,0,.038.077h.918c.077,0,.153-.038.23-.23.038-.038.038-.077.077-.077s.038.038.038.077c0,.077-.038.23-.038.344a.567.567,0,0,0,.038.268c0,.077,0,.077-.038.077s-.038-.038-.077-.115c-.038-.115-.115-.191-.153-.191a7.882,7.882,0,0,0-.957-.038.134.134,0,0,0-.038.077v1.186c0,.191.038.23.306.306a.133.133,0,0,1,.077.038c0,.038-.077.038-.115.038-.077,0-.306-.038-.536-.038-.191,0-.344.038-.421.038-.038,0-.077,0-.077-.038s.038-.038.115-.038c.191-.038.23-.077.23-.306V81.221c0-.191-.038-.23-.23-.306a.134.134,0,0,1-.077-.038c0-.038.038-.038.077-.038.077,0,.383.038.612.038C269.063,80.838,269.637,80.8,269.866,80.8Z" transform="translate(-229.882 -80.723)"/><path class="a" d="M282.73,80.738c.115,0,.459.038.65.038.038,0,.038.038.077.077.23.536.995,2.066,1.339,2.717,0,.038.038,0,.038-.038.306-.612,1.033-1.99,1.148-2.257a3.22,3.22,0,0,0,.153-.459l.038-.077c.153,0,.459-.038.612-.038.038,0,.076,0,.076.038s-.038.038-.076.038c-.306.077-.344.153-.344.459v1.11c0,.612.038,1.148.038,1.3.038.306.077.383.306.421a.082.082,0,0,1,.076.077c0,.038-.038.038-.115.038-.115,0-.383-.038-.536-.038h-.459c-.038,0-.115,0-.115-.038s.038-.038.115-.038c.23-.077.268-.153.268-.612V81.427c0-.038,0-.038-.038-.038-.383.727-1.033,2.066-1.3,2.64-.038.077-.038.115-.077.115s-.077-.077-.115-.191c-.268-.536-.995-2.066-1.186-2.487-.038-.038-.038-.038-.038.038-.038.306-.077,1.76-.077,1.951a.96.96,0,0,0,.038.383.4.4,0,0,0,.268.23c.077,0,.077.038.077.038,0,.038-.038.038-.115.038s-.268-.038-.459-.038a2.954,2.954,0,0,0-.383.038c-.077,0-.115,0-.115-.038a.168.168,0,0,1,.115-.038.431.431,0,0,0,.306-.191,2.337,2.337,0,0,0,.115-.574c.038-.306.115-1.53.115-1.875s-.038-.421-.115-.5a.58.58,0,0,0-.306-.153.133.133,0,0,1-.077-.038Z" transform="translate(-238.958 -80.662)"/><path class="a" d="M297.775,80.713a1.588,1.588,0,0,0,.153.459c.383,1.033.689,1.76,1.033,2.525.153.306.191.383.344.421.077,0,.077.038.077.038,0,.038-.038.038-.115.038h-.459c-.191,0-.421.038-.536.038-.077,0-.077,0-.077-.038s.038-.038.115-.038c.23-.038.268-.115.23-.23a10.153,10.153,0,0,0-.383-1.071.082.082,0,0,0-.077-.077h-1.033c-.038,0-.077.077-.077.115-.038.115-.191.536-.268.8-.077.191-.077.306,0,.383a.323.323,0,0,0,.23.077.134.134,0,0,1,.077.038c0,.038-.038.038-.115.038-.115,0-.344-.038-.536-.038-.153,0-.23.038-.383.038-.077,0-.077,0-.077-.038s.038-.038.115-.038c.268-.038.306-.115.5-.574.153-.344.65-1.53.957-2.372a.289.289,0,0,0,.038-.153v-.077a.358.358,0,0,0,.191-.268c0-.038,0-.038.038-.038C297.737,80.636,297.737,80.674,297.775,80.713Zm.191,1.8c-.23-.612-.383-.957-.459-1.148,0-.038-.038-.038-.038,0-.115.306-.344.957-.421,1.186v.038h.421a1.321,1.321,0,0,0,.459-.038C297.966,82.549,298,82.549,297.966,82.511Z" transform="translate(-247.23 -80.636)"/><path class="a" d="M307.015,80.8c.153,0,.459.038.65.038.038,0,.038,0,.115.115.344.459,1.76,2.066,2.257,2.6a.037.037,0,0,0,.038-.038c0-.191,0-1.722-.038-2.181,0-.306-.115-.383-.306-.421a.168.168,0,0,1-.115-.038c0-.038.038-.038.115-.038.115,0,.268.038.383.038a2.968,2.968,0,0,0,.344-.038c.077,0,.077,0,.077.038s-.038.038-.077.038c-.23.077-.23.191-.23.344-.038.191-.038,1.377-.038,1.875v1.11c0,.115,0,.191-.038.191s-.077-.077-.191-.191c-.306-.383-1.722-1.99-2.449-2.87-.038-.038-.038-.038-.038,0v2.219c0,.23,0,.383.077.459a.387.387,0,0,0,.268.153.082.082,0,0,1,.076.077c0,.038-.038.038-.115.038-.115,0-.23-.038-.421-.038-.153,0-.344.038-.383.038-.077,0-.077,0-.077-.038s.038-.038.115-.038c.191-.077.268-.115.306-.421.038-.191.077-1.951.077-2.372,0-.306-.038-.344-.115-.383a1.869,1.869,0,0,0-.268-.115.168.168,0,0,1-.115-.038C306.9,80.8,306.938,80.8,307.015,80.8Z" transform="translate(-254.022 -80.723)"/><path class="a" d="M320.175,80.713a1.587,1.587,0,0,0,.153.459c.383,1.033.689,1.76,1.033,2.525.153.306.191.383.344.421.077,0,.077.038.077.038,0,.038-.038.038-.115.038h-.459c-.191,0-.421.038-.536.038-.077,0-.077,0-.077-.038s.038-.038.115-.038c.23-.038.268-.115.23-.23a10.145,10.145,0,0,0-.383-1.071.082.082,0,0,0-.077-.077h-1.033c-.038,0-.076.077-.076.115-.038.115-.191.536-.268.8-.077.191-.077.306,0,.383a.323.323,0,0,0,.23.077.133.133,0,0,1,.077.038c0,.038-.038.038-.115.038-.115,0-.344-.038-.536-.038-.153,0-.23.038-.383.038-.077,0-.077,0-.077-.038s.038-.038.115-.038c.268-.038.306-.115.5-.574.153-.344.65-1.53.957-2.372a.289.289,0,0,0,.038-.153v-.077a.358.358,0,0,0,.191-.268c0-.038,0-.038.038-.038C320.137,80.636,320.137,80.674,320.175,80.713Zm.191,1.8c-.23-.612-.383-.957-.459-1.148,0-.038-.038-.038-.038,0-.115.306-.344.957-.421,1.186v.038h.421a1.32,1.32,0,0,0,.459-.038C320.366,82.549,320.4,82.549,320.366,82.511Z" transform="translate(-261.06 -80.636)"/><path class="a" d="M331.9,80.715a3.539,3.539,0,0,0,.383.115c.038,0,.038.077.038.115l.038.344c0,.077,0,.115-.038.115s-.038,0-.077-.077a1,1,0,0,0-1.033-.65,1.327,1.327,0,0,0-.995.421,1.871,1.871,0,0,0-.459,1.339,1.757,1.757,0,0,0,.65,1.377,1.422,1.422,0,0,0,.842.306.869.869,0,0,0,.612-.23c.077-.077.077-.153.077-.306a3.267,3.267,0,0,0,0-.612c0-.191-.077-.23-.306-.268a.386.386,0,0,1-.115-.038c0-.038.038-.038.153-.038s.268.038.5.038h.344c.038,0,.077,0,.077.038s-.077.038-.115.077c-.077.038-.115.077-.115.344s.038.612.038.689,0,.115-.038.115a1.865,1.865,0,0,1-.268.115,1.948,1.948,0,0,1-.842.191,2.017,2.017,0,0,1-1.377-.5,1.657,1.657,0,0,1-.574-1.3,1.81,1.81,0,0,1,.727-1.454,1.889,1.889,0,0,1,1.263-.383A1.919,1.919,0,0,1,331.9,80.715Z" transform="translate(-267.851 -80.6)"/><path class="a" d="M340.33,80.8c.115,0,.306.038.459.038H342.4c.038,0,.038.038.038.077a1.434,1.434,0,0,0,.038.383c0,.038,0,.077-.038.077,0,0-.038,0-.076-.077a.469.469,0,0,0-.306-.344,4.65,4.65,0,0,0-1.033,0c-.038,0-.077,0-.077.23v1.224c0,.077,0,.077.038.077h.689c.268,0,.306,0,.383-.038a1.047,1.047,0,0,0,.153-.191.048.048,0,1,1,.077,0c0,.038-.038.191-.038.306v.306a.168.168,0,0,1-.038.115c-.038,0-.038-.038-.077-.115a.231.231,0,0,0-.153-.191,4.236,4.236,0,0,0-.995-.038c-.038,0-.038,0-.038.115V83.9a.238.238,0,0,0,.153.23,1.465,1.465,0,0,0,.536.038c.459,0,.574,0,.65-.115a1.621,1.621,0,0,0,.191-.268c.038-.077.077-.077.115-.077s.038.038,0,.115c-.038.115-.077.344-.115.421-.038.038-.038.077-.077.077-.574,0-1.186-.038-1.645-.038-.191,0-.5.038-.536.038-.077,0-.115,0-.115-.038s.038-.038.115-.038c.191-.038.306-.115.306-.344.038-.88.038-1.492.038-2.564,0-.306-.077-.383-.268-.421a.134.134,0,0,1-.077-.038C340.253,80.838,340.291,80.8,340.33,80.8Z" transform="translate(-274.519 -80.723)"/><path class="a" d="M349.23,80.738c.115,0,.459.038.65.038.038,0,.038.038.077.077.23.536.995,2.066,1.339,2.717,0,.038.038,0,.038-.038.306-.612,1.033-1.99,1.148-2.257a3.211,3.211,0,0,0,.153-.459l.038-.077c.153,0,.459-.038.612-.038.038,0,.077,0,.077.038s-.038.038-.077.038c-.306.077-.344.153-.344.459v1.11c0,.612.038,1.148.038,1.3.038.306.076.383.306.421a.082.082,0,0,1,.077.077c0,.038-.038.038-.115.038-.115,0-.383-.038-.536-.038h-.459c-.038,0-.115,0-.115-.038s.038-.038.115-.038c.23-.077.268-.153.268-.612V81.427c0-.038,0-.038-.038-.038-.383.727-1.033,2.066-1.3,2.64-.038.077-.038.115-.076.115s-.077-.077-.115-.191c-.268-.536-.995-2.066-1.186-2.487-.038-.038-.038-.038-.038.038-.038.306-.077,1.76-.077,1.951a.959.959,0,0,0,.038.383.4.4,0,0,0,.268.23c.077,0,.077.038.077.038,0,.038-.038.038-.115.038s-.268-.038-.459-.038a2.952,2.952,0,0,0-.383.038c-.077,0-.115,0-.115-.038a.168.168,0,0,1,.115-.038.431.431,0,0,0,.306-.191,2.335,2.335,0,0,0,.115-.574c.038-.306.115-1.53.115-1.875s-.038-.421-.115-.5a.58.58,0,0,0-.306-.153.134.134,0,0,1-.077-.038Z" transform="translate(-280.013 -80.662)"/><path class="a" d="M362.73,80.8c.115,0,.306.038.459.038H364.8c.038,0,.038.038.038.077a1.435,1.435,0,0,0,.038.383c0,.038,0,.077-.038.077,0,0-.038,0-.077-.077a.469.469,0,0,0-.306-.344,4.65,4.65,0,0,0-1.033,0c-.038,0-.077,0-.077.23v1.224c0,.077,0,.077.038.077h.689c.268,0,.306,0,.383-.038a1.045,1.045,0,0,0,.153-.191.048.048,0,1,1,.077,0c0,.038-.038.191-.038.306v.306a.168.168,0,0,1-.038.115c-.038,0-.038-.038-.077-.115a.231.231,0,0,0-.153-.191,4.236,4.236,0,0,0-.995-.038c-.038,0-.038,0-.038.115V83.9a.238.238,0,0,0,.153.23,1.465,1.465,0,0,0,.536.038c.459,0,.574,0,.65-.115a1.62,1.62,0,0,0,.191-.268c.038-.077.077-.077.115-.077s.038.038,0,.115c-.038.115-.077.344-.115.421-.038.038-.038.077-.076.077-.574,0-1.186-.038-1.645-.038-.191,0-.5.038-.536.038-.077,0-.115,0-.115-.038s.038-.038.115-.038c.191-.038.306-.115.306-.344.038-.88.038-1.492.038-2.564,0-.306-.077-.383-.268-.421a.134.134,0,0,1-.077-.038C362.615,80.838,362.653,80.8,362.73,80.8Z" transform="translate(-288.348 -80.723)"/><path class="a" d="M371.315,80.8c.153,0,.459.038.651.038.038,0,.038,0,.115.115.344.459,1.76,2.066,2.257,2.6a.037.037,0,0,0,.038-.038c0-.191,0-1.722-.038-2.181,0-.306-.115-.383-.306-.421a.168.168,0,0,1-.115-.038c0-.038.038-.038.115-.038.115,0,.268.038.383.038a2.967,2.967,0,0,0,.344-.038c.077,0,.077,0,.077.038s-.038.038-.077.038c-.23.077-.23.191-.23.344-.038.191-.038,1.377-.038,1.875v1.11c0,.115,0,.191-.038.191s-.077-.077-.191-.191c-.306-.383-1.722-1.99-2.449-2.87-.038-.038-.038-.038-.038,0v2.219c0,.23,0,.383.077.459a.387.387,0,0,0,.268.153.082.082,0,0,1,.077.077c0,.038-.038.038-.115.038-.115,0-.23-.038-.421-.038-.153,0-.344.038-.383.038-.077,0-.077,0-.077-.038s.038-.038.115-.038c.191-.077.268-.115.306-.421.038-.191.077-1.951.077-2.372,0-.306-.038-.344-.115-.383a1.869,1.869,0,0,0-.268-.115.167.167,0,0,1-.115-.038C371.2,80.8,371.238,80.8,371.315,80.8Z" transform="translate(-293.719 -80.723)"/><path class="a" d="M385.5,80.715c.268,0,.344,0,.459-.077.038,0,.038-.038.038,0v.077a.755.755,0,0,0,0,.421.168.168,0,0,1-.038.115c-.038,0-.038-.038-.038-.077a.3.3,0,0,0-.115-.268c-.038-.038-.115-.077-.5-.077h-.536c-.038,0-.038.038-.038.077v1.722a10.052,10.052,0,0,0,.038,1.148c.038.191.077.23.268.268.077,0,.077.038.077.038,0,.038-.038.038-.115.038-.115,0-.306-.038-.5-.038-.268,0-.459.038-.536.038a.168.168,0,0,1-.115-.038c0-.038.038-.038.115-.038.268-.038.306-.115.306-.383.038-.536.038-2.717.038-2.793a.134.134,0,0,0-.038-.077h-.421a1.446,1.446,0,0,0-.459.038c-.115.038-.191.077-.268.306-.038.077-.038.077-.077.077s-.038-.038,0-.077a2.289,2.289,0,0,0,.077-.459c0-.038,0-.077.038-.077a.037.037,0,0,1,.038.038.287.287,0,0,0,.191.038c.077,0,.612.038,1.186.038Z" transform="translate(-301.02 -80.6)"/></g></g><path class="a" d="M23.187,46.374A23.187,23.187,0,1,1,46.374,23.187,23.2,23.2,0,0,1,23.187,46.374Zm0-45.57A22.383,22.383,0,1,0,45.57,23.187,22.437,22.437,0,0,0,23.187.8Z"/><path class="a" d="M35.843,51.286A15.343,15.343,0,1,1,51.186,35.943,15.366,15.366,0,0,1,35.843,51.286Zm0-29.921A14.54,14.54,0,1,0,50.383,35.9,14.558,14.558,0,0,0,35.843,21.365Z" transform="translate(-12.656 -12.718)"/><path class="a" d="M60.2,35.557h-.8L59.477,21.4h.8Z" transform="translate(-36.672 -13.212)"/><path class="a" d="M43.393,41.165H33.444a.353.353,0,0,1-.344-.383.377.377,0,0,1,.344-.383h9.948a.383.383,0,0,1,.383.383A.361.361,0,0,1,43.393,41.165Z" transform="translate(-20.435 -24.942)"/><path class="a" d="M40.744,50.357a.353.353,0,0,1-.344-.383V45.383A.377.377,0,0,1,40.744,45a.383.383,0,0,1,.383.383v4.63A.407.407,0,0,1,40.744,50.357Z" transform="translate(-24.942 -27.782)"/><path class="a" d="M33.683,50.41a.383.383,0,0,1-.383-.383V45.283a.383.383,0,0,1,.383-.383.353.353,0,0,1,.344.383v4.783A.343.343,0,0,1,33.683,50.41Z" transform="translate(-20.559 -27.72)"/><path class="a" d="M47.683,50.533a.383.383,0,0,1-.383-.383V45.483a.383.383,0,0,1,.383-.383.353.353,0,0,1,.344.383v4.668A.377.377,0,0,1,47.683,50.533Z" transform="translate(-29.202 -27.844)"/><path class="a" d="M54.744,50.533a.353.353,0,0,1-.344-.383V45.483a.377.377,0,0,1,.344-.383.383.383,0,0,1,.383.383v4.668A.446.446,0,0,1,54.744,50.533Z" transform="translate(-33.585 -27.844)"/><path class="a" d="M43.593,45.365h-9.91a.383.383,0,1,1,0-.765h9.872a.383.383,0,0,1,.383.383A.353.353,0,0,1,43.593,45.365Z" transform="translate(-20.559 -27.535)"/><path class="a" d="M33.344,32.769a.292.292,0,0,1-.191-.077.417.417,0,0,1-.115-.5A13.181,13.181,0,0,1,43.522,26.8h0a.353.353,0,0,1,.344.383.343.343,0,0,1-.344.344h0a12.559,12.559,0,0,0-9.872,5.089A.348.348,0,0,1,33.344,32.769Z" transform="translate(-20.373 -16.546)"/><path class="a" d="M49.2,60.673a2.812,2.812,0,0,1-1.148-.268,1.315,1.315,0,0,0-1.3,0,2.439,2.439,0,0,1-2.3,0,1.315,1.315,0,0,0-1.3,0,2.439,2.439,0,0,1-2.3,0,1.315,1.315,0,0,0-1.3,0,2.439,2.439,0,0,1-2.3,0,1.315,1.315,0,0,0-1.3,0,2.439,2.439,0,0,1-2.3,0,1.315,1.315,0,0,0-1.3,0,2.439,2.439,0,0,1-2.3,0,1.315,1.315,0,0,0-1.3,0,2.439,2.439,0,0,1-2.3,0,1.315,1.315,0,0,0-1.3,0,2.439,2.439,0,0,1-2.3,0c-.23-.115-.191-.153-.421-.153l-.383.077L21.8,57.038,22.221,57a2.485,2.485,0,0,1,1.033.306,1.872,1.872,0,0,0,1.569,0,2.2,2.2,0,0,1,2.066,0,1.872,1.872,0,0,0,1.569,0,2.2,2.2,0,0,1,2.066,0,1.872,1.872,0,0,0,1.569,0,2.2,2.2,0,0,1,2.066,0,1.872,1.872,0,0,0,1.569,0,2.2,2.2,0,0,1,2.066,0,1.872,1.872,0,0,0,1.569,0,2.2,2.2,0,0,1,2.066,0,1.872,1.872,0,0,0,1.569,0,2.2,2.2,0,0,1,2.066,0,1.872,1.872,0,0,0,1.569,0,2.2,2.2,0,0,1,2.066,0,1.872,1.872,0,0,0,1.569,0,2.083,2.083,0,0,1,1.033-.268h.689l-.115,3.252-.383-.038a3.255,3.255,0,0,0-.842.153A6.6,6.6,0,0,1,49.2,60.673Zm-1.8-1.263a2.083,2.083,0,0,1,1.033.268,1.872,1.872,0,0,0,1.569,0,2.168,2.168,0,0,1,1.377-.23V57.765a2.492,2.492,0,0,0-1.033.23,2.439,2.439,0,0,1-2.3,0,1.315,1.315,0,0,0-1.3,0,2.439,2.439,0,0,1-2.3,0,1.315,1.315,0,0,0-1.3,0,2.439,2.439,0,0,1-2.3,0,1.315,1.315,0,0,0-1.3,0,2.439,2.439,0,0,1-2.3,0,1.315,1.315,0,0,0-1.3,0,2.439,2.439,0,0,1-2.3,0,1.315,1.315,0,0,0-1.3,0,2.439,2.439,0,0,1-2.3,0,1.315,1.315,0,0,0-1.3,0,2.439,2.439,0,0,1-2.3,0,1.315,1.315,0,0,0-1.3,0,2.439,2.439,0,0,1-2.3,0c-.077-.038-.612-.268-.689-.306l-.191,1.76c.459-.268,1.071.115,1.263.23a1.872,1.872,0,0,0,1.569,0,2.2,2.2,0,0,1,2.066,0,1.872,1.872,0,0,0,1.569,0,2.2,2.2,0,0,1,2.066,0,1.872,1.872,0,0,0,1.569,0,2.2,2.2,0,0,1,2.066,0,1.872,1.872,0,0,0,1.569,0,2.2,2.2,0,0,1,2.066,0,1.872,1.872,0,0,0,1.569,0,2.2,2.2,0,0,1,2.066,0,1.872,1.872,0,0,0,1.569,0,2.2,2.2,0,0,1,2.066,0,1.872,1.872,0,0,0,1.569,0C46.67,59.487,47.053,59.411,47.4,59.411Z" transform="translate(-13.459 -35.191)"/><path class="a" d="M77.344,38.194A.343.343,0,0,1,77,37.85V25.644a.344.344,0,0,1,.689,0V37.85C77.727,38.041,77.574,38.194,77.344,38.194Z" transform="translate(-47.538 -15.62)"/><path class="a" d="M73.53,43.165H60.444a.353.353,0,0,1-.344-.383.377.377,0,0,1,.344-.383H73.53a.383.383,0,0,1,.383.383A.361.361,0,0,1,73.53,43.165Z" transform="translate(-37.104 -26.177)"/><g transform="translate(13.774 25.789)"><g transform="translate(3.709 5.392)"><path class="a" d="M53.894,82.452a.9.9,0,1,1-.842-.957A.956.956,0,0,1,53.894,82.452Z" transform="translate(-49.644 -81.493)"/><path class="a" d="M47.494,88.852a.9.9,0,1,1-.842-.957A.9.9,0,0,1,47.494,88.852Z" transform="translate(-45.693 -85.444)"/></g><path class="a" d="M64,82.452a.9.9,0,1,0,.842-.957A.9.9,0,0,0,64,82.452Z" transform="translate(-53.282 -76.101)"/><path class="a" d="M70.3,88.852a.9.9,0,1,0,.842-.957A.927.927,0,0,0,70.3,88.852Z" transform="translate(-57.176 -80.052)"/><path class="a" d="M36.383,77.157a.347.347,0,0,1-.268-.115.37.37,0,0,1,0-.536l9.068-8.992a.37.37,0,0,1,.536,0l9.03,9.03a.379.379,0,0,1-.536.536l-8.8-8.762L36.65,77.042A.347.347,0,0,1,36.383,77.157Z" transform="translate(-36 -67.4)"/><path class="a" d="M49.583,91.168a.347.347,0,0,1-.268-.115.37.37,0,0,1,0-.536l3.979-3.9a.37.37,0,0,1,.536,0l3.979,3.9a.379.379,0,0,1-.536.536l-3.711-3.635L49.85,91.053A.347.347,0,0,1,49.583,91.168Z" transform="translate(-44.149 -79.192)"/></g><g transform="translate(4.696 2.296)"><path class="a" d="M12.552,31.657A2.329,2.329,0,0,1,13.7,30.7c.077,0,.115,0,.153.077l.115.344c.038.077,0,.115-.077.115a1.586,1.586,0,0,0-.842.65,1.484,1.484,0,0,0,2.564,1.492,2.042,2.042,0,0,0,.268-.842l-.574-.306-.23.5c-.038.038-.077.077-.153.038l-.306-.153c-.038-.038-.077-.077-.038-.153l.536-.918c.038-.038.115-.077.153-.038.383.23.8.459,1.224.689.038,0,.038.038.038.077a2.8,2.8,0,0,1-.383,1.416,2.07,2.07,0,0,1-2.831.765A2.017,2.017,0,0,1,12.552,31.657Z" transform="translate(-12.274 -21.249)"/><path class="a" d="M19.854,23.775a.116.116,0,0,1,0-.153l.268-.268a.116.116,0,0,1,.153,0l2.411,2.372,1.11-1.11a.116.116,0,0,1,.153,0l.23.23a.116.116,0,0,1,0,.153l-1.416,1.454a.116.116,0,0,1-.153,0Z" transform="translate(-16.936 -16.696)"/><path class="a" d="M31.244,13.052a2.074,2.074,0,1,1-.765,2.831A2.1,2.1,0,0,1,31.244,13.052Zm1.8,3.061a1.465,1.465,0,0,0,.536-2.028,1.483,1.483,0,1,0-2.564,1.492A1.449,1.449,0,0,0,33.043,16.113Z" transform="translate(-23.352 -10.182)"/><path class="a" d="M44.7,7.958c0-.038.038-.115.077-.115l1.263-.306a1.1,1.1,0,0,1,1.416.765,1.111,1.111,0,0,1-.383,1.033,1.039,1.039,0,0,1,.918.727,1.179,1.179,0,0,1-.957,1.377l-1.3.306c-.077,0-.115-.038-.115-.077Zm1.722,1.263a.565.565,0,0,0,.421-.727.53.53,0,0,0-.727-.421l-.765.191.268,1.186Zm.5,1.684a.626.626,0,0,0,.459-.765.669.669,0,0,0-.842-.421l-.765.191.268,1.186Z" transform="translate(-32.293 -6.925)"/><path class="a" d="M57.077,9.9l1.875-3.826c0-.038.077-.077.115-.077h.077c.038,0,.077.038.115.077l1.607,3.941c.038.077,0,.153-.115.153h-.344c-.077,0-.115-.038-.115-.077l-.344-.8-1.875-.038c-.115.268-.268.5-.383.765,0,.038-.077.077-.153.077h-.344C57.077,10.056,57.039,9.979,57.077,9.9Zm2.64-1.148-.65-1.607h-.038l-.765,1.569Z" transform="translate(-39.925 -6)"/><path class="a" d="M71.833,7.777c0-.038.077-.077.153-.077l.383.115c.038,0,.077.077.077.153l-.918,3.252,1.492.421c.077,0,.077.077.077.153l-.077.306c0,.038-.077.077-.153.077l-1.99-.612c-.077,0-.077-.077-.077-.153Z" transform="translate(-48.407 -7.05)"/><path class="a" d="M87.417,15.513c.038-.038.115-.077.153-.038l.306.23c.038.038.077.115.038.153l-2.143,3.137c-.038.038-.115.077-.153.038l-.306-.23c-.038-.038-.077-.115-.038-.153Z" transform="translate(-57.333 -11.84)"/><path class="a" d="M94.569,20.1c.038-.077.115-.077.191-.038l.268.306a.141.141,0,0,1,.038.115L93.88,23.35l.038.038,2.946-1.033a.141.141,0,0,1,.115.038l.268.306c.077.077.038.153-.038.191l-4.018,1.377a.141.141,0,0,1-.115-.038l-.038-.038A.141.141,0,0,1,93,24.077Z" transform="translate(-62.112 -14.664)"/><path class="a" d="M101.358,33.612l1.071-2.1a.108.108,0,0,1,.191,0l.191.383c.038.038,0,.077,0,.115l-.8,1.607,1.8.23a.134.134,0,0,1,.077.038l.191.383c.038.077,0,.153-.115.153l-2.334-.306-1.607.88c-.038.038-.115,0-.153-.038l-.191-.344c-.038-.038,0-.115.038-.153Z" transform="translate(-66.223 -21.712)"/></g><g transform="translate(5.15 31.13)"><path class="a" d="M16.765,81.974c.038-.038.115,0,.153.038l1.224,1.951c.038.038,0,.115-.038.153l-.306.153c-.038.038-.115,0-.153-.038l-.957-1.53-.995.612.8,1.3c.038.038,0,.115-.038.153l-.268.153c-.038.038-.115,0-.153-.038l-.8-1.3L14.2,84.27l.957,1.53c.038.038,0,.115-.038.153l-.268.153c-.038.038-.115,0-.153-.038l-1.224-1.951c-.038-.038,0-.115.038-.153Z" transform="translate(-13.459 -81.729)"/><path class="a" d="M23.617,90.354a.116.116,0,0,1,.153,0l.957.918a2,2,0,1,1-2.717,2.946l-.957-.918a.116.116,0,0,1,0-.153Zm-1.3,3.405a1.462,1.462,0,1,0,1.99-2.143l-.536-.5-1.99,2.1Z" transform="translate(-18.13 -86.894)"/><path class="a" d="M35.171,98.313c.038-.038.115-.077.153-.038l.344.191c.038.038.077.077.038.153l-1.071,2.1a.952.952,0,1,0,1.684.88l1.071-2.1c.038-.038.077-.077.153-.038l.344.191c.038.038.077.077.038.153l-1.11,2.143a1.566,1.566,0,0,1-2.1.689,1.545,1.545,0,0,1-.689-2.1Z" transform="translate(-26.048 -91.792)"/><path class="a" d="M49.021,103.832a1.931,1.931,0,0,1,1.263.8.1.1,0,0,1-.038.153l-.306.191a.1.1,0,0,1-.153-.038,1.651,1.651,0,0,0-.918-.574,1.479,1.479,0,0,0-.536,2.908,1.534,1.534,0,0,0,1.033-.191c.077-.038.115,0,.153.038l.191.306c.038.038,0,.115-.038.153a1.871,1.871,0,0,1-1.492.268,2.072,2.072,0,0,1-1.645-2.411A2.144,2.144,0,0,1,49.021,103.832Z" transform="translate(-33.854 -95.207)"/><path class="a" d="M59.478,108.456l1.492-3.979c0-.038.077-.077.077-.077h.077c.038,0,.077.038.115.038l2.028,3.711c.038.077,0,.153-.077.153l-.344.038a.2.2,0,0,1-.153-.077l-.421-.765-1.875.115c-.115.268-.191.536-.306.8,0,.038-.038.077-.115.077l-.344.038C59.478,108.609,59.439,108.532,59.478,108.456Zm2.487-1.377-.8-1.53h-.038l-.574,1.607Z" transform="translate(-41.861 -95.584)"/><path class="a" d="M70.91,102.857l-.88.268c-.077,0-.115,0-.153-.077l-.077-.306a.153.153,0,0,1,.077-.153l2.372-.689c.077,0,.115,0,.153.077l.077.306a.153.153,0,0,1-.077.153l-.88.268.957,3.214a.153.153,0,0,1-.077.153l-.344.115a.153.153,0,0,1-.153-.077Z" transform="translate(-48.243 -94.04)"/><path class="a" d="M79.574,100.181c-.038-.038,0-.115.038-.153l.344-.153c.038-.038.115,0,.153.038l1.722,3.405c.038.038,0,.115-.038.153l-.344.153c-.038.038-.115,0-.153-.038Z" transform="translate(-54.267 -92.78)"/><path class="a" d="M87.1,93.73a2.065,2.065,0,1,1-.268,2.908A2.064,2.064,0,0,1,87.1,93.73Zm2.257,2.755a1.494,1.494,0,0,0-1.913-2.3,1.547,1.547,0,0,0-.191,2.1A1.51,1.51,0,0,0,89.355,96.485Z" transform="translate(-58.462 -88.702)"/><path class="a" d="M94.613,84.129c-.038-.038-.077-.115-.038-.153l.077-.115,3.788-.5h0l-2.257-1.492c-.038-.038-.077-.115-.038-.153l.191-.306c.038-.038.115-.077.153-.038l3.252,2.1c.038.038.077.115.038.153l-.077.115-3.826.459h0l2.334,1.53c.038.038.077.115.038.153l-.191.306c-.038.038-.115.077-.153.038Z" transform="translate(-63.528 -81.359)"/></g></g></g></g></svg>