<svg xmlns="http://www.w3.org/2000/svg" viewBox="0 0 79.443 80"><defs><style>.a{fill:#C6CFD1;}</style></defs><g transform="translate(0)"><path class="a" d="M51.429,71.543a21.405,21.405,0,0,1-18.4-10.4H9.943a.781.781,0,0,1-.8-.8V56.114a.781.781,0,0,1,.8-.8H30.629a21.217,21.217,0,0,1-.686-5.486,21.675,21.675,0,0,1,1.257-7.2H9.943a.781.781,0,0,1-.8-.8V37.6a.781.781,0,0,1,.8-.8H34.286a21.425,21.425,0,0,1,17.257-8.686,20.859,20.859,0,0,1,10.286,2.629V6.857A6.877,6.877,0,0,0,54.971,0H6.857A6.877,6.877,0,0,0,0,6.857V73.143A6.877,6.877,0,0,0,6.857,80h48a6.877,6.877,0,0,0,6.857-6.857V68.914A22.157,22.157,0,0,1,51.429,71.543ZM9.143,19.657a.781.781,0,0,1,.8-.8H51.886a.781.781,0,0,1,.8.8v4.229a.781.781,0,0,1-.8.8H9.943a.781.781,0,0,1-.8-.8Z"/><g transform="translate(35.429 33.943)"><path class="a" d="M74.2,68.329,60.371,54.5A15.367,15.367,0,0,0,63,45.7a15.941,15.941,0,1,0-6.514,12.914L70.2,72.329a2.762,2.762,0,0,0,4,0A2.863,2.863,0,0,0,74.2,68.329ZM47,56.1A10.286,10.286,0,1,1,57.286,45.814,10.243,10.243,0,0,1,47,56.1Z" transform="translate(-31 -29.7)"/></g></g></svg>