<svg xmlns="http://www.w3.org/2000/svg" viewBox="0 0 21.875 21.875"><defs><style>.a{fill:#fb5151;}</style></defs><path class="a" d="M19.531-20.312H2.344a2.26,2.26,0,0,0-1.66.684A2.26,2.26,0,0,0,0-17.969V-.781A2.26,2.26,0,0,0,.684.879a2.26,2.26,0,0,0,1.66.684H19.531a2.26,2.26,0,0,0,1.66-.684,2.26,2.26,0,0,0,.684-1.66V-17.969a2.26,2.26,0,0,0-.684-1.66A2.26,2.26,0,0,0,19.531-20.312Zm-1.562,12.3a.565.565,0,0,1-.171.415.565.565,0,0,1-.415.171H12.891V-2.93a.565.565,0,0,1-.171.415.565.565,0,0,1-.415.171H9.57a.565.565,0,0,1-.415-.171.565.565,0,0,1-.171-.415V-7.422H4.492a.565.565,0,0,1-.415-.171.565.565,0,0,1-.171-.415v-2.734a.565.565,0,0,1,.171-.415.565.565,0,0,1,.415-.171H8.984V-15.82a.565.565,0,0,1,.171-.415.565.565,0,0,1,.415-.171H12.3a.565.565,0,0,1,.415.171.565.565,0,0,1,.171.415v4.492h4.492a.565.565,0,0,1,.415.171.565.565,0,0,1,.171.415Z" transform="translate(0 20.313)"/></svg>