<svg xmlns="http://www.w3.org/2000/svg" viewBox="0 0 68.25 69.102">
  <defs>
    <style>
      .cls-1 {
        fill: #2083bc;
      }
    </style>
  </defs>
  <g id="flexible-payments-icon" transform="translate(0.022 0)">
    <g id="Group_2881" data-name="Group 2881" transform="translate(24.658 17.721)">
      <g id="Group_2880" data-name="Group 2880">
        <path id="Path_4177" data-name="Path 4177" class="cls-1" d="M43.481,53.183v3.25a.61.61,0,0,1-.619.619H40.386a.61.61,0,0,1-.619-.619v-3.25a11.975,11.975,0,0,1-6.81-3.327.588.588,0,0,1,0-.774l1.935-2.476a.468.468,0,0,1,.464-.232.569.569,0,0,1,.464.155A9.789,9.789,0,0,0,41.779,49c1.857,0,3.792-.929,3.792-3.1,0-1.78-2.167-2.631-4.72-3.637-3.327-1.316-7.506-3.018-7.506-7.661,0-3.4,2.708-6.268,6.578-6.964V24.319a.666.666,0,0,1,.619-.619h2.476a.61.61,0,0,1,.619.619v3.25a10.368,10.368,0,0,1,5.881,2.554.589.589,0,0,1,.077.7l-1.47,2.708a.522.522,0,0,1-.464.31c-.155,0-.387,0-.464-.155a8.492,8.492,0,0,0-5.03-2.012c-2.321,0-4.024,1.161-4.024,2.863,0,1.935,2.244,2.863,4.875,3.869,3.4,1.315,7.274,2.786,7.274,7.274A7.794,7.794,0,0,1,43.481,53.183Z" transform="translate(-32.084 -23.081)"/>
        <path id="Path_4178" data-name="Path 4178" class="cls-1" d="M42.65,23.6a.61.61,0,0,1,.619.619v3.25a10.368,10.368,0,0,1,5.881,2.554.589.589,0,0,1,.077.7l-1.47,2.708a.522.522,0,0,1-.464.31h-.077a.591.591,0,0,1-.387-.155,8.492,8.492,0,0,0-5.03-2.012c-2.321,0-4.024,1.161-4.024,2.863,0,1.935,2.244,2.863,4.875,3.869,3.4,1.316,7.274,2.786,7.274,7.274A7.5,7.5,0,0,1,43.269,53v3.25a.61.61,0,0,1-.619.619H40.173a.61.61,0,0,1-.619-.619V53a11.975,11.975,0,0,1-6.81-3.327.588.588,0,0,1,0-.774l1.935-2.476a.468.468,0,0,1,.464-.232h.077a.591.591,0,0,1,.387.155,9.789,9.789,0,0,0,5.958,2.476c1.857,0,3.792-.929,3.792-3.1,0-1.78-2.167-2.631-4.72-3.637-3.327-1.316-7.506-3.018-7.506-7.661,0-3.4,2.708-6.268,6.578-6.964V24.138a.666.666,0,0,1,.619-.619H42.65m0-.619H40.173a1.356,1.356,0,0,0-1.316,1.316V27c-3.947,1.006-6.578,3.947-6.578,7.583,0,5.185,4.566,6.964,7.97,8.357,2.321.929,4.256,1.7,4.256,3.018,0,1.857-2.012,2.321-3.1,2.321a8.846,8.846,0,0,1-5.417-2.321h0a1.243,1.243,0,0,0-.851-.387h-.155a1.435,1.435,0,0,0-.929.542l-1.935,2.4a1.286,1.286,0,0,0,.077,1.625,12.642,12.642,0,0,0,6.655,3.482v2.631a1.356,1.356,0,0,0,1.316,1.316H42.65a1.259,1.259,0,0,0,1.316-1.316V53.621a8.176,8.176,0,0,0,6.655-8.048c0-4.952-4.256-6.655-7.738-7.97-2.4-.929-4.411-1.7-4.411-3.173,0-1.238,1.316-2.167,3.25-2.167a8.321,8.321,0,0,1,4.566,1.78h0l.077.077a1.623,1.623,0,0,0,.851.31h.232a1.233,1.233,0,0,0,.929-.7l1.47-2.708a1.293,1.293,0,0,0-.155-1.548,10.942,10.942,0,0,0-5.649-2.708V24.138A1.361,1.361,0,0,0,42.65,22.9Z" transform="translate(-31.871 -22.9)"/>
      </g>
    </g>
    <g id="Group_2883" data-name="Group 2883" transform="translate(-0.022)">
      <path id="Path_4179" data-name="Path 4179" class="cls-1" d="M33.966,69.4a33.432,33.432,0,0,1-13.774-2.941A34.056,34.056,0,0,1,47.74,4.166a3.881,3.881,0,1,1-3.1,7.119A26.313,26.313,0,1,0,58.109,46.107,26.086,26.086,0,0,0,57.1,22.66,3.85,3.85,0,0,1,58.651,17.4a3.891,3.891,0,0,1,5.262,1.47,33.71,33.71,0,0,1,1.316,30.411A34.318,34.318,0,0,1,33.966,69.4Z" transform="translate(0.022 -0.296)"/>
      <g id="Group_2882" data-name="Group 2882" transform="translate(39.946)">
        <path id="Path_4180" data-name="Path 4180" class="cls-1" d="M51.6,13l15.4.7L59.88,0Z" transform="translate(-51.6)"/>
      </g>
    </g>
  </g>
</svg>
