<svg xmlns="http://www.w3.org/2000/svg" width="71.129" height="80" viewBox="0 0 71.129 80"><g transform="translate(-164.328 -156.93)"><path d="M235.457,223.593c0,7.362-15.924,13.337-35.564,13.337s-35.565-5.975-35.565-13.337V212.521c6.123,6.309,20.894,9.59,35.565,9.59s29.441-3.281,35.564-9.59Z" fill="#c6cfd1"/><path d="M235.457,205.811h-.012c0,.03.012.062.012.092,0,7.317-15.924,13.245-35.564,13.245s-35.565-5.928-35.565-13.245c0-.03.012-.062.012-.092h-.012V194.738c6.123,6.31,20.894,9.591,35.565,9.591s29.441-3.281,35.564-9.591Z" fill="#c6cfd1"/><path d="M235.457,188.029h-.012c0,.029.012.062.012.092,0,7.317-15.924,13.244-35.564,13.244s-35.565-5.927-35.565-13.244c0-.03.012-.063.012-.092h-.012V177.845c7.768,5.919,22.006,8.7,35.565,8.7s27.8-2.783,35.564-8.7Z" fill="#c6cfd1"/><ellipse cx="35.565" cy="13.337" rx="35.565" ry="13.337" transform="translate(164.328 156.93)" fill="#c6cfd1"/></g></svg>