<svg xmlns="http://www.w3.org/2000/svg" width="80.419" height="80" viewBox="0 0 80.419 80"><g transform="translate(70.999 -156.355)"><path d="M-31.079,156.355c-20.416,0-19.141,8.853-19.141,8.853l.023,9.172h19.482v2.754h-27.22S-71,175.652-71,196.251s11.4,19.869,11.4,19.869h6.805v-9.559s-.366-11.4,11.221-11.4h19.322s10.856.175,10.856-10.492V167.029S-9.744,156.355-31.079,156.355Zm-10.743,6.167a3.5,3.5,0,0,1,3.5,3.5,3.5,3.5,0,0,1-3.5,3.505,3.5,3.5,0,0,1-3.505-3.505A3.5,3.5,0,0,1-41.822,162.522Z" fill="#c6cfd1"/><path d="M-30.5,236.355c20.416,0,19.141-8.854,19.141-8.854l-.023-9.172H-30.864v-2.754h27.22S9.42,217.057,9.42,196.458s-11.4-19.869-11.4-19.869h-6.8v9.559s.366,11.4-11.221,11.4H-39.33s-10.856-.175-10.856,10.492V225.68S-51.834,236.355-30.5,236.355Zm10.743-6.168a3.5,3.5,0,0,1-3.5-3.5,3.5,3.5,0,0,1,3.5-3.505,3.5,3.5,0,0,1,3.5,3.505A3.5,3.5,0,0,1-19.757,230.187Z" fill="#c6cfd1"/></g></svg>