<svg xmlns="http://www.w3.org/2000/svg" viewBox="0 0 41.981 41.979"><defs><style>.a{fill:#b9ccc2;}</style></defs><path class="a" d="M-8889.035-6825.021a20.853,20.853,0,0,1-14.843-6.147,20.848,20.848,0,0,1-6.148-14.841,20.851,20.851,0,0,1,6.148-14.842,20.852,20.852,0,0,1,14.843-6.148,20.856,20.856,0,0,1,14.843,6.148,20.856,20.856,0,0,1,6.147,14.842,20.853,20.853,0,0,1-6.147,14.841A20.857,20.857,0,0,1-8889.035-6825.021Zm-.383-14.112a2.471,2.471,0,0,0-1.771.657,2.226,2.226,0,0,0-.691,1.675,2.2,2.2,0,0,0,.676,1.652,2.478,2.478,0,0,0,1.786.653,2.482,2.482,0,0,0,1.787-.653,2.2,2.2,0,0,0,.677-1.652,2.229,2.229,0,0,0-.692-1.675A2.476,2.476,0,0,0-8889.418-6839.133Zm.3-14.4c1.574,0,2.372.866,2.372,2.574a3.158,3.158,0,0,1-.456,1.624,9.761,9.761,0,0,1-1.834,1.995,6.982,6.982,0,0,0-1.892,2.486,9.2,9.2,0,0,0-.519,3.395h3.893l.063-.928a4.2,4.2,0,0,1,1.322-2.6l1.231-1.172a10.043,10.043,0,0,0,2.021-2.549,5.38,5.38,0,0,0,.579-2.444,5.569,5.569,0,0,0-1.779-4.405,7.374,7.374,0,0,0-5-1.561,7.35,7.35,0,0,0-5.041,1.644,5.893,5.893,0,0,0-1.878,4.553h4.409a2.749,2.749,0,0,1,.707-1.914A2.419,2.419,0,0,1-8889.113-6853.534Z" transform="translate(8910.026 6867)"/></svg>