<svg xmlns="http://www.w3.org/2000/svg" width="72.274" height="75.105" viewBox="0 0 72.274 75.105"><g transform="translate(-817.443 -181.513)"><path d="M888.58,249.972l-16.13-16.19A27.128,27.128,0,0,0,871,195.024a4.605,4.605,0,0,0,2.936-4.189,3.881,3.881,0,0,0-1.66-3.422,6.234,6.234,0,0,0-3.589-.987,5.914,5.914,0,0,0-.882.042l.294-2.1h5.291v-2.624H865.87l-.9,7.159a11.786,11.786,0,0,1,1.848-.126c2.73,0,3.842.861,3.842,2.268,0,1.212-.987,1.845-2.084,2.021a27.177,27.177,0,0,0-5.645-3.13v-.193h-.49q-.567-.217-1.147-.411v-7.588h-3.906l-3.859,6.213c-.272-.008-.542-.021-.816-.021a27.251,27.251,0,0,0-4.481.376,4.165,4.165,0,0,0-.672-.186v-.042a3.269,3.269,0,0,0,2.5-3.17c0-1.869-1.616-3.4-4.535-3.4a8.563,8.563,0,0,0-4.22,1.028l.651,2.31a6.228,6.228,0,0,1,2.856-.819c1.343,0,2.015.609,2.015,1.428,0,1.155-1.365,1.554-2.435,1.575h-1.239v2.288h1.008a27.08,27.08,0,0,0-6.889,3.444h-3.423v-.042l1.26-1.05c1.973-1.764,3.632-3.591,3.632-5.879,0-2.478-1.7-4.283-4.787-4.283a7.556,7.556,0,0,0-4.472,1.406l.9,2.289a4.949,4.949,0,0,1,2.919-1.134c1.575,0,2.247.882,2.247,1.995-.043,1.6-1.491,3.128-4.473,5.795l-1.763,1.6v1.932h4.729a27.293,27.293,0,0,0-6.348,9.1c-.244-3.293-1.722-5.979-5.04-5.979-3.527,0-5.207,3.129-5.207,7.076.022,3.863,1.575,7.033,5.1,7.033a4.553,4.553,0,0,0,3.239-1.206A27.162,27.162,0,0,0,866.3,238.65l16.761,16.822a3.9,3.9,0,0,0,5.519-5.5Zm-65.951-39.764c-1.238,0-1.994-1.49-1.973-4.619-.021-3.17.777-4.661,1.952-4.661,1.281,0,1.932,1.6,1.932,4.619C824.54,208.654,823.868,210.208,822.629,210.208Zm49.473,4.913a19.29,19.29,0,0,1-4.686,12.6v-25.21A19.292,19.292,0,0,1,872.1,215.121Zm-15.074-28.4c.462-.861.82-1.659,1.26-2.541h.084c-.063.882-.1,1.722-.1,2.541v1.79c-.7-.146-1.407-.258-2.123-.349Zm-14.455,18.407c2.63,0,3.965,3.275,3.965,9.48,0,6.377-1.379,9.566-3.921,9.566s-4.094-3.059-4.052-9.48C838.523,208.188,840.16,205.127,842.573,205.127ZM838.6,228.383a9.784,9.784,0,0,0,3.845.744c7.151,0,10.642-5.944,10.642-14.606,0-7.67-2.93-14.35-10.428-14.35a10.646,10.646,0,0,0-2.645.325,19.28,19.28,0,0,1,25.556.15h-3.581l-7.411,3.447,1.076,4.912L861,206.464h.086v22.19h5.49a19.315,19.315,0,0,1-27.973-.271Z" fill="#c6cfd1"/><path d="M821.685,184.578h.042v10.813h3.086V181.744h-2.645l-3.611,1.68.524,2.394Z" fill="#c6cfd1"/><path d="M818.557,217.424l.524,2.394,2.6-1.238h.042v10.813h3.086V215.744h-2.645Z" fill="#c6cfd1"/></g></svg>