<svg xmlns="http://www.w3.org/2000/svg" width="85.934" height="85.934" viewBox="0 0 85.934 85.934"><g transform="translate(-263.033 -353.033)"><path d="M306.623,438.967c-11.089,0-19.451-18.472-19.451-42.967s8.362-42.967,19.451-42.967,19.45,18.472,19.45,42.967S317.711,438.967,306.623,438.967Zm0-80c-6.381,0-13.517,15.838-13.517,37.033s7.136,37.033,13.517,37.033S320.14,417.2,320.14,396,313,358.967,306.623,358.967Z" fill="#c6cfd1"/><path d="M306,415.45c-24.495,0-42.967-8.361-42.967-19.45S281.505,376.55,306,376.55s42.967,8.362,42.967,19.45S330.495,415.45,306,415.45Zm0-32.967c-21.2,0-37.033,7.137-37.033,13.517S284.8,409.517,306,409.517,343.033,402.38,343.033,396,327.2,382.483,306,382.483Z" fill="#c6cfd1"/><path d="M284.913,429.551a11.829,11.829,0,0,1-8.673-3.169c-7.84-7.841-.691-26.815,16.629-44.136s36.3-24.468,44.136-16.628.692,26.815-16.629,44.135h0C307.8,422.335,294.339,429.551,284.913,429.551Zm43.431-61.181a24,24,0,0,0-8.823,2.128c-7.194,3-15.168,8.657-22.456,15.944-14.987,14.988-21.14,31.233-16.628,35.745s20.756-1.643,35.744-16.629h0c14.987-14.988,21.139-31.232,16.629-35.744A6.166,6.166,0,0,0,328.344,368.37Z" fill="#c6cfd1"/><path d="M328.351,429.56a29.532,29.532,0,0,1-11.111-2.58c-7.893-3.286-16.548-9.4-24.371-17.227s-13.941-16.478-17.227-24.371c-3.633-8.726-3.421-15.745.6-19.764,7.843-7.839,26.817-.691,44.136,16.628h0c17.32,17.32,24.47,36.295,16.63,44.136A11.8,11.8,0,0,1,328.351,429.56Zm-43.493-61.2a6.073,6.073,0,0,0-4.421,1.449c-2.144,2.144-1.889,7.111.683,13.287,2.995,7.194,8.658,15.17,15.945,22.457s15.262,12.95,22.456,15.945c6.177,2.571,11.143,2.827,13.289.684,4.51-4.512-1.643-20.757-16.629-35.745C304.423,374.685,291.891,368.365,284.858,368.365Z" fill="#c6cfd1"/><circle cx="6.044" cy="6.044" r="6.044" transform="translate(300.579 390.286)" fill="#c6cfd1"/></g></svg>