<svg xmlns="http://www.w3.org/2000/svg" viewBox="0 0 46.734 60"><defs><style>.a{fill:none;}.b{fill:#464646;}</style></defs><g transform="translate(0.03 0.042)"><path class="a" d="M56.084,72.9a.558.558,0,0,1-.132-1.053.523.523,0,0,0,.2-.823c-.132-.2-.263-.428-.395-.658a.422.422,0,0,0-.625-.2c-.691.3-.987.033-.921-.724.066-.3-.1-.461-.362-.559a5.45,5.45,0,0,1-.691-.2c-.395-.132-.625-.033-.757.362-.2.559-.724.625-1.086.132a.505.505,0,0,0-.79-.165l-.494.3c-.395.2-.461.428-.3.856.23.526-.1.921-.691.823a.521.521,0,0,0-.691.428c-.066.23-.1.461-.165.691-.132.329-.033.526.329.691.658.263.691.691.132,1.152-.263.2-.329.362-.165.625a3.75,3.75,0,0,1,.329.625.565.565,0,0,0,.856.3c.526-.23.954.1.823.658-.1.395.066.592.428.691a5.917,5.917,0,0,1,.724.2c.329.1.494,0,.625-.329.3-.658.724-.724,1.152-.132a.465.465,0,0,0,.691.165c.23-.132.461-.3.691-.428a.444.444,0,0,0,.2-.691c-.263-.625.033-.987.724-.888a.414.414,0,0,0,.559-.329,5.447,5.447,0,0,1,.2-.691C56.61,73.295,56.544,73.031,56.084,72.9ZM52.3,74.117a1.33,1.33,0,0,1-1.25-1.316,1.251,1.251,0,1,1,2.5.066A1.21,1.21,0,0,1,52.3,74.117Z" transform="translate(-32.313 -46.077)"/><path class="a" d="M74.281,31.208c-.263-1.086-.3-1.152-1.415-.954-.2.033-.395.1-.592-.1-.592-.526-.658-.888-.23-1.612.329-.559.3-.79-.263-1.185-.362-.263-.757-.494-1.119-.724-.888-.559-1.053-.526-1.645.329a.707.707,0,0,1-.757.362,1,1,0,0,1-1.053-.987c-.066-.592-.395-.757-1.02-.625-.428.1-.823.2-1.25.3-1.02.23-1.119.395-.921,1.415.033.23.1.428-.1.658-.625.592-.856.625-1.612.2-.592-.329-.79-.3-1.152.263-.263.395-.526.823-.79,1.217-.461.724-.395.987.329,1.481.23.165.461.263.461.592-.033.823-.165,1.02-.954,1.25-.625.165-.757.362-.658,1.02.066.428.2.823.3,1.25.263,1.086.329,1.152,1.415.954.2-.033.428-.1.592.066a1.059,1.059,0,0,1,.23,1.579c-.362.592-.3.856.263,1.217.395.263.823.526,1.25.79.724.461,1.02.395,1.481-.329.132-.2.2-.428.461-.461a1.169,1.169,0,0,1,1.382.954c.1.428.263.724.921.691.395-.1.921-.2,1.448-.329.987-.23,1.086-.362.856-1.382-.033-.23-.132-.428.1-.658.592-.592.888-.625,1.612-.2.559.329.79.3,1.185-.263.3-.428.559-.856.823-1.283.461-.724.395-.954-.329-1.415-.23-.132-.494-.2-.494-.592.033-.823.2-1.053,1.02-1.283.592-.165.757-.428.625-1.053A3.182,3.182,0,0,1,74.281,31.208Zm-7.239,4.343a2.238,2.238,0,1,1,2.2-2.27A2.284,2.284,0,0,1,67.042,35.552Z" transform="translate(-39.948 -17.252)"/><path class="a" d="M31.653,47.438c-.3-.362-.165-.658.1-.987.329-.461.724-.132,1.152-.1.23.033.395-.165.461-.428.1-.329.2-.691.263-1.02.2-.724.132-.823-.592-1.053a.632.632,0,0,1-.461-.592.707.707,0,0,1,.3-.757c.658-.428.658-.559.263-1.217-.132-.2-.23-.395-.362-.592-.395-.658-.461-.691-1.152-.329a.553.553,0,0,1-.724-.1c-.23-.2-.428-.362-.329-.724.165-.79.1-.856-.691-1.086-.2-.066-.362-.1-.559-.165-.79-.2-.888-.165-1.152.592-.132.362-.395.395-.658.461a.6.6,0,0,1-.658-.263c-.494-.724-.494-.724-1.283-.263-.2.1-.362.23-.559.329-.658.395-.691.461-.329,1.152a.6.6,0,0,1-.066.757c-.2.23-.362.428-.724.362-.888-.165-.888-.132-1.119.724-.066.2-.1.362-.165.559-.2.757-.132.856.592,1.119a.785.785,0,0,1,.3,1.217c-.79.691-.79.691-.263,1.547.066.132.165.263.23.395.362.625.461.658,1.086.3a.516.516,0,0,1,.724.033c.23.2.461.362.395.757-.165.79-.132.856.658,1.053a3.442,3.442,0,0,0,.559.132c.823.23.888.2,1.185-.592a.8.8,0,0,1,1.25-.23c.625.757.625.757,1.481.263.2-.132.395-.23.592-.362C31.851,48.129,31.949,47.833,31.653,47.438ZM28.1,45.5a1.678,1.678,0,0,1,0-3.356,1.731,1.731,0,0,1,1.711,1.645A1.7,1.7,0,0,1,28.1,45.5Z" transform="translate(-15.122 -25.651)"/><g transform="translate(-0.03 -0.042)"><path class="b" d="M45.521,30.277c-.559-1.053-1.152-2.073-1.711-3.126a4.7,4.7,0,0,1-.494-2.994,48.464,48.464,0,0,0,.658-6.581A13.411,13.411,0,0,0,40.19,7.935a26.72,26.72,0,0,0-6.318-4.9A22.378,22.378,0,0,0,24.2,0,22.045,22.045,0,0,0,14.031,1.782,26.688,26.688,0,0,0,5.475,7.606,18.615,18.615,0,0,0,.934,15.437a20.767,20.767,0,0,0-.888,8.029,16.538,16.538,0,0,0,3.093,8.095,62.77,62.77,0,0,1,3.488,5.4c1.316,2.4,2.238,4.9,1.382,7.733a.97.97,0,0,0,.362,1.053l1.547,1.448c3.949,3.784,7.9,7.535,11.846,11.319.526.494,1.086.954,1.612,1.448h.691c.592-.395.625-1.086.823-1.711a22.264,22.264,0,0,1,3.85-7.5,3.71,3.71,0,0,1,2.994-1.579c1.316.033,2.6.2,3.916.329a11.378,11.378,0,0,0,3.949-.1,2.611,2.611,0,0,0,2.2-2.534c.263-1.843.494-3.718.823-5.561.461-2.5,1.283-4.837,3.488-6.384a1.512,1.512,0,0,0,.592-1.217A7,7,0,0,0,45.521,30.277ZM14.228,22.808a.806.806,0,0,0-1.25.23c-.3.79-.362.823-1.185.592a3.442,3.442,0,0,0-.559-.132c-.757-.2-.823-.263-.658-1.053.1-.395-.132-.559-.395-.757a.518.518,0,0,0-.724-.033c-.625.362-.724.329-1.086-.3-.066-.132-.165-.263-.23-.395-.526-.921-.526-.921.263-1.579a.785.785,0,0,0-.3-1.217c-.724-.263-.79-.362-.592-1.119a3.6,3.6,0,0,1,.165-.559c.23-.856.23-.888,1.119-.724.362.066.526-.132.724-.362a.593.593,0,0,0,.066-.757c-.362-.658-.329-.757.329-1.152.2-.1.362-.23.559-.329.79-.428.79-.428,1.283.263a.578.578,0,0,0,.658.263c.3-.066.559-.1.658-.461.263-.757.362-.79,1.152-.592.2.066.362.1.559.165.79.23.856.3.691,1.086a.687.687,0,0,0,.329.724.594.594,0,0,0,.724.1c.691-.362.757-.329,1.152.329.132.2.23.395.362.592.395.658.362.79-.263,1.217a.707.707,0,0,0-.3.757.632.632,0,0,0,.461.592c.724.23.757.329.592,1.053-.1.329-.165.691-.263,1.02-.066.263-.23.461-.461.428-.428-.033-.79-.329-1.152.1-.263.329-.395.625-.1.987.3.395.165.691-.23.921-.2.132-.395.23-.592.362C14.886,23.565,14.853,23.565,14.228,22.808Zm9.9,4.8a5.445,5.445,0,0,1-.2.691.418.418,0,0,1-.559.329c-.691-.1-.987.263-.724.888a.484.484,0,0,1-.2.691,7.872,7.872,0,0,0-.691.428c-.3.2-.494.1-.691-.165-.428-.559-.856-.526-1.152.132-.132.3-.3.428-.625.329-.23-.066-.494-.132-.724-.2-.362-.1-.494-.263-.428-.691a.556.556,0,0,0-.823-.658.565.565,0,0,1-.856-.3c-.1-.2-.23-.428-.329-.625a.4.4,0,0,1,.165-.625c.559-.428.526-.888-.132-1.152A.476.476,0,0,1,15.84,26,5.259,5.259,0,0,0,16,25.309a.521.521,0,0,1,.691-.428c.592.1.921-.3.691-.823a.572.572,0,0,1,.3-.856l.494-.3c.329-.2.559-.2.79.165.362.494.888.461,1.086-.132.165-.395.395-.494.757-.362l.691.2c.3.1.428.263.362.559-.066.757.263,1.02.921.724a.436.436,0,0,1,.625.2c.132.23.263.428.395.658.23.329.2.592-.2.823a.564.564,0,0,0,.132,1.053C24.231,26.954,24.3,27.217,24.132,27.612ZM33.971,16.26c-.823.23-.987.461-1.02,1.283,0,.362.263.428.494.592.724.461.79.691.329,1.415-.263.428-.526.856-.823,1.283-.362.559-.592.592-1.185.263-.724-.428-1.02-.362-1.612.2-.2.2-.132.428-.1.658.2,1.02.132,1.152-.856,1.382-.526.132-1.053.23-1.448.329-.658.033-.823-.263-.921-.691a1.169,1.169,0,0,0-1.382-.954c-.3.033-.362.3-.461.461-.461.724-.724.79-1.481.329-.428-.263-.823-.526-1.25-.79-.559-.362-.625-.625-.263-1.217a1.059,1.059,0,0,0-.23-1.579.56.56,0,0,0-.592-.066c-1.086.2-1.152.132-1.415-.954-.1-.428-.2-.823-.3-1.25-.1-.625.033-.856.658-1.02.823-.23.921-.428.954-1.25,0-.362-.263-.461-.461-.592-.724-.494-.79-.757-.329-1.481.263-.428.526-.823.79-1.217.362-.559.592-.592,1.152-.263.757.428.987.395,1.612-.2.2-.2.132-.428.1-.658-.2-1.02-.1-1.152.921-1.415.428-.1.823-.2,1.25-.3.625-.132.954,0,1.02.625.1.691.461.888,1.053.987a.707.707,0,0,0,.757-.362c.559-.888.724-.921,1.645-.329a13.017,13.017,0,0,1,1.119.724c.559.362.592.592.263,1.185A1.075,1.075,0,0,0,32.194,13a.653.653,0,0,0,.592.1c1.119-.2,1.152-.165,1.415.954.1.428.2.823.3,1.25C34.728,15.832,34.563,16.1,33.971,16.26Z" transform="translate(0.03 0.042)"/><path class="b" d="M77.8,42.1a2.238,2.238,0,1,0,.066,4.475,2.36,2.36,0,0,0,2.238-2.27A2.384,2.384,0,0,0,77.8,42.1Z" transform="translate(-50.712 -28.232)"/><path class="b" d="M36.245,50.2A1.637,1.637,0,0,0,34.6,51.878a1.617,1.617,0,0,0,1.645,1.678,1.678,1.678,0,1,0,0-3.356Z" transform="translate(-23.205 -33.668)"/><path class="b" d="M58.383,77.6A1.211,1.211,0,0,0,57.1,78.815a1.33,1.33,0,0,0,1.25,1.316,1.237,1.237,0,0,0,1.283-1.25A1.278,1.278,0,0,0,58.383,77.6Z" transform="translate(-38.301 -52.049)"/></g></g></svg>