<svg xmlns="http://www.w3.org/2000/svg" viewBox="0 0 62.115 79.998"><defs><style>.a{fill:#C6CFD1;}</style></defs><g transform="translate(-749 -2929)"><g transform="translate(749 2928.998)"><path class="a" d="M57.115,71.785H5a5.006,5.006,0,0,1-5-5V5A5.006,5.006,0,0,1,5,0H57.115a5.006,5.006,0,0,1,5,5V66.785A5.006,5.006,0,0,1,57.115,71.785ZM11.423,42.174a2,2,0,0,0-2,2v1.384a2,2,0,0,0,2,2H52a2,2,0,0,0,2-2V44.174a2,2,0,0,0-2-2ZM11,9.872a2,2,0,0,0-2,2V33.893a2,2,0,0,0,2,2H52a2,2,0,0,0,2-2V11.872a2,2,0,0,0-2-2Z"/><rect class="a" width="61" height="3.721" rx="1.86" transform="translate(1 76.279)"/></g><rect class="a" width="6" height="20.465" rx="3" transform="translate(749 2988.533)"/></g></svg>