<svg xmlns="http://www.w3.org/2000/svg" viewBox="0 0 40 40"><defs><style>.a{fill:#fff;}.b{fill:#105d39;}</style></defs><g transform="translate(-215 -583)"><circle class="a" cx="20" cy="20" r="20" transform="translate(215 583)"/><path class="b" d="M-5.57,1.438H-9.748V-11.994H-5.57ZM-7.637-13.836a2.332,2.332,0,0,1-1.707-.719,2.332,2.332,0,0,1-.719-1.707,2.332,2.332,0,0,1,.719-1.707,2.332,2.332,0,0,1,1.707-.719,2.332,2.332,0,0,1,1.707.719,2.332,2.332,0,0,1,.719,1.707,2.332,2.332,0,0,1-.719,1.707A2.332,2.332,0,0,1-7.637-13.836Zm17.7,15.273H5.885V-5.121a7.256,7.256,0,0,0-.27-2.336A1.891,1.891,0,0,0,3.684-8.67,2.1,2.1,0,0,0,1.662-7.592a5.015,5.015,0,0,0-.449,2.381V1.438H-2.92V-11.994h4v1.842h.045a3.59,3.59,0,0,1,1.438-1.482,4.429,4.429,0,0,1,2.516-.719q2.92,0,4.088,1.842a9.085,9.085,0,0,1,.9,4.582Z" transform="translate(236 611)"/></g></svg>