<svg xmlns="http://www.w3.org/2000/svg" viewBox="0 0 21 21"><defs><style>.a{fill:#2083bc;}.b{fill:#fff;}</style></defs><g transform="translate(-137 -4382)"><rect class="a" width="21" height="21" rx="3" transform="translate(137 4382)"/><path class="b" d="M-3.875,1H-6.781V-8.344h2.906ZM-5.312-9.625a1.622,1.622,0,0,1-1.187-.5A1.622,1.622,0,0,1-7-11.312,1.622,1.622,0,0,1-6.5-12.5,1.622,1.622,0,0,1-5.312-13a1.622,1.622,0,0,1,1.188.5,1.622,1.622,0,0,1,.5,1.188,1.622,1.622,0,0,1-.5,1.188A1.622,1.622,0,0,1-5.312-9.625ZM7,1H4.094V-3.562a5.048,5.048,0,0,0-.187-1.625,1.315,1.315,0,0,0-1.344-.844,1.464,1.464,0,0,0-1.406.75A3.488,3.488,0,0,0,.844-3.625V1H-2.031V-8.344H.75v1.281H.781a2.5,2.5,0,0,1,1-1.031,3.081,3.081,0,0,1,1.75-.5A3.1,3.1,0,0,1,6.375-7.312,6.32,6.32,0,0,1,7-4.125Z" transform="translate(148 4399)"/></g></svg>