<svg xmlns="http://www.w3.org/2000/svg" viewBox="0 0 40 40">
  <defs>
    <style>
      .cls-1 {
        fill: #fff;
      }
    </style>
  </defs>
  <path id="Path_14" data-name="Path 14" class="cls-1" d="M3157,40a20,20,0,0,1-7.785-38.428,20.005,20.005,0,0,1,15.57,36.856A19.876,19.876,0,0,1,3157,40Zm4.684-20.669a1.9,1.9,0,0,1,1.931,1.213,7.29,7.29,0,0,1,.269,2.336v6.558h4.178V22.071a9.133,9.133,0,0,0-.9-4.583c-.775-1.222-2.15-1.841-4.088-1.841a4.442,4.442,0,0,0-2.515.719,3.6,3.6,0,0,0-1.437,1.482h-.045V16.006h-4V29.437h4.133V22.789a5.029,5.029,0,0,1,.45-2.381A2.111,2.111,0,0,1,3161.684,19.33Zm-13.432-3.325V29.437h4.178V16.006Zm2.112-6.693a2.414,2.414,0,0,0-1.707,4.133,2.414,2.414,0,1,0,3.414-3.414A2.339,2.339,0,0,0,3150.364,9.312Z" transform="translate(-3137)"/>
</svg>
