<svg xmlns="http://www.w3.org/2000/svg" width="273.06" height="65" viewBox="0 0 273.06 65"><defs><style>.cls-1{fill:#1b80c4;}.cls-1,.cls-2{fill-rule:evenodd;}</style></defs><title>logo-columbia-business-school-executive-education</title><g id="Layer_2" data-name="Layer 2"><g id="Layer_1-2" data-name="Layer 1"><path class="cls-1" d="M40.23,32.54,39,36.15h2.43l-1.21-3.61ZM42,37.67H38.48l-.8,2.24H35.86l3.62-9.54H41l3.62,9.54H42.77L42,37.67Z"/><polygon class="cls-1" points="48.29 39.91 46.61 39.91 46.61 32.1 43.88 32.1 43.88 30.54 51.02 30.54 51.02 32.1 48.29 32.1 48.29 39.91 48.29 39.91"/><polygon class="cls-1" points="58.86 39.91 57.18 39.91 57.18 32.1 54.45 32.1 54.45 30.54 61.59 30.54 61.59 32.1 58.86 32.1 58.86 39.91 58.86 39.91"/><polygon class="cls-1" points="70.09 30.54 70.09 39.91 68.4 39.91 68.4 35.9 64.46 35.9 64.46 39.91 62.78 39.91 62.78 30.54 64.46 30.54 64.46 34.33 68.4 34.33 68.4 30.54 70.09 30.54 70.09 30.54"/><polygon class="cls-1" points="78.56 30.54 78.56 32.1 73.59 32.1 73.59 34.33 77.99 34.33 77.99 35.9 73.59 35.9 73.59 38.35 78.79 38.35 78.79 39.91 71.91 39.91 71.91 30.54 78.56 30.54 78.56 30.54"/><polygon class="cls-1" points="86.25 37.9 86.99 35.69 88.75 30.54 90.61 30.54 87.08 40.08 85.42 40.08 81.89 30.54 83.75 30.54 85.5 35.69 86.25 37.9 86.25 37.9"/><polygon class="cls-1" points="98.26 30.54 98.26 32.1 93.3 32.1 93.3 34.33 97.7 34.33 97.7 35.9 93.3 35.9 93.3 38.35 98.49 38.35 98.49 39.91 91.62 39.91 91.62 30.54 98.26 30.54 98.26 30.54"/><path class="cls-1" d="M104.1,34.66c.59,0,1.36-.11,1.36-1.28s-.77-1.28-1.36-1.28h-2.29v2.56Zm-2.29,5.25h-1.69V30.54H104c1.63,0,3.19.54,3.19,2.84a2.42,2.42,0,0,1-1.85,2.67l2.27,3.86h-2l-2.1-3.68h-1.72v3.68Z"/><polygon class="cls-1" points="112.86 39.91 111.18 39.91 111.18 36.03 107.55 30.54 109.48 30.54 111.26 33.32 112.02 34.54 112.78 33.32 114.56 30.54 116.49 30.54 112.86 36.03 112.86 39.91 112.86 39.91"/><path class="cls-1" d="M123.06,38.52c1.27,0,1.82-.47,2-1.59l1.69.18c-.19,1.8-1.27,3-3.68,3-2.88,0-4-1.94-4-4.86s1.13-4.85,4-4.85c2.41,0,3.49,1.16,3.68,3l-1.69.18c-.17-1.12-.72-1.59-2-1.59-1.92,0-2.29,1.55-2.29,3.29s.37,3.3,2.29,3.3Z"/><polygon class="cls-1" points="134.88 30.54 134.88 32.1 129.91 32.1 129.91 34.33 134.31 34.33 134.31 35.9 129.91 35.9 129.91 38.35 135.1 38.35 135.1 39.91 128.23 39.91 128.23 30.54 134.88 30.54 134.88 30.54"/><polygon class="cls-1" points="139.32 35.08 138.4 33.64 138.42 35.88 138.42 39.91 136.74 39.91 136.74 30.54 138.29 30.54 141.52 35.37 142.44 36.81 142.42 34.56 142.42 30.54 144.1 30.54 144.1 39.91 142.55 39.91 139.32 35.08 139.32 35.08"/><polygon class="cls-1" points="149.7 39.91 148.02 39.91 148.02 32.1 145.29 32.1 145.29 30.54 152.43 30.54 152.43 32.1 149.7 32.1 149.7 39.91 149.7 39.91"/><polygon class="cls-1" points="160.26 30.54 160.26 32.1 155.3 32.1 155.3 34.33 159.7 34.33 159.7 35.9 155.3 35.9 155.3 38.35 160.49 38.35 160.49 39.91 153.62 39.91 153.62 30.54 160.26 30.54 160.26 30.54"/><path class="cls-1" d="M166.1,34.66c.59,0,1.36-.11,1.36-1.28s-.77-1.28-1.36-1.28h-2.29v2.56Zm-2.29,5.25h-1.68V30.54H166c1.62,0,3.18.54,3.18,2.84a2.42,2.42,0,0,1-1.85,2.67l2.27,3.86h-2l-2.1-3.68h-1.72v3.68Z"/><path class="cls-1" d="M175,35.22c0,1.78.49,3.3,2.5,3.3s2.48-1.52,2.48-3.3-.48-3.29-2.48-3.29-2.5,1.51-2.5,3.29Zm-1.71,0c0-2.95,1.24-4.85,4.21-4.85s4.2,1.9,4.2,4.85-1.24,4.86-4.2,4.86-4.21-1.9-4.21-4.86Z"/><polygon class="cls-1" points="184.91 39.91 183.23 39.91 183.23 30.54 189.63 30.54 189.63 32.1 184.91 32.1 184.91 34.33 189.05 34.33 189.05 35.9 184.91 35.9 184.91 39.91 184.91 39.91"/><path class="cls-1" d="M197.6,38.35c.55,0,1.39-.08,1.39-1.2s-.73-1.25-1.35-1.25h-2.35v2.45Zm-2.31-6.25v2.23h2.21c.72,0,1.18-.21,1.18-1.14s-.45-1.09-1.18-1.09Zm-1.68,7.81V30.54h4c1.19,0,2.79.43,2.79,2.59a2.11,2.11,0,0,1-.85,1.86,2.22,2.22,0,0,1,1.15,2.18c0,2.28-1.44,2.74-3,2.74Z"/><path class="cls-1" d="M202.11,36.48V30.54h1.69v5.94c0,1.15.36,2,2.14,2s2.13-.89,2.13-2V30.54h1.69v5.94c0,2.05-.9,3.6-3.82,3.6s-3.83-1.55-3.83-3.6Z"/><path class="cls-1" d="M211.17,37.21l1.71-.18c.13,1.09.81,1.49,2.08,1.49.94,0,2-.37,2-1.4,0-.82-.49-1.16-2-1.31-1.72-.14-3.4-.59-3.41-2.59s1.56-2.85,3.38-2.85c2.45,0,3.56,1.08,3.73,2.86l-1.7.18c-.14-1.11-.76-1.48-2-1.48-.64,0-1.7.24-1.7,1.3,0,.65.37.92,1.81,1.07,2.3.2,3.62.62,3.63,2.82s-1.8,3-3.66,3c-2.54,0-3.59-1-3.79-2.87Z"/><polygon class="cls-1" points="222.03 39.91 220.34 39.91 220.34 30.54 222.03 30.54 222.03 39.91 222.03 39.91"/><polygon class="cls-1" points="226.6 35.08 225.68 33.64 225.7 35.88 225.7 39.91 224.02 39.91 224.02 30.54 225.57 30.54 228.8 35.37 229.73 36.81 229.7 34.56 229.7 30.54 231.38 30.54 231.38 39.91 229.84 39.91 226.6 35.08 226.6 35.08"/><polygon class="cls-1" points="239.86 30.54 239.86 32.1 234.89 32.1 234.89 34.33 239.29 34.33 239.29 35.9 234.89 35.9 234.89 38.35 240.08 38.35 240.08 39.91 233.21 39.91 233.21 30.54 239.86 30.54 239.86 30.54"/><path class="cls-1" d="M241.41,37.21l1.7-.18c.13,1.09.81,1.49,2.08,1.49.94,0,2-.37,2-1.4,0-.82-.5-1.16-2.05-1.31-1.72-.14-3.4-.59-3.41-2.59s1.56-2.85,3.38-2.85c2.45,0,3.57,1.08,3.73,2.86l-1.7.18c-.13-1.11-.76-1.48-2-1.48-.64,0-1.7.24-1.7,1.3,0,.65.37.92,1.82,1.07,2.29.2,3.61.62,3.63,2.82s-1.81,3-3.67,3c-2.53,0-3.59-1-3.78-2.87Z"/><path class="cls-1" d="M250.09,37.21,251.8,37c.13,1.09.8,1.49,2.08,1.49.94,0,2-.37,2-1.4,0-.82-.49-1.16-2-1.31-1.72-.14-3.4-.59-3.41-2.59s1.56-2.85,3.37-2.85c2.45,0,3.57,1.08,3.74,2.86l-1.71.18c-.13-1.11-.75-1.48-2-1.48-.63,0-1.69.24-1.69,1.3,0,.65.37.92,1.81,1.07,2.3.2,3.62.62,3.63,2.82s-1.8,3-3.66,3c-2.54,0-3.6-1-3.79-2.87Z"/><path class="cls-2" d="M42.29,21c2,0,2.81-.73,3.07-2.46l2.62.28c-.29,2.79-2,4.6-5.69,4.6-4.46,0-6.21-3-6.21-7.52s1.75-7.51,6.21-7.51c3.72,0,5.4,1.8,5.69,4.59l-2.62.28c-.26-1.73-1.11-2.45-3.07-2.45-3,0-3.55,2.4-3.55,5.09s.58,5.1,3.55,5.1Z"/><path class="cls-2" d="M52.34,18.19c0,2,.85,2.82,2.23,2.82s2.23-.78,2.23-2.82-.86-2.83-2.23-2.83-2.23.78-2.23,2.83Zm-2.61,0c0-3.42,1.86-5.19,4.84-5.19s4.83,1.77,4.83,5.19-1.86,5.19-4.83,5.19-4.84-1.77-4.84-5.19Z"/><polygon class="cls-2" points="61.3 8.24 63.83 8.24 63.83 23.12 61.3 23.12 61.3 8.24 61.3 8.24"/><path class="cls-2" d="M73,22.07a4,4,0,0,1-3,1.31c-2.29,0-3.9-1.18-3.9-3.54V13.26h2.52v6.21c0,1,.69,1.53,1.73,1.53a2.6,2.6,0,0,0,2.48-1.73v-6h2.51v7.2l.17,2.66H73.22L73,22.07Z"/><path class="cls-2" d="M80.58,14.3A3.25,3.25,0,0,1,83.17,13,3.1,3.1,0,0,1,86,14.41,3.86,3.86,0,0,1,89.08,13a3.29,3.29,0,0,1,3.59,3.63v6.49H90.14V16.79a1.31,1.31,0,0,0-1.52-1.41,2.11,2.11,0,0,0-1.92,1.73v6H84.17V16.79a1.3,1.3,0,0,0-1.5-1.41,2.15,2.15,0,0,0-1.94,1.73v6H78.22v-7.2l-.17-2.66h2.33l.2,1Z"/><path class="cls-2" d="M99.93,15.38A2.35,2.35,0,0,0,97.56,17v2.31A2.35,2.35,0,0,0,99.93,21c1.3,0,2.28-.91,2.28-2.81s-1-2.81-2.28-2.81Zm-2.37-1.25A3.91,3.91,0,0,1,100.34,13c2.92,0,4.51,1.84,4.51,5.19s-1.59,5.19-4.51,5.19A3.8,3.8,0,0,1,97.4,22l-.21,1.08H94.87L95,20.46V8.24h2.52v5.89Z"/><path class="cls-2" d="M106.75,13.26h2.53v9.86h-2.53V13.26Zm2.66-1.62h-2.79V8.85h2.79v2.79Z"/><path class="cls-2" d="M115.18,21.22a2.71,2.71,0,0,0,2.71-1.79v-.8l-2.62.43c-1,.17-1.36.47-1.36,1.14s.47,1,1.27,1Zm-.3-4.06,3-.42v-.21c0-.87-.61-1.32-1.89-1.32s-1.73.47-1.87,1.27l-2.58-.34c.28-1.77,1.21-3.14,4.37-3.14,2.81,0,4.5,1.17,4.5,3.74v3.72l.17,2.66h-2.33l-.2-1.05a4.17,4.17,0,0,1-3.2,1.31c-2.62,0-3.63-1.29-3.63-3.07,0-2.2,1.42-2.83,3.65-3.15Z"/><path class="cls-2" d="M133.25,20.7c.86,0,2.16-.11,2.16-1.86s-1.13-1.94-2.08-1.94h-3.65v3.8ZM129.68,11v3.46h3.42c1.12,0,1.83-.34,1.83-1.77S134.24,11,133.1,11Zm-2.6,12.09V8.61h6.21c1.84,0,4.32.67,4.32,4a3.32,3.32,0,0,1-1.32,2.88,3.42,3.42,0,0,1,1.78,3.37c0,3.53-2.23,4.24-4.69,4.24Z"/><path class="cls-2" d="M146.66,22.07a3.93,3.93,0,0,1-3,1.31c-2.29,0-3.91-1.18-3.91-3.54V13.26h2.53v6.21c0,1,.69,1.53,1.73,1.53a2.58,2.58,0,0,0,2.47-1.73v-6H149v7.2l.17,2.66h-2.32l-.21-1.05Z"/><path class="cls-2" d="M157.13,20.07c0-.82-.79-.78-2.15-.92-1.92-.16-4-.35-4-2.9S153.28,13,155.2,13c2.81,0,4.13,1,4.39,3.1l-2.57.34c-.11-.78-.59-1.28-1.82-1.27-.78,0-1.56.23-1.56,1s.78.69,2,.82c2,.2,4.14.26,4.14,3,0,2.51-2.4,3.33-4.63,3.33-3,0-4.27-1.21-4.5-3.22l2.59-.34c.15.92.67,1.4,1.91,1.38s2-.28,2-1.13Z"/><path class="cls-2" d="M161.86,13.26h2.53v9.86h-2.53V13.26Zm2.66-1.62h-2.79V8.85h2.79v2.79Z"/><path class="cls-2" d="M169.45,14.3a3.93,3.93,0,0,1,3-1.3c2.29,0,3.91,1.17,3.91,3.53v6.59H173.8V16.9c0-1-.69-1.52-1.73-1.52a2.61,2.61,0,0,0-2.48,1.73v6h-2.51v-7.2l-.16-2.66h2.32l.21,1Z"/><path class="cls-2" d="M180.58,17.16h4.13a1.76,1.76,0,0,0-2-1.95,2,2,0,0,0-2.18,1.95Zm0,2a2,2,0,0,0,2.25,2c1.32,0,1.82-.5,2-1.17l2.58.32c-.26,1.65-1.35,3.07-4.5,3.07s-5-1.83-5-5.19S179.73,13,182.74,13s4.69,1.84,4.69,5.19v1Z"/><path class="cls-2" d="M195.15,20.07c0-.82-.8-.78-2.16-.92-1.91-.16-4-.35-4-2.9S191.3,13,193.21,13c2.81,0,4.13,1,4.39,3.1l-2.56.34c-.11-.78-.6-1.28-1.83-1.27-.78,0-1.56.23-1.56,1s.78.69,2,.82c2,.2,4.15.26,4.15,3,0,2.51-2.4,3.33-4.63,3.33-3,0-4.28-1.21-4.5-3.22l2.58-.34c.15.92.67,1.4,1.92,1.38,1.1,0,2-.28,2-1.13Z"/><path class="cls-2" d="M205.29,20.07c0-.82-.8-.78-2.16-.92-1.92-.16-4-.35-4-2.9S201.44,13,203.35,13c2.81,0,4.13,1,4.39,3.1l-2.57.34c-.11-.78-.59-1.28-1.82-1.27-.78,0-1.56.23-1.56,1s.78.69,2,.82c2,.2,4.15.26,4.15,3,0,2.51-2.4,3.33-4.63,3.33-3,0-4.28-1.21-4.51-3.22l2.59-.34c.15.92.67,1.4,1.92,1.38,1.09,0,2-.28,2-1.13Z"/><path class="cls-2" d="M213.9,18.93l2.64-.28c.2,1.7,1.24,2.31,3.21,2.31,1.46,0,3.09-.56,3.09-2.16,0-1.26-.76-1.8-3.16-2-2.66-.22-5.27-.91-5.28-4s2.41-4.41,5.22-4.41c3.8,0,5.53,1.67,5.79,4.43l-2.64.27c-.21-1.71-1.17-2.28-3.15-2.28-1,0-2.62.37-2.62,2,0,1,.58,1.43,2.81,1.65,3.55.32,5.6,1,5.62,4.37,0,3.24-2.79,4.58-5.68,4.58-3.92,0-5.56-1.57-5.85-4.45Z"/><path class="cls-2" d="M231.77,21c1.36,0,1.8-.5,2-1.37l2.58.33c-.24,1.88-1.24,3.41-4.53,3.41-3,0-4.8-1.84-4.8-5.19s1.78-5.19,4.8-5.19c3.29,0,4.29,1.52,4.53,3.4l-2.58.34c-.17-.88-.61-1.4-2-1.38s-2.22.91-2.22,2.83.84,2.79,2.22,2.82Z"/><path class="cls-2" d="M237.85,8.24h2.53v5.93A3.81,3.81,0,0,1,243.21,13c2.28,0,3.9,1.17,3.9,3.53v6.59h-2.53V16.9c0-1-.69-1.52-1.73-1.52a2.59,2.59,0,0,0-2.47,1.73v6h-2.53V8.24Z"/><path class="cls-2" d="M250.92,18.19c0,2,.86,2.82,2.23,2.82s2.24-.78,2.24-2.82-.86-2.83-2.24-2.83-2.23.78-2.23,2.83Zm-2.6,0c0-3.42,1.86-5.19,4.83-5.19S258,14.77,258,18.19s-1.86,5.19-4.84,5.19-4.83-1.77-4.83-5.19Z"/><path class="cls-2" d="M261.93,18.19c0,2,.86,2.82,2.23,2.82s2.24-.78,2.24-2.82-.86-2.83-2.24-2.83-2.23.78-2.23,2.83Zm-2.6,0c0-3.42,1.86-5.19,4.83-5.19S269,14.77,269,18.19s-1.86,5.19-4.84,5.19-4.83-1.77-4.83-5.19Z"/><polygon class="cls-2" points="270.53 8.24 273.06 8.24 273.06 23.12 270.53 23.12 270.53 8.24 270.53 8.24"/><path class="cls-1" d="M5.9,14.67,14.66,5.9v8.77Zm23.43,2.44,2.44-2.44H17.11V0L0,17.11H14.66v2.44H7.19L4.74,22h9.92v2.44H12.08L9.63,26.89h5v4.88l2.45-2.44V26.89h2.44L22,24.44H17.11V22h7.33l2.44-2.45H17.11V17.11Z"/><polygon class="cls-1" points="36.59 65 36.28 65 36.28 48.52 36.59 48.52 36.59 65 36.59 65"/><path class="cls-1" d="M262.89,33.8l-.51-1.51-.13-.4V33.8h-.89V30.54h1.23l.55,1.66.15.47.14-.47.56-1.66h1.23V33.8h-.89V31.89l-.13.4-.51,1.51Zm-2.85,0h-.87V31.37h-.95v-.83H261v.83H260V33.8Z"/><polygon class="cls-2" points="50.89 52.02 50.89 52.47 44.89 52.47 44.89 56.55 50.39 56.55 50.39 57 44.89 57 44.89 61.33 51.14 61.33 51.14 61.77 44.39 61.77 44.39 52.02 50.89 52.02 50.89 52.02"/><polygon class="cls-2" points="56.22 56.67 55.37 55.42 53.07 52.02 53.68 52.02 55.73 55.06 56.52 56.22 57.31 55.06 59.36 52.02 59.97 52.02 57.67 55.42 56.82 56.67 57.72 57.99 60.3 61.77 59.66 61.77 57.42 58.42 56.52 57.11 55.62 58.42 53.38 61.77 52.74 61.77 55.32 57.99 56.22 56.67 56.22 56.67"/><polygon class="cls-2" points="68.71 52.02 68.71 52.47 62.71 52.47 62.71 56.55 68.21 56.55 68.21 57 62.71 57 62.71 61.33 68.96 61.33 68.96 61.77 62.21 61.77 62.21 52.02 68.71 52.02 68.71 52.02"/><path class="cls-2" d="M74.9,51.9c2.36,0,3.36,1.07,3.65,2.55l-.53.07c-.25-1.36-1.19-2.2-3.12-2.17-2.54,0-3.6,1.7-3.6,4.55s1.06,4.51,3.6,4.55c1.93,0,2.87-.81,3.12-2.18l.53.08c-.29,1.47-1.29,2.55-3.65,2.55-2.88,0-4.13-1.94-4.13-5s1.25-5,4.13-5Z"/><path class="cls-2" d="M80.34,58.54V52h.51v6.6c0,1.69.76,2.82,3.32,2.82s3.33-1.13,3.33-2.82V52H88v6.52c0,2.05-1,3.36-3.84,3.36s-3.83-1.31-3.83-3.36Z"/><polygon class="cls-2" points="93.32 61.77 92.82 61.77 92.82 52.47 89.51 52.47 89.51 52.02 96.64 52.02 96.64 52.47 93.32 52.47 93.32 61.77 93.32 61.77"/><polygon class="cls-2" points="99.07 61.77 98.58 61.77 98.58 52.02 99.07 52.02 99.07 61.77 99.07 61.77"/><polygon class="cls-2" points="105.08 61.33 106.14 58.44 108.54 52.02 109.09 52.02 105.34 61.9 104.81 61.9 101.06 52.02 101.61 52.02 104.01 58.44 105.08 61.33 105.08 61.33"/><polygon class="cls-2" points="117.33 52.02 117.33 52.47 111.33 52.47 111.33 56.55 116.83 56.55 116.83 57 111.33 57 111.33 61.33 117.58 61.33 117.58 61.77 110.83 61.77 110.83 52.02 117.33 52.02 117.33 52.02"/><polygon class="cls-2" points="129.26 52.02 129.26 52.47 123.27 52.47 123.27 56.55 128.76 56.55 128.76 57 123.27 57 123.27 61.33 129.51 61.33 129.51 61.77 122.77 61.77 122.77 52.02 129.26 52.02 129.26 52.02"/><path class="cls-2" d="M135.05,61.32c2.64,0,3.75-1,3.75-4.42s-1.11-4.43-3.75-4.43H132.2v8.85Zm-.13.45H131.7V52h3.22c2.83,0,4.41,1.08,4.41,4.88s-1.58,4.87-4.41,4.87Z"/><path class="cls-2" d="M141.27,58.54V52h.51v6.6c0,1.69.76,2.82,3.32,2.82s3.33-1.13,3.33-2.82V52h.51v6.52c0,2.05-.95,3.36-3.84,3.36s-3.83-1.31-3.83-3.36Z"/><path class="cls-2" d="M155,51.9c2.36,0,3.36,1.07,3.65,2.55l-.53.07c-.25-1.36-1.19-2.2-3.12-2.17-2.54,0-3.61,1.7-3.61,4.55s1.07,4.51,3.61,4.55c1.93,0,2.87-.81,3.12-2.18l.53.08c-.29,1.47-1.29,2.55-3.65,2.55-2.88,0-4.13-1.94-4.13-5s1.25-5,4.13-5Z"/><path class="cls-2" d="M162.57,55.36l-1,2.65h4.11l-1-2.65-1.06-2.89-1.06,2.89Zm3.29,3.1h-4.45l-1.24,3.31h-.55l3.75-9.87h.52l3.75,9.87h-.55l-1.23-3.31Z"/><polygon class="cls-2" points="171.26 61.77 170.76 61.77 170.76 52.47 167.44 52.47 167.44 52.02 174.57 52.02 174.57 52.47 171.26 52.47 171.26 61.77 171.26 61.77"/><polygon class="cls-2" points="177.01 61.77 176.51 61.77 176.51 52.02 177.01 52.02 177.01 61.77 177.01 61.77"/><path class="cls-2" d="M179.91,56.9c0,2.55.9,4.55,3.6,4.55s3.6-2,3.6-4.55-.9-4.55-3.6-4.55-3.6,2-3.6,4.55Zm-.53,0c0-2.9,1.14-5,4.13-5s4.12,2.1,4.12,5-1.14,5-4.12,5-4.13-2.1-4.13-5Z"/><polygon class="cls-2" points="191.71 54.97 190.21 52.62 190.25 56.02 190.25 61.77 189.76 61.77 189.76 52.02 190.37 52.02 194.82 58.82 196.32 61.17 196.28 57.77 196.28 52.02 196.77 52.02 196.77 61.77 196.16 61.77 191.71 54.97 191.71 54.97"/></g></g></svg>