<?xml version="1.0" encoding="utf-8"?>
<!-- Generator: Adobe Illustrator 22.1.0, SVG Export Plug-In . SVG Version: 6.00 Build 0)  -->
<svg version="1.1" id="MIT-Management-executive-education-footer"
	 xmlns="http://www.w3.org/2000/svg" xmlns:xlink="http://www.w3.org/1999/xlink" x="0px" y="0px" viewBox="0 0 179 23.6"
	 style="enable-background:new 0 0 179 23.6;" xml:space="preserve">
<style type="text/css">
	.st0{fill:#EFEFEF;}
</style>
<g>
	<polygon class="st0" points="60.5,23.1 64.6,23.1 64.6,22.1 61.6,22.1 61.6,19.5 64.6,19.5 64.6,18.5 61.6,18.5 61.6,16.6 
		64.6,16.6 64.6,15.6 60.5,15.6 	"/>
	<polygon class="st0" points="71.5,15.6 70.3,15.6 68.7,18.2 67.3,15.6 66,15.6 68.1,19.2 65.7,23.1 67,23.1 68.7,20.2 70.4,23.1 
		71.6,23.1 69.3,19.2 	"/>
	<polygon class="st0" points="73,23.1 77.1,23.1 77.1,22.1 74.1,22.1 74.1,19.5 77,19.5 77,18.5 74.1,18.5 74.1,16.6 77.1,16.6 
		77.1,15.6 73,15.6 	"/>
	<path class="st0" d="M82.5,15.5c-2.2,0-4,1.7-4,4c0,2.1,1.8,3.9,3.9,3.9c0.7,0,1.4-0.2,2-0.5l0,0v-1.3l-0.1,0.1
		c-0.5,0.5-1.2,0.7-1.9,0.7c-1.5,0-2.8-1.3-2.8-2.9c0-1.6,1.3-2.9,2.8-2.9c0.7,0,1.4,0.3,1.9,0.7l0.1,0.1V16l0,0
		C83.9,15.6,83.2,15.5,82.5,15.5"/>
	<path class="st0" d="M90.6,20c0,1.5-0.6,2.2-1.7,2.2c-1.1,0-1.7-0.7-1.7-2.2v-4.4h-1.1v4.7c0,1.8,1.1,2.9,2.8,2.9s2.8-1.2,2.8-2.9
		v-4.7h-1.1V20z"/>
	<polygon class="st0" points="93,16.6 94.8,16.6 94.8,23.1 95.9,23.1 95.9,16.6 97.6,16.6 97.6,15.6 93,15.6 	"/>
	<rect x="99" y="15.6" class="st0" width="1.1" height="7.5"/>
	<polygon class="st0" points="104.7,20.9 102.6,15.6 101.4,15.6 104.7,23.7 108,15.6 106.9,15.6 	"/>
	<polygon class="st0" points="109.4,23.1 113.5,23.1 113.5,22.1 110.4,22.1 110.4,19.5 113.4,19.5 113.4,18.5 110.4,18.5 
		110.4,16.6 113.5,16.6 113.5,15.6 109.4,15.6 	"/>
	<polygon class="st0" points="119,23.1 123.2,23.1 123.2,22.1 120.1,22.1 120.1,19.5 123.1,19.5 123.1,18.5 120.1,18.5 120.1,16.6 
		123.2,16.6 123.2,15.6 119,15.6 	"/>
	<path class="st0" d="M126.5,15.6h-1.6v7.5h1.6c2.6,0,4.2-1.5,4.2-3.8C130.8,17.1,129.1,15.6,126.5,15.6 M126,16.6h0.2
		c1.5,0,3.4,0.5,3.4,2.7c0,1.3-0.6,2.7-3.4,2.7H126V16.6z"/>
	<path class="st0" d="M136.7,20c0,1.5-0.6,2.2-1.7,2.2c-1.1,0-1.7-0.7-1.7-2.2v-4.4h-1.1v4.7c0,1.8,1.1,2.9,2.8,2.9s2.8-1.2,2.8-2.9
		v-4.7h-1.1V20z"/>
	<path class="st0" d="M143.4,15.5c-2.2,0-4,1.7-4,4c0,2.1,1.8,3.9,3.9,3.9c0.7,0,1.4-0.2,2-0.5l0,0v-1.3l-0.1,0.1
		c-0.5,0.5-1.2,0.7-1.9,0.7c-1.5,0-2.8-1.3-2.8-2.9c0-1.6,1.3-2.9,2.8-2.9c0.7,0,1.4,0.3,1.9,0.7l0.1,0.1V16l0,0
		C144.7,15.6,144.1,15.5,143.4,15.5"/>
	<path class="st0" d="M146.3,23.1h1.2l0.8-1.8h3.3l0.8,1.8h1.2l-3.6-7.9L146.3,23.1z M150,17.6l1.2,2.7h-2.3L150,17.6z"/>
	<polygon class="st0" points="154.2,16.6 156,16.6 156,23.1 157,23.1 157,16.6 158.8,16.6 158.8,15.6 154.2,15.6 	"/>
	<rect x="160.2" y="15.6" class="st0" width="1.1" height="7.5"/>
	<path class="st0" d="M166.8,15.5c-2.2,0-3.9,1.8-3.9,3.9c0,2.2,1.7,3.9,3.9,3.9c2.2,0,3.9-1.7,3.9-3.9
		C170.7,17.2,169,15.5,166.8,15.5 M166.8,22.3c-1.6,0-2.8-1.3-2.8-2.9c0-1.6,1.2-2.9,2.8-2.9c1.6,0,2.8,1.2,2.8,2.9
		C169.7,21,168.4,22.3,166.8,22.3"/>
	<polygon class="st0" points="177.8,15.6 177.8,20.9 172.3,15.1 172.3,23.1 173.4,23.1 173.4,17.8 178.9,23.6 178.9,15.6 	"/>
	<polygon class="st0" points="30.3,23.6 33.9,23.6 34.8,23.6 37.2,23.6 37.2,0.5 30.3,0.5 	"/>
	<polygon class="st0" points="37.8,0.5 37.8,6.2 40.7,6.2 40.7,23.6 47.9,23.6 47.9,6.2 55.7,6.2 55.7,0.5 	"/>
	<polygon class="st0" points="29.7,12 29.6,11.5 27.5,0.5 20.6,0.5 15.9,11.7 11.3,0.5 4.3,0.5 0,23.6 6.9,23.6 9.1,11.7 14.3,23.6 
		17.6,23.6 22.7,11.7 24.9,23.6 27.3,23.6 29.7,23.6 	"/>
	<polygon class="st0" points="62.5,0.5 65.5,0.5 67.8,6.6 70.3,0.5 73.3,0.5 75.4,12 72.1,12 71.2,5.4 71.2,5.4 68.4,12 67.2,12 
		64.6,5.4 64.5,5.4 63.5,12 60.4,12 	"/>
	<path class="st0" d="M79.9,10l-0.8,2H76l4.4-11.5h3.3L88,12h-3.2L84,10H79.9z M82,4L82,4l-1.3,3.7h2.5L82,4z"/>
	<polygon class="st0" points="88.9,0.5 91.8,0.5 97.3,7.5 97.3,7.5 97.3,0.5 100.3,0.5 100.3,12 97.3,12 91.9,4.9 91.8,4.9 91.8,12 
		88.9,12 	"/>
	<path class="st0" d="M105.2,10l-0.8,2h-3.2l4.4-11.5h3.3l4.3,11.5H110l-0.7-2H105.2z M107.3,4L107.3,4L106,7.7h2.5L107.3,4z"/>
	<path class="st0" d="M125.2,5.6c0,1.7-0.2,3.1-1.2,4.5c-1.1,1.6-2.8,2.3-4.7,2.3c-3.6,0-6.1-2.5-6.1-6.1c0-3.7,2.5-6.2,6.2-6.2
		c2.4,0,4.2,1.1,5.2,3.2l-2.8,1.2c-0.4-1.1-1.3-1.8-2.5-1.8c-2,0-3,1.9-3,3.6c0,1.8,1.1,3.6,3,3.6c1.3,0,2.3-0.7,2.4-2h-2.4V5.6
		H125.2z"/>
	<polygon class="st0" points="129.6,3 129.6,4.9 132.9,4.9 132.9,7.5 129.6,7.5 129.6,9.5 133.1,9.5 133.1,12 126.6,12 126.6,0.5 
		133.1,0.5 133.1,3 	"/>
	<polygon class="st0" points="153.2,3 153.2,4.9 156.6,4.9 156.6,7.5 153.2,7.5 153.2,9.5 156.8,9.5 156.8,12 150.2,12 150.2,0.5 
		156.8,0.5 156.8,3 	"/>
	<polygon class="st0" points="158.6,0.5 161.6,0.5 167.1,7.5 167.1,7.5 167.1,0.5 170.1,0.5 170.1,12 167.1,12 161.7,4.9 161.6,4.9 
		161.6,12 158.6,12 	"/>
	<polygon class="st0" points="176.5,12 173.6,12 173.6,3 171.1,3 171.1,0.5 179,0.5 179,3 176.5,3 	"/>
	<polygon class="st0" points="136.3,0.5 139.3,0.5 141.6,6.6 144.1,0.5 147.1,0.5 149.2,12 145.9,12 145,5.4 144.9,5.4 142.2,12 
		141,12 138.3,5.4 138.3,5.4 137.2,12 134.2,12 	"/>
</g>
</svg>
