<?xml version="1.0" encoding="utf-8"?>
<!-- Generator: Adobe Illustrator 22.1.0, SVG Export Plug-In . SVG Version: 6.00 Build 0)  -->
<svg version="1.1" id="MIT-Management-executive-education"
	 xmlns="http://www.w3.org/2000/svg" xmlns:xlink="http://www.w3.org/1999/xlink" x="0px" y="0px" viewBox="0 0 179.6 23.6"
	 style="enable-background:new 0 0 179.6 23.6;" xml:space="preserve">
<style type="text/css">
	.st0{fill:#A51E36;}
	.st1{fill:#888B8D;}
	.st2{fill:#53575A;}
</style>
<g>
	<polygon class="st0" points="61.2,23.1 65.3,23.1 65.3,22.1 62.2,22.1 62.2,19.5 65.2,19.5 65.2,18.5 62.2,18.5 62.2,16.6 
		65.3,16.6 65.3,15.6 61.2,15.6 	"/>
	<polygon class="st0" points="72.1,15.6 70.9,15.6 69.3,18.2 67.9,15.6 66.6,15.6 68.7,19.2 66.4,23.1 67.6,23.1 69.3,20.2 71,23.1 
		72.2,23.1 70,19.2 	"/>
	<polygon class="st0" points="73.6,23.1 77.7,23.1 77.7,22.1 74.7,22.1 74.7,19.5 77.6,19.5 77.6,18.5 74.7,18.5 74.7,16.6 
		77.7,16.6 77.7,15.6 73.6,15.6 	"/>
	<path class="st0" d="M83.2,15.4c-2.2,0-4,1.7-4,4c0,2.1,1.8,3.9,3.9,3.9c0.7,0,1.4-0.2,2-0.5l0,0v-1.3l-0.1,0
		c-0.5,0.5-1.2,0.7-1.9,0.7c-1.5,0-2.8-1.3-2.8-2.9c0-1.6,1.3-2.9,2.8-2.9c0.7,0,1.4,0.3,1.9,0.7l0.1,0.1V16l0,0
		C84.5,15.6,83.9,15.4,83.2,15.4"/>
	<path class="st0" d="M91.3,20c0,1.5-0.6,2.2-1.7,2.2s-1.7-0.7-1.7-2.2v-4.4h-1.1v4.7c0,1.8,1.1,2.9,2.8,2.9s2.8-1.2,2.8-2.9v-4.7
		h-1.1L91.3,20L91.3,20z"/>
	<polygon class="st0" points="93.7,16.6 95.4,16.6 95.4,23.1 96.5,23.1 96.5,16.6 98.2,16.6 98.2,15.6 93.7,15.6 	"/>
	<rect x="99.7" y="15.6" class="st0" width="1.1" height="7.5"/>
	<polygon class="st0" points="105.4,20.9 103.2,15.6 102,15.6 105.4,23.6 108.7,15.6 107.5,15.6 	"/>
	<polygon class="st0" points="110,23.1 114.1,23.1 114.1,22.1 111.1,22.1 111.1,19.5 114,19.5 114,18.5 111.1,18.5 111.1,16.6 
		114.1,16.6 114.1,15.6 110,15.6 	"/>
	<polygon class="st0" points="119.7,23.1 123.8,23.1 123.8,22.1 120.8,22.1 120.8,19.5 123.7,19.5 123.7,18.5 120.8,18.5 
		120.8,16.6 123.8,16.6 123.8,15.6 119.7,15.6 	"/>
	<path class="st0" d="M127.2,15.6h-1.6v7.5h1.6c2.6,0,4.2-1.5,4.2-3.8S129.7,15.6,127.2,15.6 M126.7,16.6h0.2c1.5,0,3.4,0.5,3.4,2.7
		c0,1.3-0.6,2.7-3.4,2.7h-0.2C126.7,22,126.7,16.6,126.7,16.6z"/>
	<path class="st0" d="M137.4,20c0,1.5-0.6,2.2-1.7,2.2c-1.1,0-1.7-0.7-1.7-2.2v-4.4h-1.1v4.7c0,1.8,1.1,2.9,2.8,2.9s2.8-1.2,2.8-2.9
		v-4.7h-1.1V20z"/>
	<path class="st0" d="M144,15.4c-2.2,0-4,1.7-4,4c0,2.1,1.8,3.9,3.9,3.9c0.7,0,1.4-0.2,2-0.5l0,0v-1.3l-0.1,0.1
		c-0.5,0.5-1.2,0.7-1.9,0.7c-1.5,0-2.8-1.3-2.8-2.9c0-1.6,1.3-2.9,2.8-2.9c0.7,0,1.4,0.3,1.9,0.7l0.1,0.1V16l0,0
		C145.4,15.6,144.7,15.4,144,15.4"/>
	<path class="st0" d="M146.9,23.1h1.2l0.8-1.8h3.3l0.8,1.8h1.2l-3.6-7.9L146.9,23.1z M150.6,17.6l1.2,2.7h-2.3L150.6,17.6z"/>
	<polygon class="st0" points="154.8,16.6 156.6,16.6 156.6,23.1 157.7,23.1 157.7,16.6 159.4,16.6 159.4,15.6 154.8,15.6 	"/>
	<rect x="160.8" y="15.6" class="st0" width="1.1" height="7.5"/>
	<path class="st0" d="M167.4,15.4c-2.2,0-3.9,1.8-3.9,3.9c0,2.2,1.7,3.9,3.9,3.9s3.9-1.7,3.9-3.9C171.4,17.2,169.6,15.4,167.4,15.4
		 M167.4,22.2c-1.6,0-2.8-1.3-2.8-2.9c0-1.6,1.2-2.9,2.8-2.9s2.8,1.2,2.8,2.9C170.3,20.9,169,22.2,167.4,22.2"/>
	<polygon class="st0" points="178.4,15.6 178.4,20.9 172.9,15.1 172.9,23.1 174,23.1 174,17.8 179.5,23.5 179.5,15.6 	"/>
	<polygon class="st1" points="30.9,23.5 34.5,23.5 35.4,23.5 37.8,23.5 37.8,0.4 30.9,0.4 	"/>
	<polygon class="st2" points="38.4,0.4 38.4,6.1 41.3,6.1 41.3,23.5 48.5,23.5 48.5,6.1 56.4,6.1 56.4,0.4 	"/>
	<polygon class="st0" points="30.3,12 30.2,11.5 28.2,0.4 21.3,0.4 16.6,11.6 11.9,0.4 4.9,0.4 0.7,23.5 7.5,23.5 9.8,11.7 
		14.9,23.5 18.2,23.5 23.4,11.7 25.6,23.5 28,23.5 30.3,23.5 	"/>
	<polygon class="st2" points="63.2,0.5 66.1,0.5 68.5,6.6 70.9,0.5 73.9,0.5 76,12 72.8,12 71.8,5.3 71.8,5.3 69,12 67.8,12 
		65.2,5.3 65.2,5.3 64.1,12 61.1,12 	"/>
	<path class="st2" d="M80.5,10l-0.8,2h-3.2L81,0.5h3.3L88.6,12h-3.2l-0.7-2H80.5z M82.6,4L82.6,4l-1.3,3.7h2.5L82.6,4z"/>
	<polygon class="st2" points="89.5,0.5 92.5,0.5 97.9,7.5 98,7.5 98,0.5 101,0.5 101,12 98,12 92.5,4.9 92.5,4.9 92.5,12 89.5,12 	
		"/>
	<path class="st2" d="M105.8,10l-0.8,2h-3.2l4.4-11.5h3.3l4.3,11.5h-3.2l-0.7-2H105.8z M107.9,4L107.9,4l-1.3,3.7h2.5L107.9,4z"/>
	<path class="st2" d="M125.8,5.5c0,1.7-0.2,3.1-1.2,4.5c-1.1,1.6-2.8,2.3-4.7,2.3c-3.6,0-6.1-2.5-6.1-6.1c0-3.7,2.5-6.2,6.2-6.2
		c2.4,0,4.2,1.1,5.2,3.2l-2.8,1.2c-0.4-1.1-1.3-1.8-2.5-1.8c-2,0-3,1.9-3,3.6c0,1.8,1.1,3.6,3,3.6c1.3,0,2.3-0.7,2.4-2h-2.4V5.5
		C119.9,5.5,125.8,5.5,125.8,5.5z"/>
	<polygon class="st2" points="130.2,3 130.2,4.9 133.6,4.9 133.6,7.4 130.2,7.4 130.2,9.4 133.7,9.4 133.7,12 127.2,12 127.2,0.5 
		133.7,0.5 133.7,3 	"/>
	<polygon class="st2" points="153.9,3 153.9,4.9 157.2,4.9 157.2,7.4 153.9,7.4 153.9,9.4 157.4,9.4 157.4,12 150.9,12 150.9,0.5 
		157.4,0.5 157.4,3 	"/>
	<polygon class="st2" points="159.3,0.5 162.3,0.5 167.7,7.5 167.8,7.5 167.8,0.5 170.8,0.5 170.8,12 167.8,12 162.3,4.9 162.3,4.9 
		162.3,12 159.3,12 	"/>
	<polygon class="st2" points="177.2,12 174.2,12 174.2,3 171.7,3 171.7,0.5 179.6,0.5 179.6,3 177.2,3 	"/>
	<polygon class="st2" points="137,0.5 139.9,0.5 142.2,6.6 144.7,0.5 147.7,0.5 149.8,12 146.5,12 145.6,5.3 145.6,5.3 142.8,12 
		141.6,12 139,5.3 138.9,5.3 137.9,12 134.8,12 	"/>
</g>
</svg>
