<svg xmlns="http://www.w3.org/2000/svg" viewBox="0 0 14.143 14.143"><defs><style>.a{fill:#fff;}</style></defs><path class="a" d="M7.071-8.036v1.929a.93.93,0,0,1-.281.683.93.93,0,0,1-.683.281H1.929V-.964a.93.93,0,0,1-.281.683A.93.93,0,0,1,.964,0H-.964a.93.93,0,0,1-.683-.281.93.93,0,0,1-.281-.683V-5.143H-6.107a.93.93,0,0,1-.683-.281.93.93,0,0,1-.281-.683V-8.036a.93.93,0,0,1,.281-.683A.93.93,0,0,1-6.107-9h4.179v-4.179a.93.93,0,0,1,.281-.683.93.93,0,0,1,.683-.281H.964a.93.93,0,0,1,.683.281.93.93,0,0,1,.281.683V-9H6.107a.93.93,0,0,1,.683.281A.93.93,0,0,1,7.071-8.036Z" transform="translate(7.072 14.143)"/></svg>