<svg xmlns="http://www.w3.org/2000/svg" viewBox="0 0 41.5 35.86"><defs><style>.a{fill:#C5CBC0;}</style></defs><g transform="translate(0 0.055)"><path class="a" d="M0,22.272c0-6.44,1.531-11.507,4.594-15.244C7.408,3.605,11.439,1.263,16.618,0a1.128,1.128,0,0,1,1.4,1.081v4.5a1.117,1.117,0,0,1-.743,1.058Q11.326,8.739,9.21,13.468a11.748,11.748,0,0,0-.991,4.346,1.1,1.1,0,0,0,1.1,1.126h7.9a1.105,1.105,0,0,1,1.1,1.1V34.725a1.105,1.105,0,0,1-1.1,1.1H1.1a1.105,1.105,0,0,1-1.1-1.1Z" transform="translate(0 -0.022)"/><path class="a" d="M103,22.25c0-6.44,1.531-11.507,4.594-15.244q4.222-5.134,12.024-7.026a1.107,1.107,0,0,1,1.374,1.081v4.5a1.117,1.117,0,0,1-.743,1.058q-5.945,2.094-8.061,6.823a11.748,11.748,0,0,0-.991,4.346,1.1,1.1,0,0,0,1.1,1.126h7.9a1.105,1.105,0,0,1,1.1,1.1V34.7a1.105,1.105,0,0,1-1.1,1.1H104.1a1.105,1.105,0,0,1-1.1-1.1V22.25Z" transform="translate(-79.807)"/></g></svg>