<svg xmlns="http://www.w3.org/2000/svg" viewBox="0 0 53.298 29.629"><defs><style>.a{fill:#C6CFD1;}</style></defs><g transform="translate(-2.336 1.403)"><path class="a" d="M34.842.475A1.589,1.589,0,0,0,34.237,2.9c.3.605,3.33,5.6,3.33,5.6l-.757.454a.148.148,0,0,0-.151-.151L31.966.778A1.709,1.709,0,0,0,29.7.172l-.151.151a1.709,1.709,0,0,0-.605,2.27l4.39,7.568.151.151-.605.3c0-.151,0-.151-.151-.3l-5.3-9.233A1.855,1.855,0,0,0,25,.475h0A1.855,1.855,0,0,0,24.4,2.9l5.3,9.233a.528.528,0,0,1,.151.3l-.454.3c0-.151,0-.151-.151-.151L24.7,4.562a1.709,1.709,0,0,0-2.27-.605l-.151.151a1.709,1.709,0,0,0-.605,2.27l6.66,11.5a.148.148,0,0,0,.151.151h0l.454.757s.454.454.151.605-5.449-1.968-5.449-1.968a1.622,1.622,0,0,0-2.27,1.06,1.764,1.764,0,0,0,.3,2.119l10.747,5.6S36.2,28.175,41.2,25.3s4.39-9.385,2.876-12.109-6.66-11.655-6.66-11.655S36.2-.282,34.842.475Z" transform="translate(10.81 -3.941) rotate(7)"/><path class="a" d="M10.351.475A1.589,1.589,0,0,1,10.957,2.9c-.3.454-3.179,5.6-3.179,5.6l.757.454A.148.148,0,0,1,8.686,8.8L13.379.778A1.336,1.336,0,0,1,15.346.172L15.5.324a1.709,1.709,0,0,1,.605,2.27l-4.39,7.568-.151.151.605.3c0-.151,0-.151.151-.3l5.3-9.233A1.855,1.855,0,0,1,20.039.475h0A1.855,1.855,0,0,1,20.644,2.9l-5.3,9.233a.528.528,0,0,0-.151.3l.454.3c0-.151,0-.151.151-.151l4.541-8.022a1.709,1.709,0,0,1,2.27-.605l.151.151a1.709,1.709,0,0,1,.605,2.27l-6.66,11.5a.148.148,0,0,1-.151.151h0l-.454.757s-.454.454-.151.605S21.4,17.428,21.4,17.428a1.622,1.622,0,0,1,2.27,1.06,1.764,1.764,0,0,1-.3,2.119l-10.747,5.6S8.838,28.175,3.843,25.3-.547,15.914.967,13.19,7.627,1.535,7.627,1.535,8.989-.282,10.351.475Z" transform="translate(2.454 1.548) rotate(-7)"/></g></svg>