<svg xmlns="http://www.w3.org/2000/svg" viewBox="0 0 107.629 80.6"><defs><style>.a{fill:#C6CFD1;}</style></defs><path class="a" d="M90.952,72.265H19.577A12,12,0,0,1,7.6,60.288V11.977A12.054,12.054,0,0,1,19.577,0H90.871a12,12,0,0,1,11.977,11.977V60.208A11.95,11.95,0,0,1,90.952,72.265ZM19.577,5.907a6.061,6.061,0,0,0-6.069,6.069V60.208a6.061,6.061,0,0,0,6.069,6.069H90.871a6.061,6.061,0,0,0,6.069-6.069V11.977a6.061,6.061,0,0,0-6.069-6.069Z" transform="translate(-1.45)"/><g transform="translate(19.26 10.52)"><path class="a" d="M56.008,38.815,53.742,34.04c-.081-.081-.081-.162-.162-.243a15,15,0,0,0,.971-5.422A15.436,15.436,0,1,0,49.534,39.7H49.7l5.179.486A1.016,1.016,0,0,0,56.008,38.815Zm-24.2-8.578a1.861,1.861,0,1,1,1.861-1.861A1.882,1.882,0,0,1,31.811,30.237Zm7.445,0a1.861,1.861,0,1,1,1.861-1.861A1.882,1.882,0,0,1,39.256,30.237Zm7.445,0a1.861,1.861,0,1,1,1.861-1.861A1.882,1.882,0,0,1,46.7,30.237Z" transform="translate(-23.8 -13)"/><g transform="translate(29.395 2.104)"><circle class="a" cx="13.352" cy="13.352" r="13.352" transform="translate(6.455)"/><path class="a" d="M80.255,50.7h-.647c-22.416.566-19.341,30.023-19.341,30.023h39.41C99.676,80.642,102.752,51.266,80.255,50.7Z" transform="translate(-60.124 -22.296)"/></g></g><path class="a" d="M102.774,97.311H4.855A4.87,4.87,0,0,1,0,92.455H0A4.87,4.87,0,0,1,4.855,87.6h97.918a4.87,4.87,0,0,1,4.855,4.855h0A4.87,4.87,0,0,1,102.774,97.311Z" transform="translate(0 -16.711)"/></svg>