<svg xmlns="http://www.w3.org/2000/svg" viewBox="0 0 50.941 35"><defs><style>.a{fill:#C6CFD1;}</style></defs><g transform="translate(0 8.802)"><circle class="a" cx="4.817" cy="4.817" r="4.817" transform="translate(3.985)"/><path class="a" d="M17.639,63.557a8.84,8.84,0,0,0-8.144-8.8A8.986,8.986,0,0,0,0,63.8v6.827a.149.149,0,0,0,.139.139h17.4a.149.149,0,0,0,.139-.139V63.557Z" transform="translate(0 -44.567)"/><g transform="translate(33.267)"><circle class="a" cx="4.817" cy="4.817" r="4.817" transform="translate(3.985)"/><path class="a" d="M113.639,63.6a8.8,8.8,0,0,0-9.6-8.767A9.1,9.1,0,0,0,96,64.054v6.653a.111.111,0,0,0,.1.1h17.465a.111.111,0,0,0,.1-.1V63.6Z" transform="translate(-96 -44.613)"/></g></g><g transform="translate(13.773)"><g transform="translate(5.217 4.817)"><path class="a" d="M69.354,13.9H67.137v3.743A2.359,2.359,0,0,1,64.78,20H54.8v2.356a2.1,2.1,0,0,0,2.114,2.114H69.32a2.1,2.1,0,0,0,2.114-2.114V16.014A2.071,2.071,0,0,0,69.354,13.9Z" transform="translate(-54.8 -13.9)"/><path class="a" d="M98.343,40.237a13.707,13.707,0,0,1,1.351.381.554.554,0,0,0,.658-.762l-.8-1.629a.53.53,0,0,0-.728-.243l-.554.277a.681.681,0,0,0-.312.45l-.069.936A.56.56,0,0,0,98.343,40.237Z" transform="translate(-82.957 -29.599)"/></g><path class="a" d="M54.6,0H42.19a1.864,1.864,0,0,0-1.871,1.871V8.178a.263.263,0,0,0-.069.139l-.485,1.733a.438.438,0,0,0,.554.52l1.421-.485h.035a2.028,2.028,0,0,0,.45.069H54.631A1.864,1.864,0,0,0,56.5,8.282V1.871A1.916,1.916,0,0,0,54.6,0ZM44.2,5.96a1.178,1.178,0,1,1,1.178-1.178A1.191,1.191,0,0,1,44.2,5.96Zm4.332,0A1.178,1.178,0,1,1,49.71,4.782,1.191,1.191,0,0,1,48.532,5.96Zm3.951,0a1.178,1.178,0,1,1,1.178-1.178A1.168,1.168,0,0,1,52.482,5.96Z" transform="translate(-39.746)"/></g></svg>