<svg xmlns="http://www.w3.org/2000/svg" viewBox="0 0 53.3 53.172"><defs><style>.a{fill:#464646;}</style></defs><g transform="translate(0.003)"><g transform="translate(-0.003 0)"><g transform="translate(0 0)"><circle class="a" cx="4.646" cy="4.646" r="4.646" transform="translate(22.004)"/><path class="a" d="M69.054,33.2H65.507A6.425,6.425,0,0,0,59.2,39.76v1.067c0,.5.188,1.067.753,1.067H74.578c.565,0,.753-.565.753-1.067v-1A6.474,6.474,0,0,0,69.054,33.2Z" transform="translate(-40.615 -22.779)"/><path class="a" d="M18.71,59.85a.944.944,0,0,0,.942-.942,19.2,19.2,0,0,1,7.188-15,.888.888,0,0,0,.188-1.224c-.031-.031-.063-.063-.063-.094a.934.934,0,0,0-1.287-.126A21.173,21.173,0,0,0,17.8,58.908.938.938,0,0,0,18.71,59.85Z" transform="translate(-12.212 -28.995)"/><path class="a" d="M75.106,153.2h0a19.79,19.79,0,0,1-12.21,0,.9.9,0,0,0-1.161.6v.031a.972.972,0,0,0,.628,1.161,22.49,22.49,0,0,0,6.623,1.067,20.578,20.578,0,0,0,6.749-1.13.938.938,0,0,0,.408-1.256A.992.992,0,0,0,75.106,153.2Z" transform="translate(-42.336 -105.08)"/><path class="a" d="M119.28,41.667h0a19.157,19.157,0,0,1,8.13,15.663.944.944,0,0,0,.942.942.925.925,0,0,0,.942-.942A21.257,21.257,0,0,0,120.379,40.1a.973.973,0,0,0-1.287.251A.944.944,0,0,0,119.28,41.667Z" transform="translate(-81.581 -27.416)"/><circle class="a" cx="4.646" cy="4.646" r="4.646" transform="translate(3.422 34.057)"/><path class="a" d="M9.854,141.7H6.307A6.445,6.445,0,0,0,0,148.26v1.067c0,.5.188,1.067.753,1.067H15.378c.565,0,.753-.565.753-1.067v-1A6.494,6.494,0,0,0,9.854,141.7Z" transform="translate(0.003 -97.222)"/><circle class="a" cx="4.646" cy="4.646" r="4.646" transform="translate(40.586 34.057)"/><path class="a" d="M128.254,141.7h-3.547a6.445,6.445,0,0,0-6.309,6.56v1.067c0,.5.188,1.067.753,1.067h14.627c.565,0,.753-.565.753-1.067v-1A6.494,6.494,0,0,0,128.254,141.7Z" transform="translate(-81.233 -97.222)"/></g></g></g></svg>