<svg xmlns="http://www.w3.org/2000/svg" viewBox="0 0 65.222 65.222"><defs><style>.a{fill:#fff;}</style></defs><path class="a" d="M156.472,32.861a31.612,31.612,0,0,0-4.405-16.306,32.952,32.952,0,0,0-11.9-11.9,32.38,32.38,0,0,0-32.611,0,32.952,32.952,0,0,0-11.9,11.9A31.612,31.612,0,0,0,91.25,32.861a31.612,31.612,0,0,0,4.405,16.306,32.952,32.952,0,0,0,11.9,11.9,32.38,32.38,0,0,0,32.611,0,32.952,32.952,0,0,0,11.9-11.9A31.612,31.612,0,0,0,156.472,32.861ZM120.048,50.087a1.92,1.92,0,0,1-2.893,0L103.479,36.412a1.92,1.92,0,0,1,0-2.893l2.893-3.024a2.068,2.068,0,0,1,3.024,0l9.2,9.2,19.724-19.724a2.068,2.068,0,0,1,3.024,0L144.243,23a1.92,1.92,0,0,1,0,2.893Z" transform="translate(-91.25 -0.25)"/></svg>