<svg xmlns="http://www.w3.org/2000/svg" viewBox="0 0 40 40">
  <defs>
    <style>
      .cls-1 {
        fill: #fff;
      }
    </style>
  </defs>
  <path id="Path_13" data-name="Path 13" class="cls-1" d="M3157,40a20,20,0,0,1-7.785-38.428,20.005,20.005,0,0,1,15.57,36.856A19.876,19.876,0,0,1,3157,40Zm-10-12.332h0a13.006,13.006,0,0,0,13.921,0,12.321,12.321,0,0,0,4.34-4.855,12.8,12.8,0,0,0,1.5-5.972,2.625,2.625,0,0,0-.042-.559A9.959,9.959,0,0,0,3169,13.918a9.724,9.724,0,0,1-2.579.731,4.492,4.492,0,0,0,1.977-2.492,9.229,9.229,0,0,1-2.879,1.075,5.123,5.123,0,0,0-1.482-1.031,4.318,4.318,0,0,0-1.826-.387,4.383,4.383,0,0,0-2.235.6,4.43,4.43,0,0,0-1.633,1.655,4.487,4.487,0,0,0-.6,2.255,6.254,6.254,0,0,0,.086,1.031,12.625,12.625,0,0,1-9.282-4.727,4.375,4.375,0,0,0-.085,4.426,5.037,5.037,0,0,0,1.461,1.633,4.277,4.277,0,0,1-2.02-.6v.086a4.346,4.346,0,0,0,1.031,2.836,4.569,4.569,0,0,0,2.578,1.59,5.788,5.788,0,0,1-1.2.129c-.257,0-.531-.015-.816-.043a4.508,4.508,0,0,0,1.568,2.213,4.218,4.218,0,0,0,2.642.881,8.981,8.981,0,0,1-5.629,1.933C3147.676,27.711,3147.314,27.7,3147,27.668Z" transform="translate(-3137)"/>
</svg>
