<svg xmlns="http://www.w3.org/2000/svg" viewBox="0 0 38 38"><defs><style>.a{fill:#C6CFD1;}</style></defs><path class="a" d="M35.4,28.5a19.021,19.021,0,0,1-6.9,6.9,18.656,18.656,0,0,1-19,0,19.021,19.021,0,0,1-6.9-6.9,18.656,18.656,0,0,1,0-19A19.021,19.021,0,0,1,9.5,2.6a18.656,18.656,0,0,1,19,0,19.021,19.021,0,0,1,6.9,6.9,18.656,18.656,0,0,1,0,19ZM5.7,26.7a15.813,15.813,0,0,0,5.6,5.6,15.167,15.167,0,0,0,15.4,0,15.048,15.048,0,0,0,5.6-5.6,15.167,15.167,0,0,0,0-15.4,15.813,15.813,0,0,0-5.6-5.6,14.523,14.523,0,0,0-7.7-2,14.857,14.857,0,0,0-7.7,2.1,15.545,15.545,0,0,0-5.6,5.5,14.523,14.523,0,0,0-2,7.7A15.78,15.78,0,0,0,5.7,26.7Zm23.1-7.5a1.7,1.7,0,0,1-.9,1.6L14.4,28.5a1.5,1.5,0,0,1-1.8,0,1.8,1.8,0,0,1-.9-1.6V11a1.7,1.7,0,0,1,.9-1.6,1.5,1.5,0,0,1,1.8,0l13.5,8.2A1.8,1.8,0,0,1,28.8,19.2Z"/></svg>