<svg xmlns="http://www.w3.org/2000/svg" viewBox="0 0 107.629 80.6"><defs><style>.a{fill:#C6CFD1;}</style></defs><g transform="translate(9.26 10.52)"><g transform="translate(14.395 2.104)"><circle class="a" cx="13.352" cy="13.352" r="13.352" transform="translate(6.455)"/><path class="a" d="M80.255,50.7h-.647c-22.416.566-19.341,30.023-19.341,30.023h39.41C99.676,80.642,102.752,51.266,80.255,50.7Z" transform="translate(-60.124 -22.296)"/></g></g><path class="a" d="M90.952,72.265H19.577A12,12,0,0,1,7.6,60.288V11.977A12.054,12.054,0,0,1,19.577,0H90.871a12,12,0,0,1,11.977,11.977V60.208A11.95,11.95,0,0,1,90.952,72.265ZM19.577,5.907a6.061,6.061,0,0,0-6.069,6.069V60.208a6.061,6.061,0,0,0,6.069,6.069H90.871a6.061,6.061,0,0,0,6.069-6.069V11.977a6.061,6.061,0,0,0-6.069-6.069Z" transform="translate(-1.45)"/><path class="a" d="M102.774,97.311H4.855A4.87,4.87,0,0,1,0,92.455H0A4.87,4.87,0,0,1,4.855,87.6h97.918a4.87,4.87,0,0,1,4.855,4.855h0A4.87,4.87,0,0,1,102.774,97.311Z" transform="translate(0 -16.711)"/><path class="a" d="M-9091-12988h-15a6.007,6.007,0,0,1-6-6v-16a6.007,6.007,0,0,1,6-6h15a6.007,6.007,0,0,1,6,6v16A6.007,6.007,0,0,1-9091-12988Zm-7.732-16.317a5.038,5.038,0,0,0-3.829,1.67,8.22,8.22,0,0,0-1.693,4.405,13.286,13.286,0,0,0-.051,2.575h11.355v-.009c.042-.465.35-4.613-1.766-6.989a5.076,5.076,0,0,0-3.831-1.652h-.187Zm.092-8.183a3.851,3.851,0,0,0-3.845,3.849,3.849,3.849,0,0,0,3.845,3.845,3.85,3.85,0,0,0,3.848-3.845A3.852,3.852,0,0,0-9098.64-13012.5Z" transform="translate(9182 13061)"/></svg>