<svg xmlns="http://www.w3.org/2000/svg" viewBox="0 0 18.492 18.492"><defs><style>.a{fill:#C5CBC0;}</style></defs><path class="a" d="M4.58,1.21A9.878,9.878,0,0,1,9.246,0a9.878,9.878,0,0,1,4.666,1.21,10.464,10.464,0,0,1,3.37,3.37,8.561,8.561,0,0,1,1.21,4.666,9.878,9.878,0,0,1-1.21,4.666,9.012,9.012,0,0,1-3.37,3.37,8.561,8.561,0,0,1-4.666,1.21,9.878,9.878,0,0,1-4.666-1.21,9.012,9.012,0,0,1-3.37-3.37A8.561,8.561,0,0,1,0,9.246,9.878,9.878,0,0,1,1.21,4.58,9.012,9.012,0,0,1,4.58,1.21Zm7.95,5.1-.086.086a.3.3,0,0,1-.173.086l.086-.086a.268.268,0,0,1,.086-.173V6.135c.086-.086.173-.086.259-.173s.346-.086.6-.173a.5.5,0,0,1,.6.173A.268.268,0,0,1,14,5.79l.173-.173a.268.268,0,0,0,.173-.086.3.3,0,0,0,.173-.086V5.185c-.086,0-.173,0-.173-.086a.317.317,0,0,1-.086-.259.085.085,0,0,1-.086.086c0-.086,0-.086-.086-.086h-.259a.306.306,0,0,1-.259-.259c0-.086,0-.173-.086-.173l-.086-.086c.086.086,0,0,0,0V4.148a.085.085,0,0,0-.086-.086h-.086a.085.085,0,0,0-.086.086l-.086.086-.086.086h-.518c.086,0,.086-.086,0-.173-.086,0-.173-.086-.173,0,.086,0,.086-.086.086-.173s-.086-.086-.086-.173h.086a.085.085,0,0,0-.086-.086.3.3,0,0,1-.173-.086l-.173-.086a1.758,1.758,0,0,0-.432-.086h-.432a.085.085,0,0,1-.086.086.268.268,0,0,0,.086.173v.173c0,.086,0,.086-.086.173s0,.173,0,.259.086.086.173.173.173.173.086.259c0,.086-.086.086-.173.173s-.173.086-.173.173-.086.173,0,.259a.268.268,0,0,1,.086.173V5.7a.085.085,0,0,0-.086.086H10.8a.317.317,0,0,1-.259-.086.449.449,0,0,1-.173-.346c-.086-.173-.086-.346-.173-.346-.173-.086-.259-.086-.346,0,0-.086-.173-.173-.518-.346a1.685,1.685,0,0,0-.691-.086c.086,0,.086-.086,0-.173,0-.086-.086-.173-.173-.086,0-.086,0-.086.086-.173V3.975c0-.086.086-.173.173-.259l.086-.086V3.284c.259,0,.518,0,.6-.173l.173-.173a.268.268,0,0,0,.086-.173c.086-.086.086-.086.173-.086a.268.268,0,0,1,.173.086.3.3,0,0,1,.173.086c.086,0,.173,0,.173-.173a.317.317,0,0,0-.086-.259c.086,0,.086-.086,0-.173A.085.085,0,0,0,10.2,2.16a.653.653,0,0,0-.346.086c-.086,0-.086.086,0,.086a.085.085,0,0,0-.086.086.3.3,0,0,1-.086.173s-.173.086-.173,0a.268.268,0,0,0-.086-.173.268.268,0,0,1-.086-.173c-.086,0-.086.086-.173.173,0-.086,0-.086-.173-.173a.317.317,0,0,0-.259-.086c.173-.086.086-.173-.086-.346-.086,0-.173-.086-.346-.086-.086,0-.173,0-.173.086s-.086.086-.086.173,0,.086.086.086a.085.085,0,0,1,.086.086.268.268,0,0,1,.173.086c.086.086.086,0,.086,0,.086.086.173.173.086.173H8.468a.268.268,0,0,0-.173.086.085.085,0,0,0-.086.086v.346a.3.3,0,0,1-.086-.173c0-.086-.086-.259-.086-.346.086.086-.086.086-.259.086H7.259c-.086,0-.086,0-.173-.086V2.16h.086A.3.3,0,0,0,7,2.074l-.173-.086a6.773,6.773,0,0,0-1.21.432H5.79a.268.268,0,0,0,.173-.086h.086c.259-.086.432-.173.518-.086l.086-.086.259.259H6.567c-.173.086-.259.086-.346.173a.317.317,0,0,1,.086.259.3.3,0,0,0-.173-.086c0-.173-.086-.173-.173-.259-.086,0-.086-.086-.173-.086H5.53A8.457,8.457,0,0,0,2.765,5.185l.086.086.086.086V5.53h.173a.162.162,0,0,1,0,.259,3.952,3.952,0,0,1,.518.346l.259.259a.317.317,0,0,1-.086.259l-.086-.086c-.086-.259-.086-.259-.173-.259v.259a.3.3,0,0,0,.086.173V7.6h0a.94.94,0,0,0,.086.432q.13.259.259.259-.13,0,.259.518l.086.086a.3.3,0,0,0,.173.086.3.3,0,0,1,.173.086l.086.086a.87.87,0,0,1,.086.259c.086.173.086.259.173.259,0,.086,0,.086.086.259a1.363,1.363,0,0,1,.086.346h0c0,.086.086.086.173.173s.173.086.173.173v.259h.086a1.99,1.99,0,0,0-.259-.778,1.243,1.243,0,0,1-.173-.259A.3.3,0,0,1,5.1,9.678c0-.086,0-.173-.086-.173h.173a.085.085,0,0,1,.086.086h0v.173c0,.086.086.173.173.259s.086.173.173.259.086.173.173.173a.664.664,0,0,1,.173.259c.086.086.086.173,0,.173a.317.317,0,0,1,.259.086c.086.086.173.173.173.259s.086.173.086.346a.378.378,0,0,0,.086.259c0,.086.086.086.086.173s.173.086.259.086.086.086.173.086a.3.3,0,0,1,.173.086.378.378,0,0,0,.259.086c.086.086.173.086.259.173a.3.3,0,0,1,.173.086H8.3a.655.655,0,0,1,.346.173q.13.259.259.259a1.162,1.162,0,0,0,.691.173v.086c0,.086.086.086.086.173a.268.268,0,0,1,.086.173.085.085,0,0,0,.086.086c0,.086.086.086.259.173.086.086.173.173.259.173A.085.085,0,0,0,10.456,14a.317.317,0,0,0,.086.259c.086.086.173.173.259.086.086,0,.173-.173.173-.346-.259.086-.432.086-.6-.259v-.086a.085.085,0,0,0-.086-.086c-.086,0,0-.086,0-.086v-.086h.173v-.173c0-.086,0-.086-.086-.173,0-.086-.086-.173-.173-.259s-.086-.173-.173-.173c0,.086-.086.086-.173.086a.3.3,0,0,1-.173-.086v.173H9.505v-.432a.268.268,0,0,1,.086-.173c0-.086.086-.086.086-.173s0-.086.086-.173c0-.086,0-.086-.086-.086H9.505c-.173,0-.259.086-.346.259V12.1a.268.268,0,0,1-.086.173l-.086.086H8.728c-.173,0-.259,0-.259-.086a1.193,1.193,0,0,1-.259-.346.94.94,0,0,1-.086-.432v-.6a.427.427,0,0,0-.086-.259l.086-.086.086-.086h.259c.086,0,0,0,0-.086h.518a.162.162,0,0,0,.259,0V10.11c0,.259.173.259.346.086a.3.3,0,0,0,.173.086c.086,0,.173,0,.173.086a.085.085,0,0,1,.086.086l.086.086H10.2c.086,0,.086,0,.086-.086.086.086.086.173.173.259q.13.518.259.518h.173l.086-.086V10.37c-.086,0-.173-.086-.259-.173V9.937c0-.086.086-.173.173-.259h.086c.086,0,.086-.086.173-.086s.086-.086.173-.086c.173-.173.259-.259.173-.432.086,0,.086,0,.173-.086h-.086L11.493,8.9h-.086c.086,0,.086-.086,0-.173a.3.3,0,0,0,.086-.173.085.085,0,0,1,.086-.086.162.162,0,0,0,.259,0c.086-.086.086-.086,0-.173,0-.086.086-.086.259-.086s0-.6,0-.6h.086V7.259a.3.3,0,0,1,.173-.086.3.3,0,0,0,.173-.086l.259-.173V6.827c.173,0,.259,0,.346-.173.086-.086.086-.173-.086-.259V6.308a.3.3,0,0,1-.173.086h.259c.086-.086.086-.173-.086-.173C12.962,6.135,12.789,6.135,12.53,6.308Zm-1.9,10.542A7.544,7.544,0,0,0,14.863,14.6a.268.268,0,0,1-.173-.086h-.173a.669.669,0,0,0-.259-.086v-.173a.085.085,0,0,0-.086-.086A.3.3,0,0,0,14,14.085c-.086,0-.173-.173-.173-.173a.085.085,0,0,1-.086-.086l-.086-.086a.085.085,0,0,1-.086-.086h-.432a.79.79,0,0,0-.432-.259.268.268,0,0,1-.173-.086l-.086-.086h-.086c-.086,0-.086,0-.173.086a.3.3,0,0,0-.086.173v.173c-.086,0-.086-.086,0-.173a.162.162,0,0,0,0-.259.085.085,0,0,0-.086-.086c-.086,0-.086,0-.173.086a.3.3,0,0,1-.173.086l-.086.086a.085.085,0,0,0-.086.086.085.085,0,0,1-.086.086.3.3,0,0,0-.086.173c0,.086-.086.086-.086.173a.3.3,0,0,0-.173-.086c-.086,0-.086,0-.086-.086a.94.94,0,0,0,.086.432c.086.173,0,.346.086.432a.534.534,0,0,1-.173.6.625.625,0,0,0-.346.518c0,.173,0,.259.173.346a.317.317,0,0,1-.086.259.317.317,0,0,0-.086.259A.162.162,0,0,0,10.629,16.85Z"/></svg>